<?xml version="1.0" standalone="no"?><!DOCTYPE svg PUBLIC "-//W3C//DTD SVG 1.1//EN" "http://www.w3.org/Graphics/SVG/1.1/DTD/svg11.dtd" ><svg version="1.1" xmlns="http://www.w3.org/2000/svg"><defs><font horiz-adv-x="0" id="font"><font-face ascent="800" bbox="-221 -253 1593 1042" cap-height="780" descent="-200" font-family="SEAS NVE Sans" font-stretch="normal" font-style="normal" font-weight="600" units-per-em="1000" x-height="530" /><missing-glyph d="M846 115V665L555 390ZM169 665V115L460 390ZM507 435 802 714H212ZM212 66H802L507 345ZM95 780H920V0H95Z" horiz-adv-x="1015" /><glyph d="M384 664 249 313H518ZM332 791H435L754 0H639L552 225H216L128 0H14Z" glyph-name="A" horiz-adv-x="767" unicode="A" /><glyph d="M301 313H515L496 445L470 615ZM528 225H253L127 0H3L457 780H1045V688H564L601 445H1000V354H615L654 92H1067V0H562Z" glyph-name="AE" horiz-adv-x="1126" unicode="&#198;" /><glyph d="M384 664 249 313H518ZM332 791H435L754 0H639L552 225H216L128 0H14ZM554 1030 437 822H336L435 1030Z" glyph-name="Aacute" horiz-adv-x="767" unicode="&#193;" /><glyph d="M384 825Q328 825 290 838.5Q252 852 228.5 878.5Q205 905 195.5 943Q186 981 186 1030H268Q267 963 294.5 936Q322 909 384 909Q445 909 472.5 936Q500 963 499 1030H581Q581 981 571.5 943Q562 905 539 878.5Q516 852 478 838.5Q440 825 384 825ZM384 664 249 313H518ZM332 791H435L754 0H639L552 225H216L128 0H14Z" glyph-name="Abreve" horiz-adv-x="767" unicode="&#258;" /><glyph d="M384 664 249 313H518ZM332 791H435L754 0H639L552 225H216L128 0H14ZM490 822 384 948 278 822H175L336 1030H432L593 822Z" glyph-name="Acircumflex" horiz-adv-x="767" unicode="&#194;" /><glyph d="M419 925Q419 954 439.5 974.5Q460 995 489 995Q518 995 538.5 974.5Q559 954 559 925Q559 896 538.5 875.5Q518 855 489 855Q460 855 439.5 875.5Q419 896 419 925ZM209 925Q209 954 229.5 974.5Q250 995 279 995Q308 995 328.5 974.5Q349 954 349 925Q349 896 328.5 875.5Q308 855 279 855Q250 855 229.5 875.5Q209 896 209 925ZM384 664 249 313H518ZM332 791H435L754 0H639L552 225H216L128 0H14Z" glyph-name="Adieresis" horiz-adv-x="767" unicode="&#196;" /><glyph d="M384 664 249 313H518ZM332 791H435L754 0H639L552 225H216L128 0H14ZM332 1030 431 822H331L214 1030Z" glyph-name="Agrave" horiz-adv-x="767" unicode="&#192;" /><glyph d="M384 664 249 313H518ZM332 791H435L754 0H639L552 225H216L128 0H14ZM231 971H536V881H231Z" glyph-name="Amacron" horiz-adv-x="767" unicode="&#256;" /><glyph d="M384 664 249 313H518ZM332 791H435L754 0Q727 -3 702.5 -12Q678 -21 660 -34.5Q642 -48 631 -64.5Q620 -81 620 -98Q620 -116 631.5 -127Q643 -138 669 -138Q681 -138 694 -135.5Q707 -133 717.5 -129.5Q728 -126 735 -123Q742 -120 742 -119L765 -186Q748 -196 720.5 -203.5Q693 -211 657 -211Q633 -211 611 -205.5Q589 -200 571.5 -187.5Q554 -175 544 -155.5Q534 -136 534 -107Q534 -69 559.5 -35Q585 -1 630 24L552 225H216L128 0H14Z" glyph-name="Aogonek" horiz-adv-x="767" unicode="&#260;" /><glyph d="M384 664 249 313H518ZM332 791H435L754 0H639L552 225H216L128 0H14ZM334 926Q334 904 347.5 890.5Q361 877 384 877Q407 877 420 890.5Q433 904 433 926Q433 947 420 960.5Q407 974 384 974Q361 974 347.5 960.5Q334 947 334 926ZM262 926Q262 977 294 1009Q326 1041 384 1041Q442 1041 474 1009Q506 977 506 926Q506 875 474 842.5Q442 810 384 810Q326 810 294 842.5Q262 875 262 926Z" glyph-name="Aring" horiz-adv-x="767" unicode="&#197;" /><glyph d="M294 926Q265 926 253.5 908.5Q242 891 239 872L159 883Q167 939 199 973.5Q231 1008 299 1008Q334 1008 358 995.5Q382 983 401 968Q420 953 437 940.5Q454 928 474 928Q502 928 513.5 945.5Q525 963 528 982L609 971Q600 915 567.5 880.5Q535 846 468 846Q433 846 409 858.5Q385 871 366.5 886Q348 901 331 913.5Q314 926 294 926ZM384 664 249 313H518ZM332 791H435L754 0H639L552 225H216L128 0H14Z" glyph-name="Atilde" horiz-adv-x="767" unicode="&#195;" /><glyph d="M190 688V445H408Q438 445 463.5 450.5Q489 456 507.5 469.5Q526 483 536 507Q546 531 546 569Q546 606 536 629.5Q526 653 508 666Q490 679 464.5 683.5Q439 688 408 688ZM416 92Q440 92 467.5 95Q495 98 519 110.5Q543 123 559 148.5Q575 174 575 220Q575 266 560.5 292.5Q546 319 523.5 332.5Q501 346 473.5 350Q446 354 421 354H190V92ZM85 0V780H419Q456 780 498 772Q540 764 575 741Q610 718 633 677.5Q656 637 656 573Q656 536 647 507.5Q638 479 623.5 458.5Q609 438 591.5 425.5Q574 413 558 407Q584 401 607 386.5Q630 372 647.5 348.5Q665 325 675 292.5Q685 260 685 219Q685 151 663 108Q641 65 605 41Q569 17 522 8.5Q475 0 425 0Z" glyph-name="B" horiz-adv-x="739" unicode="B" /><glyph d="M63 390Q63 481 85 555.5Q107 630 152.5 682.5Q198 735 267.5 763.5Q337 792 431 792Q499 792 550 778Q601 764 638 738.5Q675 713 700 678Q725 643 742 602L650 558Q637 591 620.5 617.5Q604 644 579 662.5Q554 681 518.5 691Q483 701 434 701Q362 701 312 675.5Q262 650 231 607.5Q200 565 186 508.5Q172 452 172 390Q172 328 186 271.5Q200 215 231 172Q262 129 312 104Q362 79 434 79Q483 79 518.5 89Q554 99 579 117.5Q604 136 620.5 162.5Q637 189 650 222L742 178Q725 137 700 102Q675 67 638 41.5Q601 16 550 2Q499 -12 431 -12Q337 -12 267.5 16.5Q198 45 152.5 97.5Q107 150 85 224Q63 298 63 390Z" glyph-name="C" horiz-adv-x="800" unicode="C" /><glyph d="M63 390Q63 481 85 555.5Q107 630 152.5 682.5Q198 735 267.5 763.5Q337 792 431 792Q499 792 550 778Q601 764 638 738.5Q675 713 700 678Q725 643 742 602L650 558Q637 591 620.5 617.5Q604 644 579 662.5Q554 681 518.5 691Q483 701 434 701Q362 701 312 675.5Q262 650 231 607.5Q200 565 186 508.5Q172 452 172 390Q172 328 186 271.5Q200 215 231 172Q262 129 312 104Q362 79 434 79Q483 79 518.5 89Q554 99 579 117.5Q604 136 620.5 162.5Q637 189 650 222L742 178Q725 137 700 102Q675 67 638 41.5Q601 16 550 2Q499 -12 431 -12Q337 -12 267.5 16.5Q198 45 152.5 97.5Q107 150 85 224Q63 298 63 390ZM591 1030 474 822H374L473 1030Z" glyph-name="Cacute" horiz-adv-x="800" unicode="&#262;" /><glyph d="M63 390Q63 481 85 555.5Q107 630 152.5 682.5Q198 735 267.5 763.5Q337 792 431 792Q499 792 550 778Q601 764 638 738.5Q675 713 700 678Q725 643 742 602L650 558Q637 591 620.5 617.5Q604 644 579 662.5Q554 681 518.5 691Q483 701 434 701Q362 701 312 675.5Q262 650 231 607.5Q200 565 186 508.5Q172 452 172 390Q172 328 186 271.5Q200 215 231 172Q262 129 312 104Q362 79 434 79Q483 79 518.5 89Q554 99 579 117.5Q604 136 620.5 162.5Q637 189 650 222L742 178Q725 137 700 102Q675 67 638 41.5Q601 16 550 2Q499 -12 431 -12Q337 -12 267.5 16.5Q198 45 152.5 97.5Q107 150 85 224Q63 298 63 390ZM375 822 214 1030H317L423 903L530 1030H633L472 822Z" glyph-name="Ccaron" horiz-adv-x="800" unicode="&#268;" /><glyph d="M63 390Q63 481 85 555.5Q107 630 152.5 682.5Q198 735 267.5 763.5Q337 792 431 792Q499 792 550 778Q601 764 638 738.5Q675 713 700 678Q725 643 742 602L650 558Q637 591 620.5 617.5Q604 644 579 662.5Q554 681 518.5 691Q483 701 434 701Q362 701 312 675.5Q262 650 231 607.5Q200 565 186 508.5Q172 452 172 390Q172 328 186 271.5Q200 215 231 172Q262 129 312 104Q362 79 434 79Q483 79 518.5 89Q554 99 579 117.5Q604 136 620.5 162.5Q637 189 650 222L742 178Q726 139 703 106Q680 73 646 48Q612 23 566.5 7.5Q521 -8 461 -11L454 -35Q491 -43 519.5 -64.5Q548 -86 548 -126Q548 -149 538 -165Q528 -181 510.5 -191.5Q493 -202 469.5 -207Q446 -212 420 -212Q386 -212 359.5 -205.5Q333 -199 322 -194L340 -141Q348 -145 358 -148Q377 -155 398 -155Q407 -155 417.5 -154Q428 -153 437 -149.5Q446 -146 452 -140Q458 -134 458 -125Q458 -102 431 -91Q404 -80 366 -76L389 -10Q306 -4 244.5 27Q183 58 142.5 110Q102 162 82.5 233Q63 304 63 390Z" glyph-name="Ccedilla" horiz-adv-x="800" unicode="&#199;" /><glyph d="M63 390Q63 481 85 555.5Q107 630 152.5 682.5Q198 735 267.5 763.5Q337 792 431 792Q499 792 550 778Q601 764 638 738.5Q675 713 700 678Q725 643 742 602L650 558Q637 591 620.5 617.5Q604 644 579 662.5Q554 681 518.5 691Q483 701 434 701Q362 701 312 675.5Q262 650 231 607.5Q200 565 186 508.5Q172 452 172 390Q172 328 186 271.5Q200 215 231 172Q262 129 312 104Q362 79 434 79Q483 79 518.5 89Q554 99 579 117.5Q604 136 620.5 162.5Q637 189 650 222L742 178Q725 137 700 102Q675 67 638 41.5Q601 16 550 2Q499 -12 431 -12Q337 -12 267.5 16.5Q198 45 152.5 97.5Q107 150 85 224Q63 298 63 390ZM472 1030 633 822H530L423 949L317 822H214L375 1030Z" glyph-name="Ccircumflex" horiz-adv-x="800" unicode="&#264;" /><glyph d="M63 390Q63 481 85 555.5Q107 630 152.5 682.5Q198 735 267.5 763.5Q337 792 431 792Q499 792 550 778Q601 764 638 738.5Q675 713 700 678Q725 643 742 602L650 558Q637 591 620.5 617.5Q604 644 579 662.5Q554 681 518.5 691Q483 701 434 701Q362 701 312 675.5Q262 650 231 607.5Q200 565 186 508.5Q172 452 172 390Q172 328 186 271.5Q200 215 231 172Q262 129 312 104Q362 79 434 79Q483 79 518.5 89Q554 99 579 117.5Q604 136 620.5 162.5Q637 189 650 222L742 178Q725 137 700 102Q675 67 638 41.5Q601 16 550 2Q499 -12 431 -12Q337 -12 267.5 16.5Q198 45 152.5 97.5Q107 150 85 224Q63 298 63 390ZM351 925Q351 954 371.5 974.5Q392 995 421 995Q450 995 470.5 974.5Q491 954 491 925Q491 896 470.5 875.5Q450 855 421 855Q392 855 371.5 875.5Q351 896 351 925Z" glyph-name="Cdotaccent" horiz-adv-x="800" unicode="&#266;" /><glyph d="M367 92Q441 92 492.5 113Q544 134 576 173Q608 212 622.5 267Q637 322 637 390Q637 458 622.5 513Q608 568 576 607Q544 646 492.5 667Q441 688 367 688H190V92ZM85 0V780H367Q554 780 650 686Q746 592 746 390Q746 188 650 94Q554 0 367 0Z" glyph-name="D" horiz-adv-x="808" unicode="D" /><glyph d="M312 822 151 1030H254L360 903L467 1030H570L409 822ZM367 92Q441 92 492.5 113Q544 134 576 173Q608 212 622.5 267Q637 322 637 390Q637 458 622.5 513Q608 568 576 607Q544 646 492.5 667Q441 688 367 688H190V92ZM85 0V780H367Q554 780 650 686Q746 592 746 390Q746 188 650 94Q554 0 367 0Z" glyph-name="Dcaron" horiz-adv-x="808" unicode="&#270;" /><glyph d="M424 92Q499 92 550.5 113Q602 134 634 173Q666 212 680 267Q694 322 694 390Q694 458 680 513Q666 568 634 607Q602 646 550.5 667Q499 688 424 688H247V445H477V354H247V92ZM142 0V354H20V445H142V780H424Q611 780 707 686Q803 592 803 390Q803 188 707 94Q611 0 424 0Z" glyph-name="Dcroat" horiz-adv-x="865" unicode="&#272;" /><glyph d="M394 515 182 91 314 92H595L727 91L515 515L455 641ZM53 54 413 775H496L856 54V0H53Z" glyph-name="Delta" horiz-adv-x="909" unicode="&#8710;" /><glyph d="M652 780V688H190V445H607V354H190V92H673V0H85V780Z" glyph-name="E" horiz-adv-x="733" unicode="E" /><glyph d="M545 1030 428 822H328L427 1030ZM652 780V688H190V445H607V354H190V92H673V0H85V780Z" glyph-name="Eacute" horiz-adv-x="733" unicode="&#201;" /><glyph d="M377 825Q321 825 283 838.5Q245 852 222 878.5Q199 905 189.5 943Q180 981 180 1030H262Q261 963 288.5 936Q316 909 377 909Q439 909 466.5 936Q494 963 493 1030H575Q575 981 565.5 943Q556 905 532.5 878.5Q509 852 471 838.5Q433 825 377 825ZM652 780V688H190V445H607V354H190V92H673V0H85V780Z" glyph-name="Ebreve" horiz-adv-x="733" unicode="&#276;" /><glyph d="M329 822 168 1030H271L377 903L484 1030H587L426 822ZM652 780V688H190V445H607V354H190V92H673V0H85V780Z" glyph-name="Ecaron" horiz-adv-x="733" unicode="&#282;" /><glyph d="M426 1030 587 822H484L377 949L271 822H168L329 1030ZM652 780V688H190V445H607V354H190V92H673V0H85V780Z" glyph-name="Ecircumflex" horiz-adv-x="733" unicode="&#202;" /><glyph d="M414 925Q414 954 434.5 974.5Q455 995 484 995Q513 995 533.5 974.5Q554 954 554 925Q554 896 533.5 875.5Q513 855 484 855Q455 855 434.5 875.5Q414 896 414 925ZM204 925Q204 954 224.5 974.5Q245 995 274 995Q303 995 323.5 974.5Q344 954 344 925Q344 896 323.5 875.5Q303 855 274 855Q245 855 224.5 875.5Q204 896 204 925ZM652 780V688H190V445H607V354H190V92H673V0H85V780Z" glyph-name="Edieresis" horiz-adv-x="733" unicode="&#203;" /><glyph d="M308 925Q308 954 328.5 974.5Q349 995 378 995Q407 995 427.5 974.5Q448 954 448 925Q448 896 427.5 875.5Q407 855 378 855Q349 855 328.5 875.5Q308 896 308 925ZM652 780V688H190V445H607V354H190V92H673V0H85V780Z" glyph-name="Edotaccent" horiz-adv-x="733" unicode="&#278;" /><glyph d="M335 1030 434 822H334L217 1030ZM652 780V688H190V445H607V354H190V92H673V0H85V780Z" glyph-name="Egrave" horiz-adv-x="733" unicode="&#200;" /><glyph d="M225 882V972H530V882ZM652 780V688H190V445H607V354H190V92H673V0H85V780Z" glyph-name="Emacron" horiz-adv-x="733" unicode="&#274;" /><glyph d="M606 15 279 471 188 604 191 369V0H85V780H181L518 309L609 176L606 411V780H712V-7Q712 -47 703.5 -84Q695 -121 672.5 -149.5Q650 -178 609.5 -195Q569 -212 505 -212Q483 -212 461.5 -208.5Q440 -205 427 -200L438 -110Q445 -114 462 -119Q479 -124 501 -123Q528 -123 548 -118Q568 -113 580.5 -99.5Q593 -86 599.5 -62.5Q606 -39 606 -1Z" glyph-name="Eng" horiz-adv-x="797" unicode="&#330;" /><glyph d="M652 780V688H190V445H607V354H190V92H673V0Q646 -3 622 -12.5Q598 -22 579.5 -35.5Q561 -49 550.5 -65.5Q540 -82 540 -99Q540 -117 551.5 -128Q563 -139 589 -139Q600 -139 613 -136.5Q626 -134 637 -130.5Q648 -127 655 -124Q662 -121 662 -120L685 -187Q668 -197 640.5 -204.5Q613 -212 577 -212Q553 -212 530.5 -206.5Q508 -201 491 -188.5Q474 -176 463.5 -156.5Q453 -137 453 -108Q453 -78 469.5 -50.5Q486 -23 515 0H85V780Z" glyph-name="Eogonek" horiz-adv-x="733" unicode="&#280;" /><glyph d="M424 92Q499 92 550.5 113Q602 134 634 173Q666 212 680 267Q694 322 694 390Q694 458 680 513Q666 568 634 607Q602 646 550.5 667Q499 688 424 688H247V445H477V354H247V92ZM142 0V354H20V445H142V780H424Q611 780 707 686Q803 592 803 390Q803 188 707 94Q611 0 424 0Z" glyph-name="Eth" horiz-adv-x="865" unicode="&#208;" /><glyph d="M29 265V342H133V422H29V499H142Q164 633 245 704Q326 775 466 775Q530 775 578 761Q626 747 661 723Q696 699 719 666.5Q742 634 754 597L665 554Q654 584 638 609Q622 634 599 651Q576 668 543.5 677.5Q511 687 466 687Q378 687 323 640Q268 593 251 499H579L553 422H240V342H526L500 265H251Q268 171 323 124Q378 77 466 77Q511 77 543.5 86.5Q576 96 599 113Q622 130 638 155Q654 180 665 210L754 167Q742 130 719 97.5Q696 65 661 41Q626 17 578 3Q530 -11 466 -11Q326 -11 245 60Q164 131 142 265Z" glyph-name="Euro" horiz-adv-x="813" unicode="&#8364;" /><glyph d="M190 0H85V780H631V688H190V445H585V354H190Z" glyph-name="F" horiz-adv-x="666" unicode="F" /><glyph d="M647 559Q622 629 573.5 665Q525 701 435 701Q356 701 305 675.5Q254 650 224.5 607.5Q195 565 183.5 508.5Q172 452 172 390Q172 328 185 271.5Q198 215 228 172.5Q258 130 308 104.5Q358 79 433 79Q503 79 556 95Q609 111 639 132V327H462V414H744V79Q706 55 669.5 37.5Q633 20 595.5 9Q558 -2 518 -7Q478 -12 432 -12Q338 -11 268.5 17.5Q199 46 153.5 98.5Q108 151 85.5 224.5Q63 298 63 390Q63 481 84.5 555.5Q106 630 151.5 682.5Q197 735 267.5 763.5Q338 792 435 792Q501 792 551.5 777.5Q602 763 638.5 738Q675 713 700 678.5Q725 644 740 604Z" glyph-name="G" horiz-adv-x="824" unicode="G" /><glyph d="M647 559Q622 629 573.5 665Q525 701 435 701Q356 701 305 675.5Q254 650 224.5 607.5Q195 565 183.5 508.5Q172 452 172 390Q172 328 185 271.5Q198 215 228 172.5Q258 130 308 104.5Q358 79 433 79Q503 79 556 95Q609 111 639 132V327H462V414H744V79Q706 55 669.5 37.5Q633 20 595.5 9Q558 -2 518 -7Q478 -12 432 -12Q338 -11 268.5 17.5Q199 46 153.5 98.5Q108 151 85.5 224.5Q63 298 63 390Q63 481 84.5 555.5Q106 630 151.5 682.5Q197 735 267.5 763.5Q338 792 435 792Q501 792 551.5 777.5Q602 763 638.5 738Q675 713 700 678.5Q725 644 740 604ZM423 825Q367 825 329 838.5Q291 852 268 878.5Q245 905 235.5 943Q226 981 226 1030H308Q307 963 334.5 936Q362 909 423 909Q485 909 512.5 936Q540 963 538 1030H621Q621 981 611.5 943Q602 905 578.5 878.5Q555 852 517 838.5Q479 825 423 825Z" glyph-name="Gbreve" horiz-adv-x="824" unicode="&#286;" /><glyph d="M647 559Q622 629 573.5 665Q525 701 435 701Q356 701 305 675.5Q254 650 224.5 607.5Q195 565 183.5 508.5Q172 452 172 390Q172 328 185 271.5Q198 215 228 172.5Q258 130 308 104.5Q358 79 433 79Q503 79 556 95Q609 111 639 132V327H462V414H744V79Q706 55 669.5 37.5Q633 20 595.5 9Q558 -2 518 -7Q478 -12 432 -12Q338 -11 268.5 17.5Q199 46 153.5 98.5Q108 151 85.5 224.5Q63 298 63 390Q63 481 84.5 555.5Q106 630 151.5 682.5Q197 735 267.5 763.5Q338 792 435 792Q501 792 551.5 777.5Q602 763 638.5 738Q675 713 700 678.5Q725 644 740 604ZM472 1030 633 822H530L423 949L317 822H214L375 1030Z" glyph-name="Gcircumflex" horiz-adv-x="824" unicode="&#284;" /><glyph d="M647 559Q622 629 573.5 665Q525 701 435 701Q356 701 305 675.5Q254 650 224.5 607.5Q195 565 183.5 508.5Q172 452 172 390Q172 328 185 271.5Q198 215 228 172.5Q258 130 308 104.5Q358 79 433 79Q503 79 556 95Q609 111 639 132V327H462V414H744V79Q706 55 669.5 37.5Q633 20 595.5 9Q558 -2 518 -7Q478 -12 432 -12Q338 -11 268.5 17.5Q199 46 153.5 98.5Q108 151 85.5 224.5Q63 298 63 390Q63 481 84.5 555.5Q106 630 151.5 682.5Q197 735 267.5 763.5Q338 792 435 792Q501 792 551.5 777.5Q602 763 638.5 738Q675 713 700 678.5Q725 644 740 604ZM488 -62 439 -200H346L364 -62Z" glyph-name="Gcommaaccent" horiz-adv-x="824" unicode="&#290;" /><glyph d="M647 559Q622 629 573.5 665Q525 701 435 701Q356 701 305 675.5Q254 650 224.5 607.5Q195 565 183.5 508.5Q172 452 172 390Q172 328 185 271.5Q198 215 228 172.5Q258 130 308 104.5Q358 79 433 79Q503 79 556 95Q609 111 639 132V327H462V414H744V79Q706 55 669.5 37.5Q633 20 595.5 9Q558 -2 518 -7Q478 -12 432 -12Q338 -11 268.5 17.5Q199 46 153.5 98.5Q108 151 85.5 224.5Q63 298 63 390Q63 481 84.5 555.5Q106 630 151.5 682.5Q197 735 267.5 763.5Q338 792 435 792Q501 792 551.5 777.5Q602 763 638.5 738Q675 713 700 678.5Q725 644 740 604ZM352 925Q352 954 372.5 974.5Q393 995 422 995Q451 995 471.5 974.5Q492 954 492 925Q492 896 471.5 875.5Q451 855 422 855Q393 855 372.5 875.5Q352 896 352 925Z" glyph-name="Gdotaccent" horiz-adv-x="824" unicode="&#288;" /><glyph d="M708 780V0H602V354H190V0H85V780H190V445H602V780Z" glyph-name="H" horiz-adv-x="793" unicode="H" /><glyph d="M602 445V560H190V445ZM708 780V0H602V354H190V0H85V780H190V640H602V780Z" glyph-name="Hbar" horiz-adv-x="793" unicode="&#294;" /><glyph d="M445 1030 606 822H503L396 949L290 822H187L348 1030ZM708 780V0H602V354H190V0H85V780H190V445H602V780Z" glyph-name="Hcircumflex" horiz-adv-x="793" unicode="&#292;" /><glyph d="M209 0H104V780H209Z" glyph-name="I" horiz-adv-x="313" unicode="I" /><glyph d="M499 780H606V194Q606 154 596 117Q586 80 561.5 51.5Q537 23 494.5 5.5Q452 -12 388 -12Q365 -12 344.5 -8.5Q324 -5 311 0L321 93Q329 89 346.5 84Q364 79 386 80Q413 80 434 85.5Q455 91 469.5 104.5Q484 118 491.5 141Q499 164 499 200ZM209 0H104V780H209Z" glyph-name="IJ" horiz-adv-x="682" unicode="&#306;" /><glyph d="M324 1030 207 822H107L206 1030ZM209 0H104V780H209Z" glyph-name="Iacute" horiz-adv-x="313" unicode="&#205;" /><glyph d="M156 825Q100 825 62 838.5Q24 852 1 878.5Q-22 905 -31.5 943Q-41 981 -41 1030H41Q40 963 67.5 936Q95 909 156 909Q218 909 245.5 936Q273 963 272 1030H354Q354 981 344.5 943Q335 905 312 878.5Q289 852 251 838.5Q213 825 156 825ZM209 0H104V780H209Z" glyph-name="Ibreve" horiz-adv-x="313" unicode="&#300;" /><glyph d="M205 1030 366 822H263L156 949L50 822H-53L108 1030ZM209 0H104V780H209Z" glyph-name="Icircumflex" horiz-adv-x="313" unicode="&#206;" /><glyph d="M191 925Q191 954 211.5 974.5Q232 995 261 995Q290 995 310.5 974.5Q331 954 331 925Q331 896 310.5 875.5Q290 855 261 855Q232 855 211.5 875.5Q191 896 191 925ZM-19 925Q-19 954 1.5 974.5Q22 995 51 995Q80 995 100.5 974.5Q121 954 121 925Q121 896 100.5 875.5Q80 855 51 855Q22 855 1.5 875.5Q-19 896 -19 925ZM209 0H104V780H209Z" glyph-name="Idieresis" horiz-adv-x="313" unicode="&#207;" /><glyph d="M86 925Q86 954 106.5 974.5Q127 995 156 995Q185 995 205.5 974.5Q226 954 226 925Q226 896 205.5 875.5Q185 855 156 855Q127 855 106.5 875.5Q86 896 86 925ZM209 0H104V780H209Z" glyph-name="Idotaccent" horiz-adv-x="313" unicode="&#304;" /><glyph d="M104 1030 203 822H103L-15 1030ZM209 0H104V780H209Z" glyph-name="Igrave" horiz-adv-x="313" unicode="&#204;" /><glyph d="M4 882V972H309V882ZM209 0H104V780H209Z" glyph-name="Imacron" horiz-adv-x="313" unicode="&#298;" /><glyph d="M104 780H209V0Q172 -18 144.5 -43.5Q117 -69 117 -99Q117 -117 128 -128Q139 -139 166 -139Q181 -139 194.5 -135.5Q208 -132 219.5 -127.5Q231 -123 238 -119Q245 -115 247 -113L271 -182Q249 -196 219.5 -204Q190 -212 154 -212Q130 -212 108 -206.5Q86 -201 68.5 -188.5Q51 -176 41 -156.5Q31 -137 31 -109Q31 -71 51 -44Q71 -17 104 7Z" glyph-name="Iogonek" horiz-adv-x="313" unicode="&#302;" /><glyph d="M67 926Q38 926 26.5 908.5Q15 891 12 872L-69 883Q-60 939 -28 973.5Q4 1008 72 1008Q107 1008 131 995.5Q155 983 173.5 968Q192 953 209 940.5Q226 928 246 928Q275 928 286.5 945.5Q298 963 301 982L382 971Q373 915 340.5 880.5Q308 846 241 846Q206 846 182 858.5Q158 871 139 886Q120 901 103.5 913.5Q87 926 67 926ZM209 0H104V780H209Z" glyph-name="Itilde" horiz-adv-x="313" unicode="&#296;" /><glyph d="M107 182Q113 161 122.5 142Q132 123 147 109Q162 95 184 87Q206 79 238 79Q309 79 334 113Q359 147 359 209V780H465V205Q465 163 452.5 123.5Q440 84 412.5 54Q385 24 341.5 6Q298 -12 236 -12Q180 -12 142 1.5Q104 15 79 36.5Q54 58 39.5 85Q25 112 18 138Z" glyph-name="J" horiz-adv-x="541" unicode="J" /><glyph d="M465 780V200Q465 158 452.5 119.5Q440 81 412.5 51.5Q385 22 340.5 5Q296 -12 233 -12Q167 -12 126 3Q85 18 62 43.5Q39 69 29.5 101.5Q20 134 17 169L123 182Q125 159 130.5 140Q136 121 148 107.5Q160 94 180.5 86.5Q201 79 233 79Q270 79 294.5 87Q319 95 333 110.5Q347 126 353 149.5Q359 173 359 204V780ZM461 1030 622 822H519L412 949L305 822H203L364 1030Z" glyph-name="Jcircumflex" horiz-adv-x="541" unicode="&#308;" /><glyph d="M190 445H295L583 780H721L387 400L739 0H601L297 354H190V0H85V780H190Z" glyph-name="K" horiz-adv-x="753" unicode="K" /><glyph d="M435 -62 387 -200H294L312 -62ZM190 445H295L583 780H721L387 400L739 0H601L297 354H190V0H85V780H190Z" glyph-name="Kcommaaccent" horiz-adv-x="753" unicode="&#310;" /><glyph d="M190 92H609V0H85V780H190Z" glyph-name="L" horiz-adv-x="623" unicode="L" /><glyph d="M305 1030 188 822H88L187 1030ZM190 92H609V0H85V780H190Z" glyph-name="Lacute" horiz-adv-x="623" unicode="&#313;" /><glyph d="M523 800 450 592H359L409 800ZM190 92H609V0H85V780H190Z" glyph-name="Lcaron" horiz-adv-x="623" unicode="&#317;" /><glyph d="M413 -62 365 -200H272L290 -62ZM190 92H609V0H85V780H190Z" glyph-name="Lcommaaccent" horiz-adv-x="623" unicode="&#315;" /><glyph d="M375 400Q375 429 395.5 449.5Q416 470 445 470Q474 470 494.5 449.5Q515 429 515 400Q515 371 494.5 350.5Q474 330 445 330Q416 330 395.5 350.5Q375 371 375 400ZM190 92H609V0H85V780H190Z" glyph-name="Ldot" horiz-adv-x="623" unicode="&#319;" /><glyph d="M190 314V92H609V0H85V265L6 228V311L85 348V780H190V397L471 530V447Z" glyph-name="Lslash" horiz-adv-x="623" unicode="&#321;" /><glyph d="M437 0 237 455 185 584 188 285V0H85V780H199L414 288L481 124L548 288L763 780H877V0H774V285L777 584L725 455L525 0Z" glyph-name="M" horiz-adv-x="962" unicode="M" /><glyph d="M518 309 609 176 606 411V780H712V0H616L279 471L188 604L191 369V0H85V780H181Z" glyph-name="N" horiz-adv-x="797" unicode="N" /><glyph d="M567 1030 449 822H349L448 1030ZM518 309 609 176 606 411V780H712V0H616L279 471L188 604L191 369V0H85V780H181Z" glyph-name="Nacute" horiz-adv-x="797" unicode="&#323;" /><glyph d="M350 822 189 1030H292L398 903L505 1030H608L447 822ZM518 309 609 176 606 411V780H712V0H616L279 471L188 604L191 369V0H85V780H181Z" glyph-name="Ncaron" horiz-adv-x="797" unicode="&#327;" /><glyph d="M463 -62 414 -200H321L339 -62ZM518 309 609 176 606 411V780H712V0H616L279 471L188 604L191 369V0H85V780H181Z" glyph-name="Ncommaaccent" horiz-adv-x="797" unicode="&#325;" /><glyph d="M309 926Q280 926 268.5 908.5Q257 891 254 872L173 883Q182 939 214 973.5Q246 1008 314 1008Q349 1008 373 995.5Q397 983 415.5 968Q434 953 451 940.5Q468 928 488 928Q517 928 528.5 945.5Q540 963 543 982L624 971Q615 915 582.5 880.5Q550 846 483 846Q448 846 424 858.5Q400 871 381.5 886Q363 901 346 913.5Q329 926 309 926ZM518 309 609 176 606 411V780H712V0H616L279 471L188 604L191 369V0H85V780H181Z" glyph-name="Ntilde" horiz-adv-x="797" unicode="&#209;" /><glyph d="M423 -12Q328 -12 260 16.5Q192 45 148.5 97.5Q105 150 84 224Q63 298 63 390Q63 481 84 555.5Q105 630 148.5 682.5Q192 735 260 763.5Q328 792 423 792Q517 792 585 763.5Q653 735 696.5 682.5Q740 630 761 555.5Q782 481 782 390Q782 298 761 224Q740 150 696.5 97.5Q653 45 585 16.5Q517 -12 423 -12ZM423 701Q348 701 299.5 675.5Q251 650 223 607.5Q195 565 184 508.5Q173 452 173 390Q173 328 184 271.5Q195 215 223 172Q251 129 299.5 104Q348 79 423 79Q498 79 546.5 104Q595 129 622.5 172Q650 215 661 271.5Q672 328 672 390Q672 452 661 508.5Q650 565 622.5 607.5Q595 650 546.5 675.5Q498 701 423 701Z" glyph-name="O" horiz-adv-x="846" unicode="O" /><glyph d="M441 688Q366 688 314.5 667Q263 646 231 607Q199 568 184.5 513Q170 458 170 390Q170 322 184.5 267Q199 212 231 173Q263 134 314.5 113Q366 92 441 92H538V688ZM1063 780V688H644V445H1018V354H644V92H1084V0H441Q253 0 157 94Q61 188 61 390Q61 592 157 686Q253 780 441 780Z" glyph-name="OE" horiz-adv-x="1144" unicode="&#338;" /><glyph d="M591 1030 474 822H373L472 1030ZM423 701Q348 701 299.5 675.5Q251 650 223 607.5Q195 565 184 508.5Q173 452 173 390Q173 328 184 271.5Q195 215 223 172Q251 129 299.5 104Q348 79 423 79Q498 79 546.5 104Q595 129 622.5 172Q650 215 661 271.5Q672 328 672 390Q672 452 661 508.5Q650 565 622.5 607.5Q595 650 546.5 675.5Q498 701 423 701ZM423 -12Q328 -12 260 16.5Q192 45 148.5 97.5Q105 150 84 224Q63 298 63 390Q63 481 84 555.5Q105 630 148.5 682.5Q192 735 260 763.5Q328 792 423 792Q517 792 585 763.5Q653 735 696.5 682.5Q740 630 761 555.5Q782 481 782 390Q782 298 761 224Q740 150 696.5 97.5Q653 45 585 16.5Q517 -12 423 -12Z" glyph-name="Oacute" horiz-adv-x="846" unicode="&#211;" /><glyph d="M423 825Q367 825 329 838.5Q291 852 267.5 878.5Q244 905 234.5 943Q225 981 225 1030H308Q307 963 334 936Q361 909 423 909Q484 909 511.5 936Q539 963 538 1030H620Q621 981 611.5 943Q602 905 578.5 878.5Q555 852 517 838.5Q479 825 423 825ZM423 -12Q328 -12 260 16.5Q192 45 148.5 97.5Q105 150 84 224Q63 298 63 390Q63 481 84 555.5Q105 630 148.5 682.5Q192 735 260 763.5Q328 792 423 792Q517 792 585 763.5Q653 735 696.5 682.5Q740 630 761 555.5Q782 481 782 390Q782 298 761 224Q740 150 696.5 97.5Q653 45 585 16.5Q517 -12 423 -12ZM423 701Q348 701 299.5 675.5Q251 650 223 607.5Q195 565 184 508.5Q173 452 173 390Q173 328 184 271.5Q195 215 223 172Q251 129 299.5 104Q348 79 423 79Q498 79 546.5 104Q595 129 622.5 172Q650 215 661 271.5Q672 328 672 390Q672 452 661 508.5Q650 565 622.5 607.5Q595 650 546.5 675.5Q498 701 423 701Z" glyph-name="Obreve" horiz-adv-x="846" unicode="&#334;" /><glyph d="M471 1030 632 822H530L423 949L316 822H214L374 1030ZM423 -12Q328 -12 260 16.5Q192 45 148.5 97.5Q105 150 84 224Q63 298 63 390Q63 481 84 555.5Q105 630 148.5 682.5Q192 735 260 763.5Q328 792 423 792Q517 792 585 763.5Q653 735 696.5 682.5Q740 630 761 555.5Q782 481 782 390Q782 298 761 224Q740 150 696.5 97.5Q653 45 585 16.5Q517 -12 423 -12ZM423 701Q348 701 299.5 675.5Q251 650 223 607.5Q195 565 184 508.5Q173 452 173 390Q173 328 184 271.5Q195 215 223 172Q251 129 299.5 104Q348 79 423 79Q498 79 546.5 104Q595 129 622.5 172Q650 215 661 271.5Q672 328 672 390Q672 452 661 508.5Q650 565 622.5 607.5Q595 650 546.5 675.5Q498 701 423 701Z" glyph-name="Ocircumflex" horiz-adv-x="846" unicode="&#212;" /><glyph d="M458 925Q458 954 478.5 974.5Q499 995 528 995Q557 995 577.5 974.5Q598 954 598 925Q598 896 577.5 875.5Q557 855 528 855Q499 855 478.5 875.5Q458 896 458 925ZM248 925Q248 954 268.5 974.5Q289 995 318 995Q347 995 367.5 974.5Q388 954 388 925Q388 896 367.5 875.5Q347 855 318 855Q289 855 268.5 875.5Q248 896 248 925ZM423 -12Q328 -12 260 16.5Q192 45 148.5 97.5Q105 150 84 224Q63 298 63 390Q63 481 84 555.5Q105 630 148.5 682.5Q192 735 260 763.5Q328 792 423 792Q517 792 585 763.5Q653 735 696.5 682.5Q740 630 761 555.5Q782 481 782 390Q782 298 761 224Q740 150 696.5 97.5Q653 45 585 16.5Q517 -12 423 -12ZM423 701Q348 701 299.5 675.5Q251 650 223 607.5Q195 565 184 508.5Q173 452 173 390Q173 328 184 271.5Q195 215 223 172Q251 129 299.5 104Q348 79 423 79Q498 79 546.5 104Q595 129 622.5 172Q650 215 661 271.5Q672 328 672 390Q672 452 661 508.5Q650 565 622.5 607.5Q595 650 546.5 675.5Q498 701 423 701Z" glyph-name="Odieresis" horiz-adv-x="846" unicode="&#214;" /><glyph d="M381 1030 480 822H379L262 1030ZM423 701Q348 701 299.5 675.5Q251 650 223 607.5Q195 565 184 508.5Q173 452 173 390Q173 328 184 271.5Q195 215 223 172Q251 129 299.5 104Q348 79 423 79Q498 79 546.5 104Q595 129 622.5 172Q650 215 661 271.5Q672 328 672 390Q672 452 661 508.5Q650 565 622.5 607.5Q595 650 546.5 675.5Q498 701 423 701ZM423 -12Q328 -12 260 16.5Q192 45 148.5 97.5Q105 150 84 224Q63 298 63 390Q63 481 84 555.5Q105 630 148.5 682.5Q192 735 260 763.5Q328 792 423 792Q517 792 585 763.5Q653 735 696.5 682.5Q740 630 761 555.5Q782 481 782 390Q782 298 761 224Q740 150 696.5 97.5Q653 45 585 16.5Q517 -12 423 -12Z" glyph-name="Ograve" horiz-adv-x="846" unicode="&#210;" /><glyph d="M673 1030 556 822H456L555 1030ZM504 1030 387 822H286L386 1030ZM423 -12Q328 -12 260 16.5Q192 45 148.5 97.5Q105 150 84 224Q63 298 63 390Q63 481 84 555.5Q105 630 148.5 682.5Q192 735 260 763.5Q328 792 423 792Q517 792 585 763.5Q653 735 696.5 682.5Q740 630 761 555.5Q782 481 782 390Q782 298 761 224Q740 150 696.5 97.5Q653 45 585 16.5Q517 -12 423 -12ZM423 701Q348 701 299.5 675.5Q251 650 223 607.5Q195 565 184 508.5Q173 452 173 390Q173 328 184 271.5Q195 215 223 172Q251 129 299.5 104Q348 79 423 79Q498 79 546.5 104Q595 129 622.5 172Q650 215 661 271.5Q672 328 672 390Q672 452 661 508.5Q650 565 622.5 607.5Q595 650 546.5 675.5Q498 701 423 701Z" glyph-name="Ohungarumlaut" horiz-adv-x="846" unicode="&#336;" /><glyph d="M271 882V972H575V882ZM423 701Q348 701 299.5 675.5Q251 650 223 607.5Q195 565 184 508.5Q173 452 173 390Q173 328 184 271.5Q195 215 223 172Q251 129 299.5 104Q348 79 423 79Q498 79 546.5 104Q595 129 622.5 172Q650 215 661 271.5Q672 328 672 390Q672 452 661 508.5Q650 565 622.5 607.5Q595 650 546.5 675.5Q498 701 423 701ZM423 -12Q328 -12 260 16.5Q192 45 148.5 97.5Q105 150 84 224Q63 298 63 390Q63 481 84 555.5Q105 630 148.5 682.5Q192 735 260 763.5Q328 792 423 792Q517 792 585 763.5Q653 735 696.5 682.5Q740 630 761 555.5Q782 481 782 390Q782 298 761 224Q740 150 696.5 97.5Q653 45 585 16.5Q517 -12 423 -12Z" glyph-name="Omacron" horiz-adv-x="846" unicode="&#332;" /><glyph d="M672 390Q672 453 661 508Q650 563 623 607L291 108Q317 94 349 86.5Q381 79 422 79Q497 79 545.5 104Q594 129 622 172Q650 215 661 271.5Q672 328 672 390ZM173 390Q173 327 184 272Q195 217 222 173L554 672Q528 686 496 693.5Q464 701 423 701Q348 701 299.5 675.5Q251 650 223 607.5Q195 565 184 508.5Q173 452 173 390ZM423 -12Q328 -12 260 16.5Q192 45 148.5 97.5Q105 150 84 224Q63 298 63 390Q63 481 84 555.5Q105 630 148.5 682.5Q192 735 260 763.5Q328 792 423 792Q517 792 585 763.5Q653 735 696.5 682.5Q740 630 761 555.5Q782 481 782 390Q782 298 761 224Q740 150 696.5 97.5Q653 45 585 16.5Q517 -12 423 -12Z" glyph-name="Oslash" horiz-adv-x="846" unicode="&#216;" /><glyph d="M333 926Q304 926 292.5 908.5Q281 891 278 872L198 883Q206 939 238 973.5Q270 1008 338 1008Q373 1008 397 995.5Q421 983 440 968Q459 953 476 940.5Q493 928 513 928Q541 928 552.5 945.5Q564 963 568 982L648 971Q639 915 606.5 880.5Q574 846 507 846Q472 846 448 858.5Q424 871 405.5 886Q387 901 370 913.5Q353 926 333 926ZM423 701Q348 701 299.5 675.5Q251 650 223 607.5Q195 565 184 508.5Q173 452 173 390Q173 328 184 271.5Q195 215 223 172Q251 129 299.5 104Q348 79 423 79Q498 79 546.5 104Q595 129 622.5 172Q650 215 661 271.5Q672 328 672 390Q672 452 661 508.5Q650 565 622.5 607.5Q595 650 546.5 675.5Q498 701 423 701ZM423 -12Q328 -12 260 16.5Q192 45 148.5 97.5Q105 150 84 224Q63 298 63 390Q63 481 84 555.5Q105 630 148.5 682.5Q192 735 260 763.5Q328 792 423 792Q517 792 585 763.5Q653 735 696.5 682.5Q740 630 761 555.5Q782 481 782 390Q782 298 761 224Q740 150 696.5 97.5Q653 45 585 16.5Q517 -12 423 -12Z" glyph-name="Otilde" horiz-adv-x="846" unicode="&#213;" /><glyph d="M190 0H85V780H389Q438 780 487 770Q536 760 574.5 733.5Q613 707 637 662Q661 617 661 547Q661 477 637 431.5Q613 386 575 360Q537 334 488 323.5Q439 313 390 313H190ZM401 405Q425 405 451 409.5Q477 414 499 429Q521 444 535.5 472Q550 500 550 547Q550 594 535.5 622Q521 650 499 664.5Q477 679 451 683.5Q425 688 401 688H190V405Z" glyph-name="P" horiz-adv-x="696" unicode="P" /><glyph d="M423 701Q348 701 299.5 675.5Q251 650 223 607.5Q195 565 184 508.5Q173 452 173 390Q173 328 184 271.5Q195 215 223 172Q251 129 299.5 104Q348 79 423 79Q498 79 546.5 104Q595 129 622.5 172Q650 215 661 271.5Q672 328 672 390Q672 452 661 508.5Q650 565 622.5 607.5Q595 650 546.5 675.5Q498 701 423 701ZM782 390Q782 304 764 233.5Q746 163 708 111.5Q670 60 611.5 28.5Q553 -3 472 -10Q473 -45 483.5 -67Q494 -89 511.5 -102Q529 -115 552 -119.5Q575 -124 601 -124Q643 -124 669.5 -116.5Q696 -109 703 -105L716 -192Q700 -200 670 -206Q640 -212 599 -212Q535 -212 491.5 -195Q448 -178 421.5 -150Q395 -122 383 -85Q371 -48 371 -9Q290 -2 232 29.5Q174 61 136.5 113Q99 165 81 235Q63 305 63 390Q63 481 84 555.5Q105 630 148.5 682.5Q192 735 260 763.5Q328 792 423 792Q517 792 585 763.5Q653 735 696.5 682.5Q740 630 761 555.5Q782 481 782 390Z" glyph-name="Q" horiz-adv-x="846" unicode="Q" /><glyph d="M425 419Q449 419 475 422.5Q501 426 523 439.5Q545 453 559.5 480Q574 507 574 554Q574 601 559.5 628Q545 655 523 668.5Q501 682 475 685Q449 688 425 688H190V419ZM190 0H85V780H414Q463 780 511.5 771Q560 762 598.5 737Q637 712 660.5 668Q684 624 684 554Q684 499 669.5 460.5Q655 422 630 396Q605 370 572.5 355.5Q540 341 503 335L719 0H589L389 327H190Z" glyph-name="R" horiz-adv-x="750" unicode="R" /><glyph d="M521 1030 404 822H303L403 1030ZM425 419Q449 419 475 422.5Q501 426 523 439.5Q545 453 559.5 480Q574 507 574 554Q574 601 559.5 628Q545 655 523 668.5Q501 682 475 685Q449 688 425 688H190V419ZM190 0H85V780H414Q463 780 511.5 771Q560 762 598.5 737Q637 712 660.5 668Q684 624 684 554Q684 499 669.5 460.5Q655 422 630 396Q605 370 572.5 355.5Q540 341 503 335L719 0H589L389 327H190Z" glyph-name="Racute" horiz-adv-x="747" unicode="&#340;" /><glyph d="M304 822 144 1030H246L353 903L460 1030H562L402 822ZM425 419Q449 419 475 422.5Q501 426 523 439.5Q545 453 559.5 480Q574 507 574 554Q574 601 559.5 628Q545 655 523 668.5Q501 682 475 685Q449 688 425 688H190V419ZM190 0H85V780H414Q463 780 511.5 771Q560 762 598.5 737Q637 712 660.5 668Q684 624 684 554Q684 499 669.5 460.5Q655 422 630 396Q605 370 572.5 355.5Q540 341 503 335L719 0H589L389 327H190Z" glyph-name="Rcaron" horiz-adv-x="747" unicode="&#344;" /><glyph d="M439 -62 390 -200H297L315 -62ZM425 419Q449 419 475 422.5Q501 426 523 439.5Q545 453 559.5 480Q574 507 574 554Q574 601 559.5 628Q545 655 523 668.5Q501 682 475 685Q449 688 425 688H190V419ZM190 0H85V780H414Q463 780 511.5 771Q560 762 598.5 737Q637 712 660.5 668Q684 624 684 554Q684 499 669.5 460.5Q655 422 630 396Q605 370 572.5 355.5Q540 341 503 335L719 0H589L389 327H190Z" glyph-name="Rcommaaccent" horiz-adv-x="747" unicode="&#342;" /><glyph d="M152 218Q171 148 224.5 113.5Q278 79 372 79Q412 79 450.5 86.5Q489 94 520 111.5Q551 129 570 156.5Q589 184 589 224Q589 257 578.5 280.5Q568 304 543.5 320.5Q519 337 478 347Q437 357 376 363Q321 368 268.5 378.5Q216 389 175 411.5Q134 434 109 471.5Q84 509 84 568Q84 627 107.5 669.5Q131 712 170.5 739Q210 766 262.5 779Q315 792 374 792Q445 792 496.5 778.5Q548 765 584.5 741Q621 717 644.5 684Q668 651 683 611L593 567Q582 601 564.5 626.5Q547 652 520.5 668.5Q494 685 457 693Q420 701 371 701Q346 701 314.5 695Q283 689 255.5 675Q228 661 209 637.5Q190 614 190 578Q190 552 198.5 531Q207 510 229 494.5Q251 479 287.5 468.5Q324 458 380 452Q453 444 511.5 432.5Q570 421 610 396.5Q650 372 671.5 331.5Q693 291 693 225Q693 163 666.5 118Q640 73 595.5 44Q551 15 492.5 1.5Q434 -12 370 -12Q301 -12 248 1.5Q195 15 157 40Q119 65 95 98.5Q71 132 60 173Z" glyph-name="S" horiz-adv-x="754" unicode="S" /><glyph d="M152 218Q171 148 224.5 113.5Q278 79 372 79Q412 79 450.5 86.5Q489 94 520 111.5Q551 129 570 156.5Q589 184 589 224Q589 257 578.5 280.5Q568 304 543.5 320.5Q519 337 478 347Q437 357 376 363Q321 368 268.5 378.5Q216 389 175 411.5Q134 434 109 471.5Q84 509 84 568Q84 627 107.5 669.5Q131 712 170.5 739Q210 766 262.5 779Q315 792 374 792Q445 792 496.5 778.5Q548 765 584.5 741Q621 717 644.5 684Q668 651 683 611L593 567Q582 601 564.5 626.5Q547 652 520.5 668.5Q494 685 457 693Q420 701 371 701Q346 701 314.5 695Q283 689 255.5 675Q228 661 209 637.5Q190 614 190 578Q190 552 198.5 531Q207 510 229 494.5Q251 479 287.5 468.5Q324 458 380 452Q453 444 511.5 432.5Q570 421 610 396.5Q650 372 671.5 331.5Q693 291 693 225Q693 163 666.5 118Q640 73 595.5 44Q551 15 492.5 1.5Q434 -12 370 -12Q301 -12 248 1.5Q195 15 157 40Q119 65 95 98.5Q71 132 60 173ZM546 1030 429 822H329L428 1030Z" glyph-name="Sacute" horiz-adv-x="754" unicode="&#346;" /><glyph d="M152 218Q171 148 224.5 113.5Q278 79 372 79Q412 79 450.5 86.5Q489 94 520 111.5Q551 129 570 156.5Q589 184 589 224Q589 257 578.5 280.5Q568 304 543.5 320.5Q519 337 478 347Q437 357 376 363Q321 368 268.5 378.5Q216 389 175 411.5Q134 434 109 471.5Q84 509 84 568Q84 627 107.5 669.5Q131 712 170.5 739Q210 766 262.5 779Q315 792 374 792Q445 792 496.5 778.5Q548 765 584.5 741Q621 717 644.5 684Q668 651 683 611L593 567Q582 601 564.5 626.5Q547 652 520.5 668.5Q494 685 457 693Q420 701 371 701Q346 701 314.5 695Q283 689 255.5 675Q228 661 209 637.5Q190 614 190 578Q190 552 198.5 531Q207 510 229 494.5Q251 479 287.5 468.5Q324 458 380 452Q453 444 511.5 432.5Q570 421 610 396.5Q650 372 671.5 331.5Q693 291 693 225Q693 163 666.5 118Q640 73 595.5 44Q551 15 492.5 1.5Q434 -12 370 -12Q301 -12 248 1.5Q195 15 157 40Q119 65 95 98.5Q71 132 60 173ZM330 822 169 1030H272L378 903L485 1030H588L427 822Z" glyph-name="Scaron" horiz-adv-x="754" unicode="&#352;" /><glyph d="M152 218Q171 148 224.5 113.5Q278 79 372 79Q412 79 450.5 86.5Q489 94 520 111.5Q551 129 570 156.5Q589 184 589 224Q589 257 578.5 280.5Q568 304 543.5 320.5Q519 337 478 347Q437 357 376 363Q321 368 268.5 378.5Q216 389 175 411.5Q134 434 109 471.5Q84 509 84 568Q84 627 107.5 669.5Q131 712 170.5 739Q210 766 262.5 779Q315 792 374 792Q445 792 496.5 778.5Q548 765 584.5 741Q621 717 644.5 684Q668 651 683 611L593 567Q582 601 564.5 626.5Q547 652 520.5 668.5Q494 685 457 693Q420 701 371 701Q346 701 314.5 695Q283 689 255.5 675Q228 661 209 637.5Q190 614 190 578Q190 552 198.5 531Q207 510 229 494.5Q251 479 287.5 468.5Q324 458 380 452Q453 444 511.5 432.5Q570 421 610 396.5Q650 372 671.5 331.5Q693 291 693 225Q693 167 670 124.5Q647 82 608 53Q569 24 517.5 8.5Q466 -7 408 -11L401 -35Q438 -43 466.5 -64.5Q495 -86 495 -126Q495 -149 485 -165Q475 -181 457.5 -191.5Q440 -202 416.5 -207Q393 -212 367 -212Q333 -212 306.5 -205.5Q280 -199 269 -194L287 -141Q295 -145 305 -148Q324 -155 345 -155Q354 -155 364.5 -154Q375 -153 384 -149.5Q393 -146 399 -140Q405 -134 405 -125Q405 -102 378 -91Q351 -80 313 -76L336 -11Q275 -8 228.5 7Q182 22 148 46.5Q114 71 92 103Q70 135 60 173Z" glyph-name="Scedilla" horiz-adv-x="754" unicode="&#350;" /><glyph d="M152 218Q171 148 224.5 113.5Q278 79 372 79Q412 79 450.5 86.5Q489 94 520 111.5Q551 129 570 156.5Q589 184 589 224Q589 257 578.5 280.5Q568 304 543.5 320.5Q519 337 478 347Q437 357 376 363Q321 368 268.5 378.5Q216 389 175 411.5Q134 434 109 471.5Q84 509 84 568Q84 627 107.5 669.5Q131 712 170.5 739Q210 766 262.5 779Q315 792 374 792Q445 792 496.5 778.5Q548 765 584.5 741Q621 717 644.5 684Q668 651 683 611L593 567Q582 601 564.5 626.5Q547 652 520.5 668.5Q494 685 457 693Q420 701 371 701Q346 701 314.5 695Q283 689 255.5 675Q228 661 209 637.5Q190 614 190 578Q190 552 198.5 531Q207 510 229 494.5Q251 479 287.5 468.5Q324 458 380 452Q453 444 511.5 432.5Q570 421 610 396.5Q650 372 671.5 331.5Q693 291 693 225Q693 163 666.5 118Q640 73 595.5 44Q551 15 492.5 1.5Q434 -12 370 -12Q301 -12 248 1.5Q195 15 157 40Q119 65 95 98.5Q71 132 60 173ZM427 1030 588 822H485L378 949L272 822H169L330 1030Z" glyph-name="Scircumflex" horiz-adv-x="754" unicode="&#348;" /><glyph d="M152 218Q171 148 224.5 113.5Q278 79 372 79Q412 79 450.5 86.5Q489 94 520 111.5Q551 129 570 156.5Q589 184 589 224Q589 257 578.5 280.5Q568 304 543.5 320.5Q519 337 478 347Q437 357 376 363Q321 368 268.5 378.5Q216 389 175 411.5Q134 434 109 471.5Q84 509 84 568Q84 627 107.5 669.5Q131 712 170.5 739Q210 766 262.5 779Q315 792 374 792Q445 792 496.5 778.5Q548 765 584.5 741Q621 717 644.5 684Q668 651 683 611L593 567Q582 601 564.5 626.5Q547 652 520.5 668.5Q494 685 457 693Q420 701 371 701Q346 701 314.5 695Q283 689 255.5 675Q228 661 209 637.5Q190 614 190 578Q190 552 198.5 531Q207 510 229 494.5Q251 479 287.5 468.5Q324 458 380 452Q453 444 511.5 432.5Q570 421 610 396.5Q650 372 671.5 331.5Q693 291 693 225Q693 163 666.5 118Q640 73 595.5 44Q551 15 492.5 1.5Q434 -12 370 -12Q301 -12 248 1.5Q195 15 157 40Q119 65 95 98.5Q71 132 60 173ZM439 -62 390 -200H297L315 -62Z" glyph-name="Scommaaccent" horiz-adv-x="754" unicode="&#536;" /><glyph d="M382 0H276V688H21V780H636V688H382Z" glyph-name="T" horiz-adv-x="657" unicode="T" /><glyph d="M382 441H514V359H382V0H276V359H144V441H276V688H21V780H636V688H382Z" glyph-name="Tbar" horiz-adv-x="657" unicode="&#358;" /><glyph d="M280 822 119 1030H222L329 903L435 1030H538L377 822ZM381 0H275V688H21V780H635V688H381Z" glyph-name="Tcaron" horiz-adv-x="657" unicode="&#356;" /><glyph d="M390 -62 341 -200H248L266 -62ZM382 0H276V688H21V780H636V688H382Z" glyph-name="Tcommaaccent" horiz-adv-x="657" unicode="&#354;" /><glyph d="M190 248H401Q425 248 451 252.5Q477 257 499 272Q521 287 535.5 315Q550 343 550 390Q550 437 535.5 465Q521 493 499 508Q477 523 451 527.5Q425 532 401 532H190ZM661 390Q661 320 637 274.5Q613 229 575 203Q537 177 488 166.5Q439 156 390 156H190V0H85V780H190V624H390Q439 624 488 613.5Q537 603 575 577Q613 551 637 505.5Q661 460 661 390Z" glyph-name="Thorn" horiz-adv-x="698" unicode="&#222;" /><glyph d="M408 -12Q313 -12 249.5 10.5Q186 33 147.5 72.5Q109 112 92.5 165.5Q76 219 76 282V780H184V281Q184 239 193 202Q202 165 226.5 138Q251 111 294.5 95Q338 79 408 79Q478 79 521.5 95Q565 111 589.5 138Q614 165 623 202Q632 239 632 281V780H740V282Q740 219 723.5 165.5Q707 112 668.5 72.5Q630 33 566.5 10.5Q503 -12 408 -12Z" glyph-name="U" horiz-adv-x="816" unicode="U" /><glyph d="M576 1030 459 822H358L458 1030ZM408 -12Q313 -12 249.5 10.5Q186 33 147.5 72.5Q109 112 92.5 165.5Q76 219 76 282V780H184V281Q184 239 193 202Q202 165 226.5 138Q251 111 294.5 95Q338 79 408 79Q478 79 521.5 95Q565 111 589.5 138Q614 165 623 202Q632 239 632 281V780H740V282Q740 219 723.5 165.5Q707 112 668.5 72.5Q630 33 566.5 10.5Q503 -12 408 -12Z" glyph-name="Uacute" horiz-adv-x="816" unicode="&#218;" /><glyph d="M408 825Q352 825 314 838.5Q276 852 252.5 878.5Q229 905 219.5 943Q210 981 210 1030H293Q292 963 319.5 936Q347 909 408 909Q469 909 496.5 936Q524 963 523 1030H606Q606 981 596.5 943Q587 905 563.5 878.5Q540 852 502 838.5Q464 825 408 825ZM408 -12Q313 -12 249.5 10.5Q186 33 147.5 72.5Q109 112 92.5 165.5Q76 219 76 282V780H184V281Q184 239 193 202Q202 165 226.5 138Q251 111 294.5 95Q338 79 408 79Q478 79 521.5 95Q565 111 589.5 138Q614 165 623 202Q632 239 632 281V780H740V282Q740 219 723.5 165.5Q707 112 668.5 72.5Q630 33 566.5 10.5Q503 -12 408 -12Z" glyph-name="Ubreve" horiz-adv-x="816" unicode="&#364;" /><glyph d="M457 1030 617 822H515L408 949L301 822H199L359 1030ZM408 -12Q313 -12 249.5 10.5Q186 33 147.5 72.5Q109 112 92.5 165.5Q76 219 76 282V780H184V281Q184 239 193 202Q202 165 226.5 138Q251 111 294.5 95Q338 79 408 79Q478 79 521.5 95Q565 111 589.5 138Q614 165 623 202Q632 239 632 281V780H740V282Q740 219 723.5 165.5Q707 112 668.5 72.5Q630 33 566.5 10.5Q503 -12 408 -12Z" glyph-name="Ucircumflex" horiz-adv-x="816" unicode="&#219;" /><glyph d="M443 925Q443 954 463.5 974.5Q484 995 513 995Q542 995 562.5 974.5Q583 954 583 925Q583 896 562.5 875.5Q542 855 513 855Q484 855 463.5 875.5Q443 896 443 925ZM233 925Q233 954 253.5 974.5Q274 995 303 995Q332 995 352.5 974.5Q373 954 373 925Q373 896 352.5 875.5Q332 855 303 855Q274 855 253.5 875.5Q233 896 233 925ZM408 -12Q313 -12 249.5 10.5Q186 33 147.5 72.5Q109 112 92.5 165.5Q76 219 76 282V780H184V281Q184 239 193 202Q202 165 226.5 138Q251 111 294.5 95Q338 79 408 79Q478 79 521.5 95Q565 111 589.5 138Q614 165 623 202Q632 239 632 281V780H740V282Q740 219 723.5 165.5Q707 112 668.5 72.5Q630 33 566.5 10.5Q503 -12 408 -12Z" glyph-name="Udieresis" horiz-adv-x="816" unicode="&#220;" /><glyph d="M366 1030 465 822H365L247 1030ZM408 -12Q313 -12 249.5 10.5Q186 33 147.5 72.5Q109 112 92.5 165.5Q76 219 76 282V780H184V281Q184 239 193 202Q202 165 226.5 138Q251 111 294.5 95Q338 79 408 79Q478 79 521.5 95Q565 111 589.5 138Q614 165 623 202Q632 239 632 281V780H740V282Q740 219 723.5 165.5Q707 112 668.5 72.5Q630 33 566.5 10.5Q503 -12 408 -12Z" glyph-name="Ugrave" horiz-adv-x="816" unicode="&#217;" /><glyph d="M659 1030 541 822H441L540 1030ZM489 1030 372 822H272L371 1030ZM408 -12Q313 -12 249.5 10.5Q186 33 147.5 72.5Q109 112 92.5 165.5Q76 219 76 282V780H184V281Q184 239 193 202Q202 165 226.5 138Q251 111 294.5 95Q338 79 408 79Q478 79 521.5 95Q565 111 589.5 138Q614 165 623 202Q632 239 632 281V780H740V282Q740 219 723.5 165.5Q707 112 668.5 72.5Q630 33 566.5 10.5Q503 -12 408 -12Z" glyph-name="Uhungarumlaut" horiz-adv-x="816" unicode="&#368;" /><glyph d="M256 882V972H560V882ZM408 -12Q313 -12 249.5 10.5Q186 33 147.5 72.5Q109 112 92.5 165.5Q76 219 76 282V780H184V281Q184 239 193 202Q202 165 226.5 138Q251 111 294.5 95Q338 79 408 79Q478 79 521.5 95Q565 111 589.5 138Q614 165 623 202Q632 239 632 281V780H740V282Q740 219 723.5 165.5Q707 112 668.5 72.5Q630 33 566.5 10.5Q503 -12 408 -12Z" glyph-name="Umacron" horiz-adv-x="816" unicode="&#362;" /><glyph d="M76 780H184V281Q184 239 193 202Q202 165 226.5 138Q251 111 294.5 95Q338 79 408 79Q478 79 521.5 95Q565 111 589.5 138Q614 165 623 202Q632 239 632 281V780H740V282Q740 230 729 184Q718 138 693 101.5Q668 65 626.5 38.5Q585 12 525 -1Q501 -6 482 -17Q463 -28 449.5 -41.5Q436 -55 428.5 -70.5Q421 -86 421 -99Q421 -117 432 -128Q443 -139 469 -139Q481 -139 494 -136.5Q507 -134 517.5 -130.5Q528 -127 535 -124Q542 -121 542 -120L565 -187Q548 -197 520.5 -204.5Q493 -212 458 -212Q434 -212 411.5 -206.5Q389 -201 371.5 -188.5Q354 -176 344 -156.5Q334 -137 334 -108Q334 -54 382 -11Q295 -8 236.5 15.5Q178 39 142 78Q106 117 91 169.5Q76 222 76 282Z" glyph-name="Uogonek" horiz-adv-x="816" unicode="&#370;" /><glyph d="M458 926Q458 948 444.5 961Q431 974 408 974Q385 974 371.5 961Q358 948 358 926Q358 904 371.5 891Q385 878 408 878Q431 878 444.5 891Q458 904 458 926ZM285 926Q285 977 317.5 1009.5Q350 1042 408 1042Q466 1042 498.5 1009.5Q531 977 531 926Q531 875 498.5 842.5Q466 810 408 810Q350 810 317.5 842.5Q285 875 285 926ZM408 -12Q313 -12 249.5 10.5Q186 33 147.5 72.5Q109 112 92.5 165.5Q76 219 76 282V780H184V281Q184 239 193 202Q202 165 226.5 138Q251 111 294.5 95Q338 79 408 79Q478 79 521.5 95Q565 111 589.5 138Q614 165 623 202Q632 239 632 281V780H740V282Q740 219 723.5 165.5Q707 112 668.5 72.5Q630 33 566.5 10.5Q503 -12 408 -12Z" glyph-name="Uring" horiz-adv-x="816" unicode="&#366;" /><glyph d="M318 926Q289 926 277.5 908.5Q266 891 263 872L183 883Q191 940 223.5 974Q256 1008 323 1008Q358 1008 382 995.5Q406 983 425 968Q444 953 461 940.5Q478 928 498 928Q527 928 538.5 945.5Q550 963 553 982L633 971Q625 914 592.5 880Q560 846 493 846Q458 846 434 858.5Q410 871 391 886Q372 901 355 913.5Q338 926 318 926ZM408 -12Q313 -12 249.5 10.5Q186 33 147.5 72.5Q109 112 92.5 165.5Q76 219 76 282V780H184V281Q184 239 193 202Q202 165 226.5 138Q251 111 294.5 95Q338 79 408 79Q478 79 521.5 95Q565 111 589.5 138Q614 165 623 202Q632 239 632 281V780H740V282Q740 219 723.5 165.5Q707 112 668.5 72.5Q630 33 566.5 10.5Q503 -12 408 -12Z" glyph-name="Utilde" horiz-adv-x="816" unicode="&#360;" /><glyph d="M435 -12H332L15 780H128L318 289L384 114L449 289L639 780H754Z" glyph-name="V" horiz-adv-x="768" unicode="V" /><glyph d="M504 645 460 496 292 -12H202L27 780H137L228 320L256 163L303 320L456 780H553L705 320L753 163L780 320L871 780H981L806 -12H717L549 496Z" glyph-name="W" horiz-adv-x="1008" unicode="W" /><glyph d="M672 1030 555 822H455L554 1030ZM504 645 460 496 292 -12H202L27 780H137L228 320L256 163L303 320L456 780H553L705 320L753 163L780 320L871 780H981L806 -12H717L549 496Z" glyph-name="Wacute" horiz-adv-x="1008" unicode="&#7810;" /><glyph d="M553 1030 713 822H611L504 949L397 822H295L456 1030ZM504 645 460 496 292 -12H202L27 780H137L228 320L256 163L303 320L456 780H553L705 320L753 163L780 320L871 780H981L806 -12H717L549 496Z" glyph-name="Wcircumflex" horiz-adv-x="1008" unicode="&#372;" /><glyph d="M539 925Q539 954 559.5 974.5Q580 995 609 995Q638 995 658.5 974.5Q679 954 679 925Q679 896 658.5 875.5Q638 855 609 855Q580 855 559.5 875.5Q539 896 539 925ZM329 925Q329 954 349.5 974.5Q370 995 399 995Q428 995 448.5 974.5Q469 954 469 925Q469 896 448.5 875.5Q428 855 399 855Q370 855 349.5 875.5Q329 896 329 925ZM504 645 460 496 292 -12H202L27 780H137L228 320L256 163L303 320L456 780H553L705 320L753 163L780 320L871 780H981L806 -12H717L549 496Z" glyph-name="Wdieresis" horiz-adv-x="1008" unicode="&#7812;" /><glyph d="M462 1030 561 822H461L344 1030ZM504 645 460 496 292 -12H202L27 780H137L228 320L256 163L303 320L456 780H553L705 320L753 163L780 320L871 780H981L806 -12H717L549 496Z" glyph-name="Wgrave" horiz-adv-x="1008" unicode="&#7808;" /><glyph d="M382 481 475 615 591 780H715L483 459L441 402L485 342L734 0H606L472 190L382 321L291 190L157 0H30L278 342L322 402L280 459L49 780H172L289 615Z" glyph-name="X" horiz-adv-x="763" unicode="X" /><glyph d="M386 410 480 551 637 780H759L439 324V0H333V324L13 780H134L292 551Z" glyph-name="Y" horiz-adv-x="772" unicode="Y" /><glyph d="M554 1030 437 822H336L435 1030ZM386 410 480 551 637 780H759L439 324V0H333V324L13 780H134L292 551Z" glyph-name="Yacute" horiz-adv-x="772" unicode="&#221;" /><glyph d="M434 1030 595 822H493L386 949L279 822H177L337 1030ZM386 410 480 551 637 780H759L439 324V0H333V324L13 780H134L292 551Z" glyph-name="Ycircumflex" horiz-adv-x="772" unicode="&#374;" /><glyph d="M420 925Q420 954 440.5 974.5Q461 995 490 995Q519 995 539.5 974.5Q560 954 560 925Q560 896 539.5 875.5Q519 855 490 855Q461 855 440.5 875.5Q420 896 420 925ZM210 925Q210 954 230.5 974.5Q251 995 280 995Q309 995 329.5 974.5Q350 954 350 925Q350 896 329.5 875.5Q309 855 280 855Q251 855 230.5 875.5Q210 896 210 925ZM386 410 480 551 637 780H759L439 324V0H333V324L13 780H134L292 551Z" glyph-name="Ydieresis" horiz-adv-x="772" unicode="&#376;" /><glyph d="M45 75 467 598 544 689 299 688H66V780H682V705L260 182L183 91L429 92H682V0H45Z" glyph-name="Z" horiz-adv-x="727" unicode="Z" /><glyph d="M526 1030 409 822H309L408 1030ZM45 75 467 598 544 689 299 688H66V780H682V705L260 182L183 91L429 92H682V0H45Z" glyph-name="Zacute" horiz-adv-x="727" unicode="&#377;" /><glyph d="M310 822 149 1030H252L358 903L465 1030H568L407 822ZM45 75 467 598 544 689 299 688H66V780H682V705L260 182L183 91L429 92H682V0H45Z" glyph-name="Zcaron" horiz-adv-x="727" unicode="&#381;" /><glyph d="M288 925Q288 954 308.5 974.5Q329 995 358 995Q387 995 407.5 974.5Q428 954 428 925Q428 896 407.5 875.5Q387 855 358 855Q329 855 308.5 875.5Q288 896 288 925ZM45 75 467 598 544 689 299 688H66V780H682V705L260 182L183 91L429 92H682V0H45Z" glyph-name="Zdotaccent" horiz-adv-x="727" unicode="&#379;" /><glyph d="M152 148Q152 72 254 72Q292 71 325 82.5Q358 94 383.5 112.5Q409 131 425 154Q441 177 446 199V261L274 235Q219 227 185.5 209.5Q152 192 152 148ZM305 459Q239 460 205 438Q171 416 155 375L73 414Q83 441 100.5 464.5Q118 488 145.5 505Q173 522 211.5 532Q250 542 303 542Q418 542 482 494.5Q546 447 546 348V112Q546 74 587 74Q596 74 607.5 77Q619 80 624 83V1Q617 -4 601 -8Q585 -12 557 -12Q515 -12 485 7Q455 26 448 74Q418 32 363.5 10Q309 -12 247 -12Q143 -12 95 31Q47 74 47 145Q47 187 62.5 215.5Q78 244 106.5 262.5Q135 281 175 292Q215 303 264 310L446 335V355Q446 411 410 434Q374 457 305 459Z" glyph-name="a" horiz-adv-x="645" unicode="a" /><glyph d="M471 800 354 592H254L353 800ZM152 148Q152 72 254 72Q292 71 325 82.5Q358 94 383.5 112.5Q409 131 425 154Q441 177 446 199V261L274 235Q219 227 185.5 209.5Q152 192 152 148ZM305 459Q239 460 205 438Q171 416 155 375L73 414Q83 441 100.5 464.5Q118 488 145.5 505Q173 522 211.5 532Q250 542 303 542Q418 542 482 494.5Q546 447 546 348V112Q546 74 587 74Q596 74 607.5 77Q619 80 624 83V1Q617 -4 601 -8Q585 -12 557 -12Q515 -12 485 7Q455 26 448 74Q418 32 363.5 10Q309 -12 247 -12Q143 -12 95 31Q47 74 47 145Q47 187 62.5 215.5Q78 244 106.5 262.5Q135 281 175 292Q215 303 264 310L446 335V355Q446 411 410 434Q374 457 305 459Z" glyph-name="aacute" horiz-adv-x="645" unicode="&#225;" /><glyph d="M152 148Q152 72 254 72Q292 71 325 82.5Q358 94 383.5 112.5Q409 131 425 154Q441 177 446 199V261L274 235Q219 227 185.5 209.5Q152 192 152 148ZM303 595Q247 595 209 608.5Q171 622 148 648.5Q125 675 115.5 713Q106 751 106 800H188Q187 733 214.5 706Q242 679 303 679Q365 679 392.5 706Q420 733 419 800H501Q501 751 491.5 713Q482 675 458.5 648.5Q435 622 397 608.5Q359 595 303 595ZM305 459Q239 460 205 438Q171 416 155 375L73 414Q83 441 100.5 464.5Q118 488 145.5 505Q173 522 211.5 532Q250 542 303 542Q418 542 482 494.5Q546 447 546 348V112Q546 74 587 74Q596 74 607.5 77Q619 80 624 83V1Q617 -4 601 -8Q585 -12 557 -12Q515 -12 485 7Q455 26 448 74Q418 32 363.5 10Q309 -12 247 -12Q143 -12 95 31Q47 74 47 145Q47 187 62.5 215.5Q78 244 106.5 262.5Q135 281 175 292Q215 303 264 310L446 335V355Q446 411 410 434Q374 457 305 459Z" glyph-name="abreve" horiz-adv-x="645" unicode="&#259;" /><glyph d="M352 800 513 592H410L303 719L197 592H94L255 800ZM152 148Q152 72 254 72Q292 71 325 82.5Q358 94 383.5 112.5Q409 131 425 154Q441 177 446 199V261L274 235Q219 227 185.5 209.5Q152 192 152 148ZM305 459Q239 460 205 438Q171 416 155 375L73 414Q83 441 100.5 464.5Q118 488 145.5 505Q173 522 211.5 532Q250 542 303 542Q418 542 482 494.5Q546 447 546 348V112Q546 74 587 74Q596 74 607.5 77Q619 80 624 83V1Q617 -4 601 -8Q585 -12 557 -12Q515 -12 485 7Q455 26 448 74Q418 32 363.5 10Q309 -12 247 -12Q143 -12 95 31Q47 74 47 145Q47 187 62.5 215.5Q78 244 106.5 262.5Q135 281 175 292Q215 303 264 310L446 335V355Q446 411 410 434Q374 457 305 459Z" glyph-name="acircumflex" horiz-adv-x="645" unicode="&#226;" /><glyph d="M485 800 368 592H267L367 800Z" glyph-name="acute" horiz-adv-x="634" unicode="&#180;" /><glyph d="M485 1030 368 822H267L367 1030Z" glyph-name="acute.cap" horiz-adv-x="634" unicode="&#58402;" /><glyph d="M128 696Q128 725 148.5 745.5Q169 766 198 766Q227 766 247.5 745.5Q268 725 268 696Q268 667 247.5 646.5Q227 626 198 626Q169 626 148.5 646.5Q128 667 128 696ZM338 696Q338 725 358.5 745.5Q379 766 408 766Q437 766 457.5 745.5Q478 725 478 696Q478 667 457.5 646.5Q437 626 408 626Q379 626 358.5 646.5Q338 667 338 696ZM152 148Q152 72 254 72Q292 71 325 82.5Q358 94 383.5 112.5Q409 131 425 154Q441 177 446 199V261L274 235Q219 227 185.5 209.5Q152 192 152 148ZM305 459Q239 460 205 438Q171 416 155 375L73 414Q83 441 100.5 464.5Q118 488 145.5 505Q173 522 211.5 532Q250 542 303 542Q418 542 482 494.5Q546 447 546 348V112Q546 74 587 74Q596 74 607.5 77Q619 80 624 83V1Q617 -4 601 -8Q585 -12 557 -12Q515 -12 485 7Q455 26 448 74Q418 32 363.5 10Q309 -12 247 -12Q143 -12 95 31Q47 74 47 145Q47 187 62.5 215.5Q78 244 106.5 262.5Q135 281 175 292Q215 303 264 310L446 335V355Q446 411 410 434Q374 457 305 459Z" glyph-name="adieresis" horiz-adv-x="645" unicode="&#228;" /><glyph d="M722 -12Q646 -12 586.5 14.5Q527 41 495 95Q447 32 384 10Q321 -12 249 -12Q144 -12 95.5 30.5Q47 73 47 145Q47 187 64.5 218Q82 249 113 268.5Q144 288 187 297.5Q230 307 280 307H446V352Q446 411 410 434Q374 457 305 459Q239 460 205 438Q171 416 155 375L73 414Q83 441 100.5 464.5Q118 488 145.5 505Q173 522 211.5 532Q250 542 303 542Q454 542 507 457Q542 499 594 520.5Q646 542 712 542Q841 542 902.5 470.5Q964 399 964 266V226H552Q555 185 570.5 156Q586 127 609 108.5Q632 90 661 81Q690 72 720 72Q754 72 779.5 80Q805 88 823 102Q841 116 853.5 135Q866 154 874 175L960 136Q949 108 931 81.5Q913 55 884.5 34Q856 13 816.5 0.5Q777 -12 722 -12ZM713 459Q645 459 601.5 422.5Q558 386 553 307H855Q853 381 818 420.5Q783 460 713 459ZM155 148Q155 72 257 72Q298 71 331.5 83Q365 95 390 114Q415 133 429.5 156Q444 179 446 201V226H282Q226 226 190.5 209.5Q155 193 155 148Z" glyph-name="ae" horiz-adv-x="1015" unicode="&#230;" /><glyph d="M175 391Q192 411 207.5 437.5Q223 464 235 495.5Q247 527 254.5 562.5Q262 598 262 634Q262 660 255 677Q248 694 228 694Q205 694 190 657Q175 620 175 534ZM30 259Q39 265 49.5 272.5Q60 280 74 291V508Q74 642 110 711Q146 780 227 780Q261 780 285 767.5Q309 755 323.5 733Q338 711 344.5 682.5Q351 654 351 621Q351 566 334.5 513Q318 460 292.5 413.5Q267 367 235.5 328Q204 289 175 262V154Q175 111 189 95.5Q203 80 240 79Q264 79 281.5 83.5Q299 88 309 93L322 1Q311 -4 285.5 -7.5Q260 -11 240 -11Q165 -11 119.5 18Q74 47 74 111V189Q56 176 48.5 171Q41 166 30 159Z" glyph-name="afii61289" horiz-adv-x="379" unicode="&#8467;" /><glyph d="M261 800 360 592H260L143 800ZM152 148Q152 72 254 72Q292 71 325 82.5Q358 94 383.5 112.5Q409 131 425 154Q441 177 446 199V261L274 235Q219 227 185.5 209.5Q152 192 152 148ZM305 459Q239 460 205 438Q171 416 155 375L73 414Q83 441 100.5 464.5Q118 488 145.5 505Q173 522 211.5 532Q250 542 303 542Q418 542 482 494.5Q546 447 546 348V112Q546 74 587 74Q596 74 607.5 77Q619 80 624 83V1Q617 -4 601 -8Q585 -12 557 -12Q515 -12 485 7Q455 26 448 74Q418 32 363.5 10Q309 -12 247 -12Q143 -12 95 31Q47 74 47 145Q47 187 62.5 215.5Q78 244 106.5 262.5Q135 281 175 292Q215 303 264 310L446 335V355Q446 411 410 434Q374 457 305 459Z" glyph-name="agrave" horiz-adv-x="645" unicode="&#224;" /><glyph d="M272 -24Q363 -32 399 -58.5Q435 -85 435 -126Q435 -149 425 -165Q415 -181 397.5 -191.5Q380 -202 356.5 -207Q333 -212 307 -212Q273 -212 246.5 -205.5Q220 -199 209 -194L227 -141Q235 -145 245 -148Q264 -155 285 -155Q294 -155 304.5 -154Q315 -153 324 -149.5Q333 -146 339 -140Q345 -134 345 -125Q345 -102 318 -91Q291 -80 253 -76Z" glyph-name="altcedilla" horiz-adv-x="634" unicode="&#58390;" /><glyph d="M151 652V742H456V652ZM152 148Q152 72 254 72Q292 71 325 82.5Q358 94 383.5 112.5Q409 131 425 154Q441 177 446 199V261L274 235Q219 227 185.5 209.5Q152 192 152 148ZM305 459Q239 460 205 438Q171 416 155 375L73 414Q83 441 100.5 464.5Q118 488 145.5 505Q173 522 211.5 532Q250 542 303 542Q418 542 482 494.5Q546 447 546 348V112Q546 74 587 74Q596 74 607.5 77Q619 80 624 83V1Q617 -4 601 -8Q585 -12 557 -12Q515 -12 485 7Q455 26 448 74Q418 32 363.5 10Q309 -12 247 -12Q143 -12 95 31Q47 74 47 145Q47 187 62.5 215.5Q78 244 106.5 262.5Q135 281 175 292Q215 303 264 310L446 335V355Q446 411 410 434Q374 457 305 459Z" glyph-name="amacron" horiz-adv-x="645" unicode="&#257;" /><glyph d="M744 -11Q706 18 669.5 47Q633 76 595 106Q500 -12 317 -12Q266 -12 216.5 0Q167 12 127.5 39Q88 66 64 109Q40 152 40 215Q40 257 52 291Q64 325 84 352.5Q104 380 131 401Q158 422 188 436Q171 449 154 466Q137 483 123 504.5Q109 526 100 552.5Q91 579 91 613Q91 701 147.5 746.5Q204 792 311 792Q367 792 407.5 777Q448 762 474.5 737Q501 712 513.5 680Q526 648 526 614Q526 574 510.5 545Q495 516 470 493.5Q445 471 414 454Q383 437 353 421Q380 397 405.5 376.5Q431 356 456 335.5Q481 315 507 295Q533 275 562 253Q573 283 579 316Q585 349 586 391H690Q689 339 677.5 286Q666 233 645 190Q670 169 694.5 149Q719 129 744 108ZM515 168Q461 209 392.5 263.5Q324 318 255 375Q228 360 207 344Q186 328 172.5 309Q159 290 152 267.5Q145 245 145 215Q145 166 165 138Q185 110 212.5 95.5Q240 81 269 77.5Q298 74 317 74Q389 74 434.5 98.5Q480 123 515 168ZM423 614Q423 661 394 683Q365 705 311 705Q252 705 223 683.5Q194 662 194 614Q194 590 202 570.5Q210 551 222.5 535Q235 519 250 505.5Q265 492 280 480Q302 491 327.5 502.5Q353 514 374 529.5Q395 545 409 565.5Q423 586 423 614Z" glyph-name="ampersand" horiz-adv-x="778" unicode="&amp;" /><glyph d="M264 -130H161L32 350L161 830H264L144 350Z" glyph-name="anglebracketleft" horiz-adv-x="278" unicode="&#12296;" /><glyph d="M264 -90H161L32 390L161 870H264L144 390Z" glyph-name="anglebracketleft.cap" horiz-adv-x="278" unicode="&#58519;" /><glyph d="M14 830H117L246 350L117 -130H14L134 350Z" glyph-name="anglebracketright" horiz-adv-x="278" unicode="&#12297;" /><glyph d="M14 870H117L246 390L117 -90H14L134 390Z" glyph-name="anglebracketright.cap" horiz-adv-x="278" unicode="&#58520;" /><glyph d="M152 148Q152 72 254 72Q292 71 325 82.5Q358 94 383.5 112.5Q409 131 425 154Q441 177 446 199V261L274 235Q219 227 185.5 209.5Q152 192 152 148ZM305 459Q239 460 205 438Q171 416 155 375L73 414Q83 441 100.5 464.5Q118 488 145.5 505Q173 522 211.5 532Q250 542 303 542Q418 542 482 494.5Q546 447 546 348V112Q546 74 587 74Q596 74 607.5 77Q619 80 624 83V1Q615 -4 601 -7Q559 -19 532.5 -44.5Q506 -70 506 -99Q506 -117 517 -128Q528 -139 554 -139Q566 -139 579 -136.5Q592 -134 602.5 -130.5Q613 -127 620 -124Q627 -121 627 -120L650 -187Q633 -197 605.5 -204.5Q578 -212 543 -212Q519 -212 496.5 -206.5Q474 -201 456.5 -188.5Q439 -176 429 -156.5Q419 -137 419 -108Q419 -76 437.5 -47Q456 -18 488 5Q455 27 448 74Q418 32 363.5 10Q309 -12 247 -12Q143 -12 95 31Q47 74 47 145Q47 187 62.5 215.5Q78 244 106.5 262.5Q135 281 175 292Q215 303 264 310L446 335V355Q446 411 410 434Q374 457 305 459Z" glyph-name="aogonek" horiz-adv-x="645" unicode="&#261;" /><glyph d="M514 318Q539 318 559.5 326.5Q580 335 595 345.5Q610 356 619 365Q628 374 628 375L674 297Q658 277 633 261Q612 247 580.5 236.5Q549 226 507 226Q461 226 426.5 237Q392 248 361 260.5Q330 273 298 284Q266 295 226 295Q201 295 180.5 286.5Q160 278 145 267.5Q130 257 121 248Q112 239 112 238L66 316Q82 335 107 351Q127 365 158.5 376Q190 387 233 387Q279 387 313.5 376Q348 365 379 352.5Q410 340 441.5 329Q473 318 514 318ZM514 487Q539 487 559.5 495.5Q580 504 595 514.5Q610 525 619 534Q628 543 628 544L674 466Q658 446 633 430Q612 416 580.5 405.5Q549 395 507 395Q461 395 426.5 406Q392 417 361 429.5Q330 442 298 453Q266 464 226 464Q201 464 180.5 455.5Q160 447 145 436.5Q130 426 121 417Q112 408 112 407L66 485Q82 504 107 520Q127 534 158.5 545Q190 556 233 556Q279 556 313.5 545Q348 534 379 521.5Q410 509 441.5 498Q473 487 514 487Z" glyph-name="approxequal" horiz-adv-x="740" unicode="&#8776;" /><glyph d="M353 696Q353 718 339.5 731Q326 744 303 744Q280 744 267 731Q254 718 254 696Q254 674 267 661Q280 648 303 648Q326 648 339.5 661Q353 674 353 696ZM152 148Q152 72 254 72Q292 71 325 82.5Q358 94 383.5 112.5Q409 131 425 154Q441 177 446 199V261L274 235Q219 227 185.5 209.5Q152 192 152 148ZM181 696Q181 747 213 779.5Q245 812 303 812Q362 812 394 779.5Q426 747 426 696Q426 645 394 612.5Q362 580 303 580Q245 580 213 612.5Q181 645 181 696ZM305 459Q239 460 205 438Q171 416 155 375L73 414Q83 441 100.5 464.5Q118 488 145.5 505Q173 522 211.5 532Q250 542 303 542Q418 542 482 494.5Q546 447 546 348V112Q546 74 587 74Q596 74 607.5 77Q619 80 624 83V1Q617 -4 601 -8Q585 -12 557 -12Q515 -12 485 7Q455 26 448 74Q418 32 363.5 10Q309 -12 247 -12Q143 -12 95 31Q47 74 47 145Q47 187 62.5 215.5Q78 244 106.5 262.5Q135 281 175 292Q215 303 264 310L446 335V355Q446 411 410 434Q374 457 305 459Z" glyph-name="aring" horiz-adv-x="645" unicode="&#229;" /><glyph d="M424 -11 152 406H271L366 253L415 165L414 254V781H515V254L514 165L563 253L659 406H777L505 -11Z" glyph-name="arrowdown" horiz-adv-x="930" unicode="&#8595;" /><glyph d="M40 428 481 685V573L319 483L226 436L320 437H877V342H320L226 343L319 296L481 206V94L40 351Z" glyph-name="arrowleft" horiz-adv-x="930" unicode="&#8592;" /><glyph d="M890 351 449 94V206L611 296L704 343L610 342H53V437H610L704 436L611 483L449 573V685L890 428Z" glyph-name="arrowright" horiz-adv-x="930" unicode="&#8594;" /><glyph d="M505 792 777 375H659L563 528L514 616L515 527V0H414V527L415 616L366 528L271 375H152L424 792Z" glyph-name="arrowup" horiz-adv-x="930" unicode="&#8593;" /><glyph d="M267 691 215 581 127 400H19L216 792H319L516 400H408L320 581Z" glyph-name="asciicircum" horiz-adv-x="535" unicode="^" /><glyph d="M30 346Q42 365 61 380Q78 393 103.5 404Q129 415 166 415Q203 415 227.5 403.5Q252 392 272 377.5Q292 363 311 351.5Q330 340 357 340Q378 340 394 347Q410 354 420.5 362.5Q431 371 436.5 378Q442 385 442 385L483 323Q470 303 451 288Q434 275 408.5 264.5Q383 254 347 254Q309 254 284 265.5Q259 277 239 291.5Q219 306 200 317.5Q181 329 155 329Q133 328 117.5 321Q102 314 91 306Q79 296 71 284Z" glyph-name="asciitilde" horiz-adv-x="514" unicode="~" /><glyph d="M116 506 47 555 112 625 14 645 40 725 132 686 123 780H209L200 686L292 725L318 645L220 625L285 555L216 506L166 588Z" glyph-name="asterisk" horiz-adv-x="333" unicode="*" /><glyph d="M679 327Q679 349 671 371Q663 393 645.5 411Q628 429 602 440.5Q576 452 540 452Q506 452 475.5 442Q445 432 421.5 409.5Q398 387 384 350Q370 313 370 259Q370 225 379.5 202Q389 179 406 164.5Q423 150 447 144Q471 138 500 138Q536 138 565 149.5Q594 161 616 179Q638 197 652 219Q666 241 671 263ZM800 60Q763 60 739.5 70.5Q716 81 702.5 96Q689 111 683.5 126.5Q678 142 678 152Q664 129 641.5 110Q619 91 592.5 77.5Q566 64 537 56.5Q508 49 480 49Q436 49 398 60.5Q360 72 331 96Q302 120 285.5 158Q269 196 269 249Q269 327 292.5 382Q316 437 354.5 472.5Q393 508 442 524.5Q491 541 542 541Q570 541 595.5 534.5Q621 528 641.5 517Q662 506 677 491Q692 476 699 458L720 530H805L764 211Q760 180 773.5 162Q787 144 821 144Q857 144 884.5 167Q912 190 931.5 227Q951 264 961 311Q971 358 971 405Q971 473 951.5 530Q932 587 888.5 628Q845 669 776.5 691.5Q708 714 610 714Q502 714 415.5 679Q329 644 269 580.5Q209 517 176.5 428Q144 339 144 230Q144 147 169 81.5Q194 16 241.5 -29.5Q289 -75 357 -99.5Q425 -124 512 -124Q587 -124 642.5 -113.5Q698 -103 738.5 -85Q779 -67 806 -43.5Q833 -20 850 6L939 -37Q916 -72 883.5 -103.5Q851 -135 800 -159Q749 -183 675.5 -197Q602 -211 498 -211Q394 -211 310.5 -180Q227 -149 167.5 -92Q108 -35 76 46.5Q44 128 44 230Q44 358 85.5 463.5Q127 569 202 644Q277 719 381 760Q485 801 610 801Q727 801 813 774Q899 747 956 696.5Q1013 646 1040.5 572.5Q1068 499 1068 406Q1068 335 1050.5 272.5Q1033 210 999 162.5Q965 115 915 87.5Q865 60 800 60Z" glyph-name="at" horiz-adv-x="1102" unicode="@" /><glyph d="M679 422Q679 444 671 466Q663 488 645.5 506Q628 524 602 535.5Q576 547 540 547Q506 547 475.5 537Q445 527 421.5 504.5Q398 482 384 445Q370 408 370 354Q370 320 379.5 297Q389 274 406 259.5Q423 245 447 239Q471 233 500 233Q536 233 565 244.5Q594 256 616 274Q638 292 652 314Q666 336 671 358ZM800 155Q763 155 739.5 165.5Q716 176 702.5 191Q689 206 683.5 221.5Q678 237 678 247Q664 224 641.5 205Q619 186 592.5 172.5Q566 159 537 151.5Q508 144 480 144Q436 144 398 155.5Q360 167 331 191Q302 215 285.5 253Q269 291 269 344Q269 422 292.5 477Q316 532 354.5 567.5Q393 603 442 619.5Q491 636 542 636Q570 636 595.5 629.5Q621 623 641.5 612Q662 601 677 586Q692 571 699 553L720 625H805L764 306Q760 275 773.5 257Q787 239 821 239Q857 239 884.5 262Q912 285 931.5 322Q951 359 961 406Q971 453 971 500Q971 568 951.5 625Q932 682 888.5 723Q845 764 776.5 786.5Q708 809 610 809Q502 809 415.5 774Q329 739 269 675.5Q209 612 176.5 523Q144 434 144 325Q144 242 169 176.5Q194 111 241.5 65.5Q289 20 357 -4.5Q425 -29 512 -29Q587 -29 642.5 -18.5Q698 -8 738.5 10Q779 28 806 51.5Q833 75 850 101L939 58Q916 23 883.5 -8.5Q851 -40 800 -64Q749 -88 675.5 -102Q602 -116 498 -116Q394 -116 310.5 -85Q227 -54 167.5 3Q108 60 76 141.5Q44 223 44 325Q44 453 85.5 558.5Q127 664 202 739Q277 814 381 855Q485 896 610 896Q727 896 813 869Q899 842 956 791.5Q1013 741 1040.5 667.5Q1068 594 1068 501Q1068 430 1050.5 367.5Q1033 305 999 257.5Q965 210 915 182.5Q865 155 800 155Z" glyph-name="at.cap" horiz-adv-x="1102" unicode="&#58643;" /><glyph d="M152 148Q152 72 254 72Q292 71 325 82.5Q358 94 383.5 112.5Q409 131 425 154Q441 177 446 199V261L274 235Q219 227 185.5 209.5Q152 192 152 148ZM207 696Q178 696 166.5 678.5Q155 661 152 642L72 653Q81 710 113 744Q145 778 212 778Q247 778 271 765.5Q295 753 314 738Q333 723 350 710.5Q367 698 387 698Q416 698 427.5 715.5Q439 733 442 752L522 741Q514 684 481.5 650Q449 616 382 616Q347 616 323 628.5Q299 641 280 656Q261 671 244 683.5Q227 696 207 696ZM305 459Q239 460 205 438Q171 416 155 375L73 414Q83 441 100.5 464.5Q118 488 145.5 505Q173 522 211.5 532Q250 542 303 542Q418 542 482 494.5Q546 447 546 348V112Q546 74 587 74Q596 74 607.5 77Q619 80 624 83V1Q617 -4 601 -8Q585 -12 557 -12Q515 -12 485 7Q455 26 448 74Q418 32 363.5 10Q309 -12 247 -12Q143 -12 95 31Q47 74 47 145Q47 187 62.5 215.5Q78 244 106.5 262.5Q135 281 175 292Q215 303 264 310L446 335V355Q446 411 410 434Q374 457 305 459Z" glyph-name="atilde" horiz-adv-x="645" unicode="&#227;" /><glyph d="M169 202Q172 180 185 158Q198 136 220 118Q242 100 271.5 88.5Q301 77 337 77Q409 77 452 124.5Q495 172 495 265Q495 357 452 405Q409 453 337 453Q301 453 271.5 441.5Q242 430 220 412Q198 394 185 371.5Q172 349 169 328ZM347 542Q469 542 534 470.5Q599 399 599 265Q599 131 534 59.5Q469 -12 347 -12Q289 -12 240.5 11.5Q192 35 166 76L153 0H69V788L169 812V459Q196 497 243 519.5Q290 542 347 542Z" glyph-name="b" horiz-adv-x="646" unicode="b" /><glyph d="M11 870H116L359 -90H254Z" glyph-name="backslash" horiz-adv-x="370" unicode="\" /><glyph d="M29 800H134L341 -20H236Z" glyph-name="backslash.cap" horiz-adv-x="370" unicode="&#58466;" /><glyph d="M211 434V96H560V434ZM106 530H666V0H106ZM316 265 234 343 303 409 386 331 468 409 538 343 456 265 538 187 468 121 386 199 303 121 234 187Z" glyph-name="ballotboxwithx" horiz-adv-x="772" unicode="&#9746;" /><glyph d="M204 -130H98V830H204Z" glyph-name="bar" horiz-adv-x="302" unicode="|" /><glyph d="M98 800H204V-20H98Z" glyph-name="bar.cap" horiz-adv-x="302" unicode="&#58467;" /><glyph d="M95 390Q95 473 128 546Q161 619 218.5 673Q276 727 353 758.5Q430 790 518 790Q606 790 683 758.5Q760 727 817.5 673Q875 619 908 546Q941 473 941 390Q941 307 908 234Q875 161 817.5 107Q760 53 683 21.5Q606 -10 518 -10Q430 -10 353 21.5Q276 53 218.5 107Q161 161 128 234Q95 307 95 390Z" glyph-name="blackcircle" horiz-adv-x="1036" unicode="&#9679;" /><glyph d="M666 0H106V530H666Z" glyph-name="blacksmallsquare" horiz-adv-x="772" unicode="&#9642;" /><glyph d="M930 0H106V780H930Z" glyph-name="blacksquare" horiz-adv-x="1036" unicode="&#9632;" /><glyph d="M307 -38V-130H280Q224 -130 189.5 -115Q155 -100 136 -76Q117 -52 110.5 -22.5Q104 7 104 36V221Q104 247 99 263.5Q94 280 85 289.5Q76 299 62.5 302.5Q49 306 31 306H8V394H31Q49 394 62.5 397.5Q76 401 85 410.5Q94 420 99 436.5Q104 453 104 479V664Q104 692 110.5 721.5Q117 751 136 775Q155 799 189.5 814.5Q224 830 280 830H307V738H285Q267 738 252.5 734.5Q238 731 227.5 721.5Q217 712 211 695.5Q205 679 205 653V469Q205 435 193 402.5Q181 370 149 350Q181 329 193 297Q205 265 205 231V47Q205 21 211 4.5Q217 -12 227.5 -21.5Q238 -31 252.5 -34.5Q267 -38 285 -38Z" glyph-name="braceleft" horiz-adv-x="318" unicode="{" /><glyph d="M307 2V-90H280Q224 -90 189.5 -75Q155 -60 136 -36Q117 -12 110.5 17.5Q104 47 104 76V261Q104 287 99 303.5Q94 320 85 329.5Q76 339 62.5 342.5Q49 346 31 346H8V434H31Q49 434 62.5 437.5Q76 441 85 450.5Q94 460 99 476.5Q104 493 104 519V704Q104 732 110.5 761.5Q117 791 136 815Q155 839 189.5 854.5Q224 870 280 870H307V778H285Q267 778 252.5 774.5Q238 771 227.5 761.5Q217 752 211 735.5Q205 719 205 693V509Q205 475 193 442.5Q181 410 149 390Q181 369 193 337Q205 305 205 271V87Q205 61 211 44.5Q217 28 227.5 18.5Q238 9 252.5 5.5Q267 2 285 2Z" glyph-name="braceleft.cap" horiz-adv-x="318" unicode="&#58517;" /><glyph d="M12 738V830H38Q94 830 128.5 814.5Q163 799 182.5 775Q202 751 209 721.5Q216 692 216 664V479Q216 453 220.5 436.5Q225 420 234.5 410.5Q244 401 257.5 397.5Q271 394 289 394H310V306H289Q253 306 234.5 289.5Q216 273 216 221V36Q216 7 209 -22.5Q202 -52 182.5 -76Q163 -100 128.5 -115Q94 -130 38 -130H12V-38H34Q52 -38 66.5 -34.5Q81 -31 91.5 -21.5Q102 -12 108 4.5Q114 21 114 47V231Q114 265 126 297.5Q138 330 170 350Q138 371 126 403Q114 435 114 469V653Q114 679 108 695.5Q102 712 91.5 721.5Q81 731 66.5 734.5Q52 738 34 738Z" glyph-name="braceright" horiz-adv-x="318" unicode="}" /><glyph d="M12 778V870H38Q94 870 128.5 854.5Q163 839 182.5 815Q202 791 209 761.5Q216 732 216 704V519Q216 493 220.5 476.5Q225 460 234.5 450.5Q244 441 257.5 437.5Q271 434 289 434H310V346H289Q253 346 234.5 329.5Q216 313 216 261V76Q216 47 209 17.5Q202 -12 182.5 -36Q163 -60 128.5 -75Q94 -90 38 -90H12V2H34Q52 2 66.5 5.5Q81 9 91.5 18.5Q102 28 108 44.5Q114 61 114 87V271Q114 305 126 337.5Q138 370 170 390Q138 411 126 443Q114 475 114 509V693Q114 719 108 735.5Q102 752 91.5 761.5Q81 771 66.5 774.5Q52 778 34 778Z" glyph-name="braceright.cap" horiz-adv-x="318" unicode="&#58518;" /><glyph d="M201 738V-38H262V-130H95V830H262V738Z" glyph-name="bracketleft" horiz-adv-x="278" unicode="[" /><glyph d="M201 778V2H262V-90H95V870H262V778Z" glyph-name="bracketleft.cap" horiz-adv-x="278" unicode="&#58515;" /><glyph d="M77 -38V738H16V830H183V-130H16V-38Z" glyph-name="bracketright" horiz-adv-x="278" unicode="]" /><glyph d="M77 2V778H16V870H183V-90H16V2Z" glyph-name="bracketright.cap" horiz-adv-x="278" unicode="&#58516;" /><glyph d="M317 595Q261 595 223 608.5Q185 622 161.5 648.5Q138 675 128.5 713Q119 751 119 800H202Q201 733 228.5 706Q256 679 317 679Q378 679 405.5 706Q433 733 432 800H515Q515 751 505.5 713Q496 675 472.5 648.5Q449 622 411 608.5Q373 595 317 595Z" glyph-name="breve" horiz-adv-x="634" unicode="&#728;" /><glyph d="M317 825Q261 825 223 838.5Q185 852 161.5 878.5Q138 905 128.5 943Q119 981 119 1030H202Q201 963 228.5 936Q256 909 317 909Q378 909 405.5 936Q433 963 432 1030H515Q515 981 505.5 943Q496 905 472.5 878.5Q449 852 411 838.5Q373 825 317 825Z" glyph-name="breve.cap" horiz-adv-x="634" unicode="&#58406;" /><glyph d="M204 390H98V830H204ZM204 -130H98V310H204Z" glyph-name="brokenbar" horiz-adv-x="302" unicode="&#166;" /><glyph d="M204 -20H98V350H204ZM98 430V800H204V430Z" glyph-name="brokenbar.cap" horiz-adv-x="302" unicode="&#58469;" /><glyph d="M54 335Q54 364 65 389.5Q76 415 95 434Q114 453 139.5 464Q165 475 194 475Q223 475 248.5 464Q274 453 293 434Q312 415 323 389.5Q334 364 334 335Q334 306 323 280.5Q312 255 293 236Q274 217 248.5 206Q223 195 194 195Q165 195 139.5 206Q114 217 95 236Q76 255 65 280.5Q54 306 54 335Z" glyph-name="bullet" horiz-adv-x="388" unicode="&#8226;" /><glyph d="M54 390Q54 419 65 444.5Q76 470 95 489Q114 508 139.5 519Q165 530 194 530Q223 530 248.5 519Q274 508 293 489Q312 470 323 444.5Q334 419 334 390Q334 361 323 335.5Q312 310 293 291Q274 272 248.5 261Q223 250 194 250Q165 250 139.5 261Q114 272 95 291Q76 310 65 335.5Q54 361 54 390Z" glyph-name="bullet.cap" horiz-adv-x="388" unicode="&#58470;" /><glyph d="M166 339Q166 282 188.5 232.5Q211 183 250 146.5Q289 110 341 88.5Q393 67 453 67Q513 67 565.5 88.5Q618 110 657.5 146.5Q697 183 719.5 232.5Q742 282 742 339Q742 396 719.5 445.5Q697 495 657.5 532Q618 569 565.5 590.5Q513 612 453 612Q393 612 341 590.5Q289 569 250 532Q211 495 188.5 445.5Q166 396 166 339ZM349 390Q349 421 361.5 448.5Q374 476 395.5 496Q417 516 445.5 528Q474 540 507 540Q540 540 569 528Q598 516 619.5 496Q641 476 653.5 448.5Q666 421 666 390Q666 359 653.5 331.5Q641 304 619.5 284Q598 264 569 252Q540 240 507 240Q474 240 445.5 252Q417 264 395.5 284Q374 304 361.5 331.5Q349 359 349 390ZM85 390Q85 473 118 546Q151 619 208.5 673Q266 727 343 758.5Q420 790 507 790Q595 790 672 758.5Q749 727 806.5 673Q864 619 897 546Q930 473 930 390Q930 307 897 234Q864 161 806.5 107Q749 53 672 21.5Q595 -10 507 -10Q420 -10 343 21.5Q266 53 208.5 107Q151 161 118 234Q85 307 85 390Z" glyph-name="bullseye" horiz-adv-x="1015" unicode="&#9678;" /><glyph d="M146 265Q146 172 191 123.5Q236 75 319 73Q377 72 410 95Q443 118 458 159L544 117Q534 90 516 66.5Q498 43 470.5 25.5Q443 8 404 -2Q365 -12 313 -12Q189 -12 118 60Q47 132 47 265Q47 398 118 470Q189 542 313 542Q365 542 404 532Q443 522 470.5 504.5Q498 487 516 463.5Q534 440 544 413L458 371Q443 412 410 435Q377 458 319 457Q236 455 191 406.5Q146 358 146 265Z" glyph-name="c" horiz-adv-x="594" unicode="c" /><glyph d="M146 265Q146 172 191 123.5Q236 75 319 73Q377 72 410 95Q443 118 458 159L544 117Q534 90 516 66.5Q498 43 470.5 25.5Q443 8 404 -2Q365 -12 313 -12Q189 -12 118 60Q47 132 47 265Q47 398 118 470Q189 542 313 542Q365 542 404 532Q443 522 470.5 504.5Q498 487 516 463.5Q534 440 544 413L458 371Q443 412 410 435Q377 458 319 457Q236 455 191 406.5Q146 358 146 265ZM477 800 359 592H259L358 800Z" glyph-name="cacute" horiz-adv-x="594" unicode="&#263;" /><glyph d="M268 592 108 800H210L317 673L424 800H526L366 592Z" glyph-name="caron" horiz-adv-x="634" unicode="&#711;" /><glyph d="M268 822 108 1030H210L317 903L424 1030H526L366 822Z" glyph-name="caron.cap" horiz-adv-x="634" unicode="&#58413;" /><glyph d="M431 800 358 592H267L317 800Z" glyph-name="caronSlovak" horiz-adv-x="634" unicode="&#58387;" /><glyph d="M146 265Q146 172 191 123.5Q236 75 319 73Q377 72 410 95Q443 118 458 159L544 117Q534 90 516 66.5Q498 43 470.5 25.5Q443 8 404 -2Q365 -12 313 -12Q189 -12 118 60Q47 132 47 265Q47 398 118 470Q189 542 313 542Q365 542 404 532Q443 522 470.5 504.5Q498 487 516 463.5Q534 440 544 413L458 371Q443 412 410 435Q377 458 319 457Q236 455 191 406.5Q146 358 146 265ZM260 592 99 800H202L309 673L415 800H518L357 592Z" glyph-name="ccaron" horiz-adv-x="594" unicode="&#269;" /><glyph d="M146 265Q146 172 191 123.5Q236 75 319 73Q377 72 410 95Q443 118 458 159L544 117Q535 93 519 71Q503 49 479.5 32Q456 15 423 3.5Q390 -8 347 -11L340 -35Q377 -43 405.5 -64.5Q434 -86 434 -126Q434 -149 424 -165Q414 -181 396.5 -191.5Q379 -202 355.5 -207Q332 -212 306 -212Q272 -212 245.5 -205.5Q219 -199 208 -194L226 -141Q234 -145 244 -148Q263 -155 284 -155Q293 -155 303.5 -154Q314 -153 323 -149.5Q332 -146 338 -140Q344 -134 344 -125Q344 -102 317 -91Q290 -80 252 -76L275 -10Q168 1 107.5 71.5Q47 142 47 265Q47 398 118 470Q189 542 313 542Q365 542 404 532Q443 522 470.5 504.5Q498 487 516 463.5Q534 440 544 413L458 371Q443 412 410 435Q377 458 319 457Q236 455 191 406.5Q146 358 146 265Z" glyph-name="ccedilla" horiz-adv-x="594" unicode="&#231;" /><glyph d="M146 265Q146 172 191 123.5Q236 75 319 73Q377 72 410 95Q443 118 458 159L544 117Q534 90 516 66.5Q498 43 470.5 25.5Q443 8 404 -2Q365 -12 313 -12Q189 -12 118 60Q47 132 47 265Q47 398 118 470Q189 542 313 542Q365 542 404 532Q443 522 470.5 504.5Q498 487 516 463.5Q534 440 544 413L458 371Q443 412 410 435Q377 458 319 457Q236 455 191 406.5Q146 358 146 265ZM357 800 518 592H415L309 719L202 592H99L260 800Z" glyph-name="ccircumflex" horiz-adv-x="594" unicode="&#265;" /><glyph d="M146 265Q146 172 191 123.5Q236 75 319 73Q377 72 410 95Q443 118 458 159L544 117Q534 90 516 66.5Q498 43 470.5 25.5Q443 8 404 -2Q365 -12 313 -12Q189 -12 118 60Q47 132 47 265Q47 398 118 470Q189 542 313 542Q365 542 404 532Q443 522 470.5 504.5Q498 487 516 463.5Q534 440 544 413L458 371Q443 412 410 435Q377 458 319 457Q236 455 191 406.5Q146 358 146 265ZM238 696Q238 725 258.5 745.5Q279 766 308 766Q337 766 357.5 745.5Q378 725 378 696Q378 667 357.5 646.5Q337 626 308 626Q279 626 258.5 646.5Q238 667 238 696Z" glyph-name="cdotaccent" horiz-adv-x="594" unicode="&#267;" /><glyph d="M355 11 341 -35Q378 -43 406.5 -64.5Q435 -86 435 -126Q435 -149 425 -165Q415 -181 397.5 -191.5Q380 -202 356.5 -207Q333 -212 307 -212Q273 -212 246.5 -205.5Q220 -199 209 -194L227 -141Q235 -145 245 -148Q264 -155 285 -155Q294 -155 304.5 -154Q315 -153 324 -149.5Q333 -146 339 -140Q345 -134 345 -125Q345 -102 318 -91Q291 -80 253 -76L284 11Z" glyph-name="cedilla" horiz-adv-x="634" unicode="&#184;" /><glyph d="M156 381Q156 273 217 224L318 572Q240 567 198 519Q156 471 156 381ZM432 642Q483 625 511.5 595.5Q540 566 554 529L468 487Q459 510 444.5 528Q430 546 408 557L301 191Q308 190 314.5 189.5Q321 189 329 189Q387 188 420 211Q453 234 468 275L554 233Q544 206 526 182.5Q508 159 480.5 141.5Q453 124 414 114Q375 104 323 104Q298 104 277 107L246 0H152L190 131Q126 162 91.5 225Q57 288 57 381Q57 514 128 586Q199 658 323 658Q328 658 333 658Q338 658 343 657L374 764H468Z" glyph-name="cent" horiz-adv-x="605" unicode="&#162;" /><glyph d="M366 800 526 592H424L317 719L210 592H108L268 800Z" glyph-name="circumflex" horiz-adv-x="634" unicode="&#710;" /><glyph d="M366 1030 526 822H424L317 949L210 822H108L268 1030Z" glyph-name="circumflex.cap" horiz-adv-x="634" unicode="&#58403;" /><glyph d="M369 0Q389 37 403.5 73Q418 109 428 147Q438 185 444.5 227Q451 269 456 320L452 321Q438 290 418.5 261Q399 232 372.5 209.5Q346 187 313 173.5Q280 160 241 160Q202 160 168 173.5Q134 187 109 210.5Q84 234 69.5 265.5Q55 297 55 334Q55 373 68.5 406Q82 439 106 463Q130 487 164 500.5Q198 514 239 514Q266 514 287.5 507Q309 500 328 491L330 493Q313 518 301.5 547.5Q290 577 290 610Q290 647 304 680Q318 713 343 737.5Q368 762 402 776Q436 790 476 790Q516 790 550 776Q584 762 609 737.5Q634 713 648 680Q662 647 662 610Q662 577 650.5 547.5Q639 518 622 493L624 491Q642 500 663.5 507Q685 514 712 514Q753 514 787 500.5Q821 487 845 463Q869 439 882.5 406Q896 373 896 334Q896 297 881.5 265.5Q867 234 842 210.5Q817 187 783 173.5Q749 160 710 160Q671 160 638 173.5Q605 187 579 209.5Q553 232 532.5 261Q512 290 499 321L496 320Q500 269 506.5 227Q513 185 523.5 147Q534 109 548 73Q562 37 582 0Z" glyph-name="club" horiz-adv-x="951" unicode="&#9827;" /><glyph d="M57 408Q57 437 77.5 457.5Q98 478 127 478Q156 478 176.5 457.5Q197 437 197 408Q197 379 176.5 358.5Q156 338 127 338Q98 338 77.5 358.5Q57 379 57 408ZM57 58Q57 87 77.5 107.5Q98 128 127 128Q156 128 176.5 107.5Q197 87 197 58Q197 29 176.5 8.5Q156 -12 127 -12Q98 -12 77.5 8.5Q57 29 57 58Z" glyph-name="colon" horiz-adv-x="254" unicode=":" /><glyph d="M189 111 98 -149H34L68 111Z" glyph-name="comma" horiz-adv-x="254" unicode="," /><glyph d="M382 -62 333 -200H240L258 -62Z" glyph-name="commaaccent" horiz-adv-x="634" unicode="&#58388;" /><glyph d="M253 822 326 1030H416L367 822Z" glyph-name="commaaccent.cap" horiz-adv-x="634" unicode="&#58414;" /><glyph d="M219 390Q219 507 286.5 573.5Q354 640 476 640Q527 640 566 628.5Q605 617 633 597.5Q661 578 679 552.5Q697 527 708 500L616 457Q608 476 598 493Q588 510 572 522.5Q556 535 532.5 542Q509 549 475 549Q403 549 362.5 509.5Q322 470 322 390Q322 310 362.5 270.5Q403 231 475 231Q509 231 532.5 238Q556 245 572 257.5Q588 270 598 286.5Q608 303 616 323L708 280Q697 253 679 227.5Q661 202 633 182.5Q605 163 566 151.5Q527 140 476 140Q354 140 286.5 206.5Q219 273 219 390ZM147 390Q147 325 173 268.5Q199 212 243.5 170Q288 128 348 103.5Q408 79 476 79Q544 79 603.5 103.5Q663 128 707.5 170Q752 212 778 268.5Q804 325 804 390Q804 454 778 511Q752 568 707.5 610Q663 652 603.5 676.5Q544 701 476 701Q408 701 348 676.5Q288 652 243.5 610Q199 568 173 511Q147 454 147 390ZM51 390Q51 473 84.5 546.5Q118 620 175.5 674.5Q233 729 310.5 760.5Q388 792 476 792Q564 792 641 760.5Q718 729 776 674.5Q834 620 867.5 546.5Q901 473 901 390Q901 307 867.5 233.5Q834 160 776 105.5Q718 51 641 19.5Q564 -12 476 -12Q388 -12 310.5 19.5Q233 51 175.5 105.5Q118 160 84.5 233.5Q51 307 51 390Z" glyph-name="copyright" horiz-adv-x="951" unicode="&#169;" /><glyph d="M598 382Q598 439 581 478Q564 517 536 541Q508 565 471 575.5Q434 586 394 586Q354 586 317.5 575.5Q281 565 252.5 541Q224 517 207 478Q190 439 190 382Q190 325 207 286Q224 247 252.5 223Q281 199 317.5 188.5Q354 178 394 178Q434 178 471 188.5Q508 199 536 223Q564 247 581 286Q598 325 598 382ZM87 382Q87 439 100 483Q113 527 136 561L25 666L96 734L209 627Q247 652 294 664Q341 676 394 676Q447 676 494.5 664Q542 652 579 627L692 734L763 666L652 561Q676 527 689 483Q702 439 702 382Q702 325 689 281Q676 237 652 203L763 98L692 30L579 137Q542 112 494.5 100Q447 88 394 88Q341 88 294 100Q247 112 209 137L96 30L25 98L136 203Q113 237 100 281Q87 325 87 382Z" glyph-name="currency" horiz-adv-x="789" unicode="&#164;" /><glyph d="M477 328Q474 349 461 371.5Q448 394 426 412Q404 430 374.5 441.5Q345 453 309 453Q236 453 193.5 405Q151 357 151 265Q151 172 193.5 124.5Q236 77 309 77Q345 77 374.5 88.5Q404 100 426 118Q448 136 461 158Q474 180 477 202ZM299 542Q356 542 403 519.5Q450 497 477 459V788L577 812V112Q577 74 618 74Q627 74 638.5 77Q650 80 655 83V1Q648 -4 632 -8Q616 -12 588 -12Q546 -12 516 7Q486 26 479 74Q452 34 404 11Q356 -12 299 -12Q176 -12 111.5 59.5Q47 131 47 265Q47 399 111.5 470.5Q176 542 299 542Z" glyph-name="d" horiz-adv-x="676" unicode="d" /><glyph d="M208 780 196 662 321 673V590L196 602L209 390H118L132 602L6 590V673L132 662L119 780Z" glyph-name="dagger" horiz-adv-x="328" unicode="&#8224;" /><glyph d="M208 780 196 662 321 673V590L196 602L201 551L196 501L321 512V429L196 441L209 229H118L132 441L6 429V512L132 501L127 551L132 602L6 590V673L132 662L119 780Z" glyph-name="daggerdbl" horiz-adv-x="328" unicode="&#8225;" /><glyph d="M787 800 715 592H624L673 800ZM477 328Q474 349 461 371.5Q448 394 426 412Q404 430 374.5 441.5Q345 453 309 453Q236 453 193.5 405Q151 357 151 265Q151 172 193.5 124.5Q236 77 309 77Q345 77 374.5 88.5Q404 100 426 118Q448 136 461 158Q474 180 477 202ZM299 542Q356 542 403 519.5Q450 497 477 459V788L577 812V112Q577 74 618 74Q627 74 638.5 77Q650 80 655 83V1Q648 -4 632 -8Q616 -12 588 -12Q546 -12 516 7Q486 26 479 74Q452 34 404 11Q356 -12 299 -12Q176 -12 111.5 59.5Q47 131 47 265Q47 399 111.5 470.5Q176 542 299 542Z" glyph-name="dcaron" horiz-adv-x="676" unicode="&#271;" /><glyph d="M477 328Q474 349 461 371.5Q448 394 426 412Q404 430 374.5 441.5Q345 453 309 453Q236 453 193.5 405Q151 357 151 265Q151 172 193.5 124.5Q236 77 309 77Q345 77 374.5 88.5Q404 100 426 118Q448 136 461 158Q474 180 477 202ZM299 542Q356 542 403 519.5Q450 497 477 459V619H333V697H477V788L577 812V697H686V619H577V112Q577 74 618 74Q627 74 638.5 77Q650 80 655 83V1Q648 -4 632 -8Q616 -12 588 -12Q546 -12 516 7Q486 26 479 74Q452 34 404 11Q356 -12 299 -12Q176 -12 111.5 59.5Q47 131 47 265Q47 399 111.5 470.5Q176 542 299 542Z" glyph-name="dcroat" horiz-adv-x="676" unicode="&#273;" /><glyph d="M253 412Q209 412 172 423Q135 434 108 456.5Q81 479 66 513.5Q51 548 51 594Q51 640 66 674.5Q81 709 108 731.5Q135 754 172 765Q209 776 253 776Q296 776 333 765Q370 754 397 731.5Q424 709 439.5 674.5Q455 640 455 594Q455 548 439.5 513.5Q424 479 397 456.5Q370 434 333 423Q296 412 253 412ZM253 489Q306 489 337 514.5Q368 540 368 594Q368 648 337 673.5Q306 699 253 699Q200 699 168.5 673.5Q137 648 137 594Q137 540 168.5 514.5Q200 489 253 489Z" glyph-name="degree" horiz-adv-x="505" unicode="&#176;" /><glyph d="M864 390Q807 348 753 300.5Q699 253 649.5 201.5Q600 150 556 96.5Q512 43 477 -10H475Q440 43 396 96.5Q352 150 302.5 201.5Q253 253 198.5 300.5Q144 348 88 390Q144 432 198.5 479.5Q253 527 302.5 578.5Q352 630 396 683.5Q440 737 475 790H477Q512 737 556 683.5Q600 630 649.5 578.5Q699 527 753 479.5Q807 432 864 390Z" glyph-name="diamond" horiz-adv-x="951" unicode="&#9830;" /><glyph d="M143 696Q143 725 163.5 745.5Q184 766 213 766Q242 766 262.5 745.5Q283 725 283 696Q283 667 262.5 646.5Q242 626 213 626Q184 626 163.5 646.5Q143 667 143 696ZM353 696Q353 725 373.5 745.5Q394 766 423 766Q452 766 472.5 745.5Q493 725 493 696Q493 667 472.5 646.5Q452 626 423 626Q394 626 373.5 646.5Q353 667 353 696Z" glyph-name="dieresis" horiz-adv-x="634" unicode="&#168;" /><glyph d="M143 926Q143 955 163.5 975.5Q184 996 213 996Q242 996 262.5 975.5Q283 955 283 926Q283 897 262.5 876.5Q242 856 213 856Q184 856 163.5 876.5Q143 897 143 926ZM353 926Q353 955 373.5 975.5Q394 996 423 996Q452 996 472.5 975.5Q493 955 493 926Q493 897 472.5 876.5Q452 856 423 856Q394 856 373.5 876.5Q353 897 353 926Z" glyph-name="dieresis.cap" horiz-adv-x="634" unicode="&#58409;" /><glyph d="M430 545H310V660H430ZM430 120H310V235H430ZM85 343V437H655V343Z" glyph-name="divide" horiz-adv-x="740" unicode="&#247;" /><glyph d="M515 665H394V780H515ZM515 0H394V115H515ZM42 437H867V343H42Z" glyph-name="divide.cap" horiz-adv-x="909" unicode="&#58772;" /><glyph d="M187 566Q187 542 194.5 523Q202 504 219.5 489Q237 474 266.5 463.5Q296 453 341 447L410 686Q399 687 388 687.5Q377 688 365 688Q341 688 310 682Q279 676 251.5 662Q224 648 205.5 624.5Q187 601 187 566ZM578 219Q578 248 569.5 270Q561 292 541.5 308Q522 324 489 335Q456 346 408 352L328 77Q337 76 346.5 76Q356 76 366 76Q405 76 443 83.5Q481 91 511 108Q541 125 559.5 152.5Q578 180 578 219ZM150 213Q171 133 241 100L316 361Q270 367 228 379.5Q186 392 154 414.5Q122 437 103 471Q84 505 84 556Q84 614 107 655.5Q130 697 169 724Q208 751 259.5 763.5Q311 776 368 776Q386 776 402.5 775Q419 774 435 772L462 864H556L523 751Q583 728 617 689Q651 650 671 599L582 555Q569 593 549.5 619.5Q530 646 498 663L432 436Q491 428 537 414.5Q583 401 615 377Q647 353 663.5 315Q680 277 680 220Q680 159 654 115.5Q628 72 584.5 43.5Q541 15 483.5 1.5Q426 -12 364 -12Q331 -12 303 -9L277 -100H183L215 10Q150 32 112 73.5Q74 115 60 169Z" glyph-name="dollar" horiz-adv-x="740" unicode="$" /><glyph d="M247 696Q247 725 267.5 745.5Q288 766 317 766Q346 766 366.5 745.5Q387 725 387 696Q387 667 366.5 646.5Q346 626 317 626Q288 626 267.5 646.5Q247 667 247 696Z" glyph-name="dotaccent" horiz-adv-x="634" unicode="&#729;" /><glyph d="M247 926Q247 955 267.5 975.5Q288 996 317 996Q346 996 366.5 975.5Q387 955 387 926Q387 897 366.5 876.5Q346 856 317 856Q288 856 267.5 876.5Q247 897 247 926Z" glyph-name="dotaccent.cap" horiz-adv-x="634" unicode="&#58408;" /><glyph d="M247 -116Q247 -87 267.5 -66.5Q288 -46 317 -46Q346 -46 366.5 -66.5Q387 -87 387 -116Q387 -145 366.5 -165.5Q346 -186 317 -186Q288 -186 267.5 -165.5Q247 -145 247 -116Z" glyph-name="dotbelow" horiz-adv-x="634" unicode="&#58389;" /><glyph d="M86 530H187V0H86Z" glyph-name="dotlessi" horiz-adv-x="273" unicode="&#305;" /><glyph d="M91 530H192V-7Q192 -47 184.5 -84Q177 -121 154.5 -149.5Q132 -178 92 -195Q52 -212 -12 -212Q-34 -212 -54.5 -208.5Q-75 -205 -88 -200L-77 -111Q-70 -115 -52.5 -120Q-35 -125 -14 -124Q13 -124 33 -119Q53 -114 65.5 -100.5Q78 -87 84.5 -63Q91 -39 91 -1Z" glyph-name="dotlessj" horiz-adv-x="273" unicode="&#567;" /><glyph d="M384 -130H278V830H384ZM204 -130H98V830H204Z" glyph-name="doublebar" horiz-adv-x="482" unicode="&#8214;" /><glyph d="M278 800H384V-20H278ZM98 800H204V-20H98Z" glyph-name="doublebar.cap" horiz-adv-x="482" unicode="&#58468;" /><glyph d="M185 800 284 592H184L67 800ZM354 800 453 592H353L236 800Z" glyph-name="doublegrave" horiz-adv-x="634" unicode="&#58386;" /><glyph d="M185 1030 284 822H184L67 1030ZM354 1030 453 822H353L236 1030Z" glyph-name="doublegrave.cap" horiz-adv-x="634" unicode="&#58412;" /><glyph d="M152 226Q155 185 170.5 156Q186 127 209 108.5Q232 90 261 81Q290 72 320 72Q354 72 379.5 80Q405 88 423 102Q441 116 453.5 135Q466 154 474 175L560 136Q549 108 531 81.5Q513 55 484.5 34Q456 13 416.5 0.5Q377 -12 322 -12Q262 -12 211.5 5.5Q161 23 124.5 57.5Q88 92 67.5 144Q47 196 47 265Q47 403 118.5 472.5Q190 542 313 542Q441 542 502.5 470.5Q564 399 564 266V226ZM314 459Q245 459 202 422.5Q159 386 153 307H456Q454 382 419 420.5Q384 459 314 459Z" glyph-name="e" horiz-adv-x="615" unicode="e" /><glyph d="M152 226Q155 185 170.5 156Q186 127 209 108.5Q232 90 261 81Q290 72 320 72Q354 72 379.5 80Q405 88 423 102Q441 116 453.5 135Q466 154 474 175L560 136Q549 108 531 81.5Q513 55 484.5 34Q456 13 416.5 0.5Q377 -12 322 -12Q262 -12 211.5 5.5Q161 23 124.5 57.5Q88 92 67.5 144Q47 196 47 265Q47 403 118.5 472.5Q190 542 313 542Q441 542 502.5 470.5Q564 399 564 266V226ZM314 459Q245 459 202 422.5Q159 386 153 307H456Q454 382 419 420.5Q384 459 314 459ZM481 800 364 592H263L363 800Z" glyph-name="eacute" horiz-adv-x="615" unicode="&#233;" /><glyph d="M152 226Q155 185 170.5 156Q186 127 209 108.5Q232 90 261 81Q290 72 320 72Q354 72 379.5 80Q405 88 423 102Q441 116 453.5 135Q466 154 474 175L560 136Q549 108 531 81.5Q513 55 484.5 34Q456 13 416.5 0.5Q377 -12 322 -12Q262 -12 211.5 5.5Q161 23 124.5 57.5Q88 92 67.5 144Q47 196 47 265Q47 403 118.5 472.5Q190 542 313 542Q441 542 502.5 470.5Q564 399 564 266V226ZM314 459Q245 459 202 422.5Q159 386 153 307H456Q454 382 419 420.5Q384 459 314 459ZM313 595Q257 595 219 608.5Q181 622 157.5 648.5Q134 675 124.5 713Q115 751 115 800H198Q197 733 224 706Q251 679 313 679Q374 679 401.5 706Q429 733 428 800H511Q511 751 501.5 713Q492 675 468.5 648.5Q445 622 407 608.5Q369 595 313 595Z" glyph-name="ebreve" horiz-adv-x="615" unicode="&#277;" /><glyph d="M152 226Q155 185 170.5 156Q186 127 209 108.5Q232 90 261 81Q290 72 320 72Q354 72 379.5 80Q405 88 423 102Q441 116 453.5 135Q466 154 474 175L560 136Q549 108 531 81.5Q513 55 484.5 34Q456 13 416.5 0.5Q377 -12 322 -12Q262 -12 211.5 5.5Q161 23 124.5 57.5Q88 92 67.5 144Q47 196 47 265Q47 403 118.5 472.5Q190 542 313 542Q441 542 502.5 470.5Q564 399 564 266V226ZM314 459Q245 459 202 422.5Q159 386 153 307H456Q454 382 419 420.5Q384 459 314 459ZM264 592 104 800H206L313 673L420 800H522L361 592Z" glyph-name="ecaron" horiz-adv-x="615" unicode="&#283;" /><glyph d="M152 226Q155 185 170.5 156Q186 127 209 108.5Q232 90 261 81Q290 72 320 72Q354 72 379.5 80Q405 88 423 102Q441 116 453.5 135Q466 154 474 175L560 136Q549 108 531 81.5Q513 55 484.5 34Q456 13 416.5 0.5Q377 -12 322 -12Q262 -12 211.5 5.5Q161 23 124.5 57.5Q88 92 67.5 144Q47 196 47 265Q47 403 118.5 472.5Q190 542 313 542Q441 542 502.5 470.5Q564 399 564 266V226ZM314 459Q245 459 202 422.5Q159 386 153 307H456Q454 382 419 420.5Q384 459 314 459ZM361 800 522 592H420L313 719L206 592H104L264 800Z" glyph-name="ecircumflex" horiz-adv-x="615" unicode="&#234;" /><glyph d="M152 226Q155 185 170.5 156Q186 127 209 108.5Q232 90 261 81Q290 72 320 72Q354 72 379.5 80Q405 88 423 102Q441 116 453.5 135Q466 154 474 175L560 136Q549 108 531 81.5Q513 55 484.5 34Q456 13 416.5 0.5Q377 -12 322 -12Q262 -12 211.5 5.5Q161 23 124.5 57.5Q88 92 67.5 144Q47 196 47 265Q47 403 118.5 472.5Q190 542 313 542Q441 542 502.5 470.5Q564 399 564 266V226ZM314 459Q245 459 202 422.5Q159 386 153 307H456Q454 382 419 420.5Q384 459 314 459ZM348 696Q348 725 368.5 745.5Q389 766 418 766Q447 766 467.5 745.5Q488 725 488 696Q488 667 467.5 646.5Q447 626 418 626Q389 626 368.5 646.5Q348 667 348 696ZM138 696Q138 725 158.5 745.5Q179 766 208 766Q237 766 257.5 745.5Q278 725 278 696Q278 667 257.5 646.5Q237 626 208 626Q179 626 158.5 646.5Q138 667 138 696Z" glyph-name="edieresis" horiz-adv-x="615" unicode="&#235;" /><glyph d="M152 226Q155 185 170.5 156Q186 127 209 108.5Q232 90 261 81Q290 72 320 72Q354 72 379.5 80Q405 88 423 102Q441 116 453.5 135Q466 154 474 175L560 136Q549 108 531 81.5Q513 55 484.5 34Q456 13 416.5 0.5Q377 -12 322 -12Q262 -12 211.5 5.5Q161 23 124.5 57.5Q88 92 67.5 144Q47 196 47 265Q47 403 118.5 472.5Q190 542 313 542Q441 542 502.5 470.5Q564 399 564 266V226ZM314 459Q245 459 202 422.5Q159 386 153 307H456Q454 382 419 420.5Q384 459 314 459ZM242 696Q242 725 262.5 745.5Q283 766 312 766Q341 766 361.5 745.5Q382 725 382 696Q382 667 361.5 646.5Q341 626 312 626Q283 626 262.5 646.5Q242 667 242 696Z" glyph-name="edotaccent" horiz-adv-x="615" unicode="&#279;" /><glyph d="M152 226Q155 185 170.5 156Q186 127 209 108.5Q232 90 261 81Q290 72 320 72Q354 72 379.5 80Q405 88 423 102Q441 116 453.5 135Q466 154 474 175L560 136Q549 108 531 81.5Q513 55 484.5 34Q456 13 416.5 0.5Q377 -12 322 -12Q262 -12 211.5 5.5Q161 23 124.5 57.5Q88 92 67.5 144Q47 196 47 265Q47 403 118.5 472.5Q190 542 313 542Q441 542 502.5 470.5Q564 399 564 266V226ZM314 459Q245 459 202 422.5Q159 386 153 307H456Q454 382 419 420.5Q384 459 314 459ZM271 800 370 592H270L152 800Z" glyph-name="egrave" horiz-adv-x="615" unicode="&#232;" /><glyph d="M370 -12Q214 -12 138 44Q62 100 62 201Q62 247 75.5 280.5Q89 314 110 337.5Q131 361 158 374.5Q185 388 212 394Q186 400 163 414.5Q140 429 122.5 451Q105 473 95 502.5Q85 532 85 568Q85 625 108.5 665Q132 705 171.5 729.5Q211 754 262.5 765Q314 776 370 776Q426 776 477.5 765Q529 754 568.5 729.5Q608 705 631.5 665Q655 625 655 568Q655 532 645 502.5Q635 473 617.5 451Q600 429 576.5 414.5Q553 400 527 394Q554 388 581 374.5Q608 361 629.5 337.5Q651 314 664.5 280.5Q678 247 678 201Q678 100 602 44Q526 -12 370 -12ZM370 350Q335 350 298.5 344.5Q262 339 232.5 323.5Q203 308 184.5 280Q166 252 166 207Q166 137 221.5 107Q277 77 370 77Q463 77 518.5 107Q574 137 574 207Q574 252 555.5 280Q537 308 507.5 323.5Q478 339 441.5 344.5Q405 350 370 350ZM370 685Q333 685 300 679.5Q267 674 242.5 660Q218 646 203.5 622.5Q189 599 189 563Q189 521 204.5 495.5Q220 470 245 456.5Q270 443 302.5 438.5Q335 434 370 434Q404 434 437 438.5Q470 443 495 456.5Q520 470 535.5 495.5Q551 521 551 563Q551 599 536.5 622.5Q522 646 497 660Q472 674 439.5 679.5Q407 685 370 685Z" glyph-name="eight" horiz-adv-x="740" unicode="8" /><glyph d="M370 -12Q214 -12 138 44Q62 100 62 201Q62 247 75.5 280.5Q89 314 110 337.5Q131 361 158 374.5Q185 388 212 394Q186 400 163 414.5Q140 429 122.5 451Q105 473 95 502.5Q85 532 85 568Q85 625 108.5 665Q132 705 171.5 729.5Q211 754 262.5 765Q314 776 370 776Q426 776 477.5 765Q529 754 568.5 729.5Q608 705 631.5 665Q655 625 655 568Q655 532 645 502.5Q635 473 617.5 451Q600 429 576.5 414.5Q553 400 527 394Q554 388 581 374.5Q608 361 629.5 337.5Q651 314 664.5 280.5Q678 247 678 201Q678 100 602 44Q526 -12 370 -12ZM370 350Q335 350 298.5 344.5Q262 339 232.5 323.5Q203 308 184.5 280Q166 252 166 207Q166 137 221.5 107Q277 77 370 77Q463 77 518.5 107Q574 137 574 207Q574 252 555.5 280Q537 308 507.5 323.5Q478 339 441.5 344.5Q405 350 370 350ZM370 685Q333 685 300 679.5Q267 674 242.5 660Q218 646 203.5 622.5Q189 599 189 563Q189 521 204.5 495.5Q220 470 245 456.5Q270 443 302.5 438.5Q335 434 370 434Q404 434 437 438.5Q470 443 495 456.5Q520 470 535.5 495.5Q551 521 551 563Q551 599 536.5 622.5Q522 646 497 660Q472 674 439.5 679.5Q407 685 370 685Z" glyph-name="eight.LP" horiz-adv-x="740" unicode="&#58685;" /><glyph d="M222 -212Q48 -212 48 -93Q48 -50 66.5 -28Q85 -6 109 4Q87 15 73 37.5Q59 60 59 92Q59 125 72.5 147.5Q86 170 108.5 183.5Q131 197 160.5 203Q190 209 222 209Q254 209 283.5 203Q313 197 335.5 183.5Q358 170 371.5 147.5Q385 125 385 92Q385 60 371 37.5Q357 15 335 4Q359 -6 377.5 -28Q396 -50 396 -93Q396 -212 222 -212ZM222 -136Q261 -136 283 -124Q305 -112 305 -84Q305 -67 297.5 -56Q290 -45 278 -39Q266 -33 251.5 -31Q237 -29 222 -29Q207 -29 192 -31Q177 -33 165 -39Q153 -45 145.5 -56Q138 -67 138 -84Q138 -112 160.5 -124Q183 -136 222 -136ZM222 35Q237 35 250.5 37Q264 39 274.5 44.5Q285 50 291 59.5Q297 69 297 85Q297 111 275 121.5Q253 132 222 132Q191 132 169 121.5Q147 111 147 85Q147 69 153 59.5Q159 50 169.5 44.5Q180 39 193.5 37Q207 35 222 35Z" glyph-name="eight.inf" horiz-adv-x="444" unicode="&#58745;" /><glyph d="M469 58Q469 87 489.5 107.5Q510 128 539 128Q568 128 588.5 107.5Q609 87 609 58Q609 29 588.5 8.5Q568 -12 539 -12Q510 -12 489.5 8.5Q469 29 469 58ZM818 58Q818 87 838.5 107.5Q859 128 888 128Q917 128 937.5 107.5Q958 87 958 58Q958 29 937.5 8.5Q917 -12 888 -12Q859 -12 838.5 8.5Q818 29 818 58ZM120 58Q120 87 140.5 107.5Q161 128 190 128Q219 128 239.5 107.5Q260 87 260 58Q260 29 239.5 8.5Q219 -12 190 -12Q161 -12 140.5 8.5Q120 29 120 58Z" glyph-name="ellipsis" horiz-adv-x="1078" unicode="&#8230;" /><glyph d="M152 226Q155 185 170.5 156Q186 127 209 108.5Q232 90 261 81Q290 72 320 72Q354 72 379.5 80Q405 88 423 102Q441 116 453.5 135Q466 154 474 175L560 136Q549 108 531 81.5Q513 55 484.5 34Q456 13 416.5 0.5Q377 -12 322 -12Q262 -12 211.5 5.5Q161 23 124.5 57.5Q88 92 67.5 144Q47 196 47 265Q47 403 118.5 472.5Q190 542 313 542Q441 542 502.5 470.5Q564 399 564 266V226ZM314 459Q245 459 202 422.5Q159 386 153 307H456Q454 382 419 420.5Q384 459 314 459ZM161 652V742H465V652Z" glyph-name="emacron" horiz-adv-x="615" unicode="&#275;" /><glyph d="M1004 290H53V380H1004Z" glyph-name="emdash" horiz-adv-x="1057" unicode="&#8212;" /><glyph d="M1004 345H53V435H1004Z" glyph-name="emdash.cap" horiz-adv-x="1057" unicode="&#58502;" /><glyph glyph-name="emspace" horiz-adv-x="1057" unicode="&#8195;" /><glyph d="M53 290V380H476V290Z" glyph-name="endash" horiz-adv-x="528" unicode="&#8211;" /><glyph d="M53 345V435H476V345Z" glyph-name="endash.cap" horiz-adv-x="528" unicode="&#58500;" /><glyph d="M461 346Q461 399 425.5 426Q390 453 332 453Q297 453 268.5 441Q240 429 219 411Q198 393 185 371Q172 349 169 328V0H69V530H153L166 455Q194 494 241.5 518Q289 542 347 542Q393 542 432.5 530.5Q472 519 500.5 496Q529 473 545.5 439.5Q562 406 562 363V-7Q562 -47 554.5 -84Q547 -121 524.5 -149.5Q502 -178 462 -195Q422 -212 358 -212Q336 -212 315.5 -208.5Q295 -205 282 -200L293 -111Q300 -115 317.5 -120Q335 -125 356 -124Q383 -124 403 -119Q423 -114 435.5 -100.5Q448 -87 454.5 -63Q461 -39 461 -1Z" glyph-name="eng" horiz-adv-x="620" unicode="&#331;" /><glyph glyph-name="enspace" horiz-adv-x="528" unicode="&#8194;" /><glyph d="M314 459Q245 459 202 422.5Q159 386 153 307H456Q454 382 419 420.5Q384 459 314 459ZM152 226Q155 185 170.5 156Q186 127 209 108.5Q232 90 261 81Q290 72 320 72Q354 72 379.5 80Q405 88 423 102Q441 116 453.5 135Q466 154 474 175L560 136Q543 96 512.5 60Q482 24 427 4Q378 -17 349.5 -44Q321 -71 321 -99Q321 -117 332 -128Q343 -139 369 -139Q381 -139 394 -136.5Q407 -134 417.5 -130.5Q428 -127 435 -124Q442 -121 442 -120L465 -187Q448 -197 420.5 -204.5Q393 -212 358 -212Q334 -212 311.5 -206.5Q289 -201 271.5 -188.5Q254 -176 244 -156.5Q234 -137 234 -108Q234 -81 247 -56Q260 -31 284 -10Q231 -5 187.5 15Q144 35 112.5 69.5Q81 104 64 153Q47 202 47 265Q47 403 118.5 472.5Q190 542 313 542Q441 542 502.5 470.5Q564 399 564 266V226Z" glyph-name="eogonek" horiz-adv-x="615" unicode="&#281;" /><glyph d="M85 248V342H655V248ZM85 438V532H655V438Z" glyph-name="equal" horiz-adv-x="740" unicode="=" /><glyph d="M42 577H867V482H42ZM42 298H867V203H42Z" glyph-name="equal.cap" horiz-adv-x="909" unicode="&#58773;" /><glyph d="M41 38V127H367V38ZM41 -101V-12H367V-101Z" glyph-name="equal.inf" horiz-adv-x="408" unicode="&#58749;" /><glyph d="M85 660H655V566H85ZM85 214H655V120H85ZM85 437H655V343H85Z" glyph-name="equivalence" horiz-adv-x="740" unicode="&#8801;" /><glyph d="M421 711Q349 711 300.5 688.5Q252 666 222 627.5Q192 589 178 537Q164 485 161 426H680Q677 485 663 537Q649 589 619 627.5Q589 666 541 688.5Q493 711 421 711ZM161 349Q164 290 178 238.5Q192 187 222 148.5Q252 110 300.5 87.5Q349 65 421 65Q551 65 625.5 113.5Q700 162 720 263H817Q806 191 773 139.5Q740 88 689 54Q638 20 570 4Q502 -12 421 -12Q330 -12 254 16Q178 44 123.5 96.5Q69 149 38.5 222.5Q8 296 8 388Q8 479 38.5 553Q69 627 123.5 679Q178 731 254 759Q330 787 421 787Q512 787 588 759Q664 731 718.5 679Q773 627 803 553Q833 479 833 388V349Z" glyph-name="estimated" horiz-adv-x="840" unicode="&#8494;" /><glyph d="M311 454Q237 454 193.5 410Q150 366 150 265Q150 163 193.5 119Q237 75 311 75Q348 75 378 85.5Q408 96 429.5 119Q451 142 462.5 178Q474 214 474 265Q474 316 462.5 351.5Q451 387 429.5 410Q408 433 378 443.5Q348 454 311 454ZM430 686Q459 656 485 616.5Q511 577 531 525.5Q551 474 563 409Q575 344 575 265Q575 126 504 57Q433 -12 311 -12Q189 -12 118 57Q47 126 47 265Q47 403 117.5 472.5Q188 542 310 542Q345 542 378 532Q411 522 435 505Q419 553 394 589Q369 625 339 654L161 591V660L282 703Q234 738 184.5 760.5Q135 783 93 800H267Q292 789 319.5 773.5Q347 758 376 736L512 784V715Z" glyph-name="eth" horiz-adv-x="623" unicode="&#240;" /><glyph d="M70 58Q70 87 90.5 107.5Q111 128 140 128Q169 128 189.5 107.5Q210 87 210 58Q210 29 189.5 8.5Q169 -12 140 -12Q111 -12 90.5 8.5Q70 29 70 58ZM205 780 174 205H106L74 780Z" glyph-name="exclam" horiz-adv-x="280" unicode="!" /><glyph d="M70 470Q70 499 90.5 519.5Q111 540 140 540Q169 540 189.5 519.5Q210 499 210 470Q210 441 189.5 420.5Q169 400 140 400Q111 400 90.5 420.5Q70 441 70 470ZM76 -200 106 323H174L203 -200Z" glyph-name="exclamdown" horiz-adv-x="280" unicode="&#161;" /><glyph d="M210 722Q210 693 189.5 672.5Q169 652 140 652Q111 652 90.5 672.5Q70 693 70 722Q70 751 90.5 771.5Q111 792 140 792Q169 792 189.5 771.5Q210 751 210 722ZM75 0 106 575H174L206 0Z" glyph-name="exclamdown.cap" horiz-adv-x="280" unicode="&#58433;" /><glyph d="M32 530H145V607Q145 646 152.5 683Q160 720 181 748.5Q202 777 239.5 794.5Q277 812 336 812Q368 812 390 807.5Q412 803 425 798L415 711Q407 715 386 719.5Q365 724 341 724Q318 724 300 719Q282 714 270 700Q258 686 251.5 662Q245 638 245 601V530H405V449H245V0H145V449L32 461Z" glyph-name="f" horiz-adv-x="431" unicode="f" /><glyph d="M32 530H145V607Q145 646 152.5 683Q160 720 181 748.5Q202 777 239.5 794.5Q277 812 336 812Q368 812 390 807.5Q412 803 425 798L415 711Q407 715 386 719.5Q365 724 341 724Q318 724 300 719Q282 714 270 700Q258 686 251.5 662Q245 638 245 601V530H405V449H245V0H145V449L32 461ZM517 530H618V0H517Z" glyph-name="f_dotlessi" horiz-adv-x="704" unicode="&#59248;" /><glyph d="M32 530H145V607Q145 646 152.5 683Q160 720 181 748.5Q202 777 239.5 794.5Q277 812 336 812Q368 812 390 807.5Q412 803 425 798L415 711Q407 715 386 719.5Q365 724 341 724Q318 724 300 719Q282 714 270 700Q258 686 251.5 662Q245 638 245 601V530H405V449H245V0H145V449L32 461ZM627 639H508V750H627ZM517 530H618V0H517Z" glyph-name="fi" horiz-adv-x="704" unicode="&#64257;" /><glyph d="M687 290H53V380H687Z" glyph-name="figuredash" horiz-adv-x="740" unicode="&#8210;" /><glyph d="M687 345H53V435H687Z" glyph-name="figuredash.cap" horiz-adv-x="740" unicode="&#58503;" /><glyph glyph-name="figurespace" horiz-adv-x="740" unicode="&#8199;" /><glyph d="M166 207Q189 133 238 104.5Q287 76 366 76Q408 76 444.5 85.5Q481 95 509 116Q537 137 553.5 170.5Q570 204 570 252Q570 299 558 332.5Q546 366 522 387.5Q498 409 463.5 419Q429 429 386 430Q325 431 275 413.5Q225 396 196 360L107 380L148 764H626V673H236L212 468Q245 492 292 503.5Q339 515 388 515Q525 515 599 449Q673 383 673 252Q673 187 651 137.5Q629 88 589 55Q549 22 494.5 5Q440 -12 374 -12Q307 -12 257 0.5Q207 13 171 36Q135 59 112 91Q89 123 76 163Z" glyph-name="five" horiz-adv-x="740" unicode="5" /><glyph d="M166 207Q189 133 238 104.5Q287 76 366 76Q408 76 444.5 85.5Q481 95 509 116Q537 137 553.5 170.5Q570 204 570 252Q570 299 558 332.5Q546 366 522 387.5Q498 409 463.5 419Q429 429 386 430Q325 431 275 413.5Q225 396 196 360L107 380L148 764H626V673H236L212 468Q245 492 292 503.5Q339 515 388 515Q525 515 599 449Q673 383 673 252Q673 187 651 137.5Q629 88 589 55Q549 22 494.5 5Q440 -12 374 -12Q307 -12 257 0.5Q207 13 171 36Q135 59 112 91Q89 123 76 163Z" glyph-name="five.LP" horiz-adv-x="740" unicode="&#58682;" /><glyph d="M218 -135Q249 -135 273 -119.5Q297 -104 297 -67Q297 4 223 4Q197 4 176 -4Q155 -12 142 -29L64 -13L89 197H365V117H166L157 52Q170 60 189.5 64Q209 68 229 68Q303 69 345 36Q387 3 387 -69Q387 -106 374 -133Q361 -160 338 -177.5Q315 -195 284 -203.5Q253 -212 217 -212Q133 -212 93.5 -179.5Q54 -147 48 -85L137 -77Q143 -111 162 -123.5Q181 -136 218 -135Z" glyph-name="five.inf" horiz-adv-x="434" unicode="&#58742;" /><glyph d="M32 530H145V607Q145 646 152.5 683Q160 720 181 748.5Q202 777 239.5 794.5Q277 812 336 812Q368 812 390 807.5Q412 803 425 798L415 711Q407 715 386 719.5Q365 724 341 724Q318 724 300 719Q282 714 270 700Q258 686 251.5 662Q245 638 245 601V530H405V449H245V0H145V449L32 461ZM517 800H618V0H517Z" glyph-name="fl" horiz-adv-x="704" unicode="&#64258;" /><glyph d="M136 355H21V440H136V571Q136 610 144 647Q152 684 174 712.5Q196 741 236 758.5Q276 776 341 776Q364 776 384.5 772.5Q405 769 416 764L407 675Q399 679 382 684Q365 689 342 688Q315 688 295.5 682.5Q276 677 263.5 663.5Q251 650 244.5 626Q238 602 238 565V440H394V355H238V-7Q238 -46 230 -83Q222 -120 200 -148.5Q178 -177 138 -194.5Q98 -212 34 -212Q11 -212 -9 -208.5Q-29 -205 -42 -200L-33 -111Q-24 -115 -7 -120Q10 -125 32 -124Q59 -124 78.5 -118.5Q98 -113 111 -99.5Q124 -86 130 -62.5Q136 -39 136 -1Z" glyph-name="florin" horiz-adv-x="437" unicode="&#402;" /><glyph d="M547 775 242 355 179 267 279 268H440V464L542 488V268H683V178H542V0H440V178H56V246L441 775Z" glyph-name="four" horiz-adv-x="740" unicode="4" /><glyph d="M557 775 252 355 189 267 289 268H450V464L552 488V268H693V178H552V0H450V178H66V246L451 775Z" glyph-name="four.LP" horiz-adv-x="759" unicode="&#58681;" /><glyph d="M227 39 228 79 141 -43H227ZM316 -122V-200H227V-122H34V-63L239 209H316V-43H390V-122Z" glyph-name="four.inf" horiz-adv-x="425" unicode="&#58741;" /><glyph glyph-name="fourperemspace" horiz-adv-x="264" unicode="&#8197;" /><glyph d="M-111 0H-221L327 764H437Z" glyph-name="fraction" horiz-adv-x="217" unicode="&#8260;" /><glyph d="M164 497V764H636V672H270V497H523V421H270V369H523V293H270V0H164V293H51V369H164V421H51V497Z" glyph-name="franc" horiz-adv-x="666" unicode="&#8355;" /><glyph d="M477 328Q473 350 460 372Q447 394 426 412Q405 430 375.5 441.5Q346 453 310 453Q238 453 195 411.5Q152 370 152 277Q152 185 195 143Q238 101 310 101Q346 101 375.5 112.5Q405 124 426 142Q447 160 460 182Q473 204 477 226ZM133 -27Q137 -44 149.5 -62Q162 -80 183.5 -95Q205 -110 236.5 -119.5Q268 -129 312 -129Q387 -129 432 -95Q477 -61 477 2V95Q451 57 404 34.5Q357 12 298 12Q182 12 114.5 78.5Q47 145 47 277Q47 409 114.5 475.5Q182 542 298 542Q359 542 406.5 518Q454 494 480 454L493 530H577V6Q577 -44 558.5 -84Q540 -124 505.5 -152.5Q471 -181 422 -196.5Q373 -212 311 -212Q248 -212 202.5 -200Q157 -188 125.5 -167.5Q94 -147 76 -121Q58 -95 50 -68Z" glyph-name="g" horiz-adv-x="646" unicode="g" /><glyph d="M309 595Q253 595 215 608.5Q177 622 153.5 648.5Q130 675 120.5 713Q111 751 111 800H193Q192 733 219.5 706Q247 679 309 679Q370 679 397.5 706Q425 733 424 800H506Q506 751 496.5 713Q487 675 464 648.5Q441 622 403 608.5Q365 595 309 595ZM477 328Q473 350 460 372Q447 394 426 412Q405 430 375.5 441.5Q346 453 310 453Q238 453 195 411.5Q152 370 152 277Q152 185 195 143Q238 101 310 101Q346 101 375.5 112.5Q405 124 426 142Q447 160 460 182Q473 204 477 226ZM133 -27Q137 -44 149.5 -62Q162 -80 183.5 -95Q205 -110 236.5 -119.5Q268 -129 312 -129Q387 -129 432 -95Q477 -61 477 2V95Q451 57 404 34.5Q357 12 298 12Q182 12 114.5 78.5Q47 145 47 277Q47 409 114.5 475.5Q182 542 298 542Q359 542 406.5 518Q454 494 480 454L493 530H577V6Q577 -44 558.5 -84Q540 -124 505.5 -152.5Q471 -181 422 -196.5Q373 -212 311 -212Q248 -212 202.5 -200Q157 -188 125.5 -167.5Q94 -147 76 -121Q58 -95 50 -68Z" glyph-name="gbreve" horiz-adv-x="646" unicode="&#287;" /><glyph d="M357 800 518 592H415L309 719L202 592H99L260 800ZM477 328Q473 350 460 372Q447 394 426 412Q405 430 375.5 441.5Q346 453 310 453Q238 453 195 411.5Q152 370 152 277Q152 185 195 143Q238 101 310 101Q346 101 375.5 112.5Q405 124 426 142Q447 160 460 182Q473 204 477 226ZM133 -27Q137 -44 149.5 -62Q162 -80 183.5 -95Q205 -110 236.5 -119.5Q268 -129 312 -129Q387 -129 432 -95Q477 -61 477 2V95Q451 57 404 34.5Q357 12 298 12Q182 12 114.5 78.5Q47 145 47 277Q47 409 114.5 475.5Q182 542 298 542Q359 542 406.5 518Q454 494 480 454L493 530H577V6Q577 -44 558.5 -84Q540 -124 505.5 -152.5Q471 -181 422 -196.5Q373 -212 311 -212Q248 -212 202.5 -200Q157 -188 125.5 -167.5Q94 -147 76 -121Q58 -95 50 -68Z" glyph-name="gcircumflex" horiz-adv-x="646" unicode="&#285;" /><glyph d="M244 592 317 800H408L358 592ZM477 328Q473 350 460 372Q447 394 426 412Q405 430 375.5 441.5Q346 453 310 453Q238 453 195 411.5Q152 370 152 277Q152 185 195 143Q238 101 310 101Q346 101 375.5 112.5Q405 124 426 142Q447 160 460 182Q473 204 477 226ZM133 -27Q137 -44 149.5 -62Q162 -80 183.5 -95Q205 -110 236.5 -119.5Q268 -129 312 -129Q387 -129 432 -95Q477 -61 477 2V95Q451 57 404 34.5Q357 12 298 12Q182 12 114.5 78.5Q47 145 47 277Q47 409 114.5 475.5Q182 542 298 542Q359 542 406.5 518Q454 494 480 454L493 530H577V6Q577 -44 558.5 -84Q540 -124 505.5 -152.5Q471 -181 422 -196.5Q373 -212 311 -212Q248 -212 202.5 -200Q157 -188 125.5 -167.5Q94 -147 76 -121Q58 -95 50 -68Z" glyph-name="gcommaaccent" horiz-adv-x="646" unicode="&#291;" /><glyph d="M237 696Q237 725 257.5 745.5Q278 766 307 766Q336 766 356.5 745.5Q377 725 377 696Q377 667 356.5 646.5Q336 626 307 626Q278 626 257.5 646.5Q237 667 237 696ZM477 328Q473 350 460 372Q447 394 426 412Q405 430 375.5 441.5Q346 453 310 453Q238 453 195 411.5Q152 370 152 277Q152 185 195 143Q238 101 310 101Q346 101 375.5 112.5Q405 124 426 142Q447 160 460 182Q473 204 477 226ZM133 -27Q137 -44 149.5 -62Q162 -80 183.5 -95Q205 -110 236.5 -119.5Q268 -129 312 -129Q387 -129 432 -95Q477 -61 477 2V95Q451 57 404 34.5Q357 12 298 12Q182 12 114.5 78.5Q47 145 47 277Q47 409 114.5 475.5Q182 542 298 542Q359 542 406.5 518Q454 494 480 454L493 530H577V6Q577 -44 558.5 -84Q540 -124 505.5 -152.5Q471 -181 422 -196.5Q373 -212 311 -212Q248 -212 202.5 -200Q157 -188 125.5 -167.5Q94 -147 76 -121Q58 -95 50 -68Z" glyph-name="gdotaccent" horiz-adv-x="646" unicode="&#289;" /><glyph d="M358 812Q409 812 454 801Q499 790 532.5 767.5Q566 745 585 712Q604 679 604 634Q604 583 587.5 552.5Q571 522 546.5 504Q522 486 493 476Q464 466 439.5 455Q415 444 398.5 428.5Q382 413 382 384Q382 358 402.5 345Q423 332 453.5 323.5Q484 315 519.5 307Q555 299 585.5 282Q616 265 636.5 236Q657 207 657 156Q657 114 641.5 82.5Q626 51 599 30Q572 9 535.5 -1.5Q499 -12 457 -12Q407 -12 371.5 -1Q336 10 312 28Q288 46 273.5 69Q259 92 251 117L341 161Q347 144 355.5 128.5Q364 113 377.5 101Q391 89 410 81.5Q429 74 456 74Q503 74 527.5 92.5Q552 111 552 153Q552 174 543.5 187.5Q535 201 520 210Q505 219 484.5 225Q464 231 439 237Q419 241 392 249.5Q365 258 339.5 273.5Q314 289 296.5 315Q279 341 279 380Q279 422 294 450Q309 478 330 495Q351 512 374.5 521.5Q398 531 415 537Q437 545 453 553Q469 561 479.5 571.5Q490 582 495 596.5Q500 611 500 631Q500 679 466 702.5Q432 726 358 726Q299 726 264.5 710.5Q230 695 212.5 667.5Q195 640 190 603Q185 566 185 524V0H85V530Q85 602 99 655Q113 708 145 743Q177 778 229 795Q281 812 358 812Z" glyph-name="germandbls" horiz-adv-x="692" unicode="&#223;" /><glyph d="M275 800 374 592H274L156 800Z" glyph-name="grave" horiz-adv-x="634" unicode="`" /><glyph d="M275 1030 374 822H274L156 1030Z" glyph-name="grave.cap" horiz-adv-x="634" unicode="&#58401;" /><glyph d="M544 390 418 440 85 579V681L655 437V343L85 99V201L418 340Z" glyph-name="greater" horiz-adv-x="740" unicode="&gt;" /><glyph d="M753 390 609 450 42 692V792L867 437V343L42 -12V88L609 330Z" glyph-name="greater.cap" horiz-adv-x="909" unicode="&#58775;" /><glyph d="M515 460 424 480 85 576V677L655 510V407L85 250V351L424 440L515 459ZM85 102V184L655 350V270Z" glyph-name="greaterequal" horiz-adv-x="740" unicode="&#8805;" /><glyph d="M497 131 277 272V358L497 499V422L367 315L497 208ZM264 131 44 272V358L264 499V422L134 315L264 208Z" glyph-name="guillemotleft" horiz-adv-x="550" unicode="&#171;" /><glyph d="M497 206 277 347V433L497 574V497L367 390L497 283ZM264 206 44 347V433L264 574V497L134 390L264 283Z" glyph-name="guillemotleft.cap" horiz-adv-x="550" unicode="&#58451;" /><glyph d="M53 208 183 315 53 422V499L273 358V272L53 131ZM285 208 415 315 285 422V499L505 358V272L285 131Z" glyph-name="guillemotright" horiz-adv-x="550" unicode="&#187;" /><glyph d="M53 283 183 390 53 497V574L273 433V347L53 206ZM285 283 415 390 285 497V574L505 433V347L285 206Z" glyph-name="guillemotright.cap" horiz-adv-x="550" unicode="&#58452;" /><glyph d="M264 131 44 272V358L264 499V422L134 315L264 208Z" glyph-name="guilsinglleft" horiz-adv-x="317" unicode="&#8249;" /><glyph d="M264 206 44 347V433L264 574V497L134 390L264 283Z" glyph-name="guilsinglleft.cap" horiz-adv-x="317" unicode="&#58449;" /><glyph d="M53 208 183 315 53 422V499L273 358V272L53 131Z" glyph-name="guilsinglright" horiz-adv-x="317" unicode="&#8250;" /><glyph d="M53 283 183 390 53 497V574L273 433V347L53 206Z" glyph-name="guilsinglright.cap" horiz-adv-x="317" unicode="&#58450;" /><glyph d="M167 458Q195 496 241 519Q287 542 345 542Q391 542 430.5 530.5Q470 519 498.5 496Q527 473 543.5 439.5Q560 406 560 363V0H459V346Q459 399 423.5 426Q388 453 330 453Q295 453 266.5 441Q238 429 216.5 411Q195 393 182.5 371Q170 349 167 328V0H67V788L167 812Z" glyph-name="h" horiz-adv-x="618" unicode="h" /><glyph glyph-name="hairspace" horiz-adv-x="106" unicode="&#8202;" /><glyph d="M188 697H333V619H188V458Q216 496 262.5 519Q309 542 366 542Q412 542 451.5 530.5Q491 519 519.5 496Q548 473 564.5 439.5Q581 406 581 363V0H480V346Q480 399 444.5 426Q409 453 351 453Q316 453 287.5 441Q259 429 238 411Q217 393 204 371Q191 349 188 328V0H88V619H-21V697H88V788L188 812Z" glyph-name="hbar" horiz-adv-x="639" unicode="&#295;" /><glyph d="M167 1030 328 822H225L118 949L12 822H-91L70 1030ZM167 458Q195 496 241 519Q287 542 345 542Q391 542 430.5 530.5Q470 519 498.5 496Q527 473 543.5 439.5Q560 406 560 363V0H459V346Q459 399 423.5 426Q388 453 330 453Q295 453 266.5 441Q238 429 216.5 411Q195 393 182.5 371Q170 349 167 328V0H67V788L167 812Z" glyph-name="hcircumflex" horiz-adv-x="618" unicode="&#293;" /><glyph d="M475 -10Q462 9 437.5 40Q413 71 380.5 110Q348 149 309 193.5Q270 238 228 283Q201 312 170.5 348Q140 384 114.5 423.5Q89 463 72 504Q55 545 55 584Q55 628 69 666Q83 704 109 731.5Q135 759 172.5 774.5Q210 790 257 790Q306 790 341.5 777Q377 764 402.5 742.5Q428 721 445 692.5Q462 664 474 633H478Q489 664 506 692.5Q523 721 548.5 742.5Q574 764 609.5 777Q645 790 694 790Q741 790 778.5 774.5Q816 759 842 731.5Q868 704 882 666Q896 628 896 584Q896 545 879 504Q862 463 836.5 423.5Q811 384 780.5 348Q750 312 723 283Q681 238 642 193.5Q603 149 571 110Q539 71 514.5 40Q490 9 477 -10Z" glyph-name="heart" horiz-adv-x="951" unicode="&#9829;" /><glyph d="M74 0V450L449 790L824 450V0Z" glyph-name="house" horiz-adv-x="898" unicode="&#8962;" /><glyph d="M568 800 450 592H350L449 800ZM398 800 281 592H181L280 800Z" glyph-name="hungarumlaut" horiz-adv-x="634" unicode="&#733;" /><glyph d="M568 1030 450 822H350L449 1030ZM398 1030 281 822H181L280 1030Z" glyph-name="hungarumlaut.cap" horiz-adv-x="634" unicode="&#58411;" /><glyph d="M53 290V380H328V290Z" glyph-name="hyphen" horiz-adv-x="381" unicode="-" /><glyph d="M53 345V435H328V345Z" glyph-name="hyphen.cap" horiz-adv-x="381" unicode="&#58498;" /><glyph d="M66 696Q66 725 86.5 745.5Q107 766 136 766Q165 766 185.5 745.5Q206 725 206 696Q206 667 185.5 646.5Q165 626 136 626Q107 626 86.5 646.5Q66 667 66 696ZM86 530H186V0H86Z" glyph-name="i" horiz-adv-x="273" unicode="i" /><glyph d="M304 800 187 592H87L186 800ZM86 530H187V0H86Z" glyph-name="iacute" horiz-adv-x="273" unicode="&#237;" /><glyph d="M136 595Q80 595 42 608.5Q4 622 -19 648.5Q-42 675 -51.5 713Q-61 751 -61 800H21Q20 733 47.5 706Q75 679 136 679Q198 679 225.5 706Q253 733 252 800H334Q334 751 324.5 713Q315 675 291.5 648.5Q268 622 230 608.5Q192 595 136 595ZM86 530H187V0H86Z" glyph-name="ibreve" horiz-adv-x="273" unicode="&#301;" /><glyph d="M185 800 346 592H243L136 719L30 592H-73L88 800ZM86 530H187V0H86Z" glyph-name="icircumflex" horiz-adv-x="273" unicode="&#238;" /><glyph d="M171 696Q171 725 191.5 745.5Q212 766 241 766Q270 766 290.5 745.5Q311 725 311 696Q311 667 290.5 646.5Q270 626 241 626Q212 626 191.5 646.5Q171 667 171 696ZM-39 696Q-39 725 -18.5 745.5Q2 766 31 766Q60 766 80.5 745.5Q101 725 101 696Q101 667 80.5 646.5Q60 626 31 626Q2 626 -18.5 646.5Q-39 667 -39 696ZM86 530H187V0H86Z" glyph-name="idieresis" horiz-adv-x="273" unicode="&#239;" /><glyph d="M66 696Q66 725 86.5 745.5Q107 766 136 766Q165 766 185.5 745.5Q206 725 206 696Q206 667 185.5 646.5Q165 626 136 626Q107 626 86.5 646.5Q66 667 66 696ZM86 530H186V0H86Z" glyph-name="idotaccent" horiz-adv-x="273" unicode="&#59269;" /><glyph d="M94 800 193 592H93L-24 800ZM86 530H187V0H86Z" glyph-name="igrave" horiz-adv-x="273" unicode="&#236;" /><glyph d="M276 696Q276 725 296.5 745.5Q317 766 346 766Q375 766 395.5 745.5Q416 725 416 696Q416 667 395.5 646.5Q375 626 346 626Q317 626 296.5 646.5Q276 667 276 696ZM296 530H396V-7Q396 -47 388.5 -84Q381 -121 358.5 -149.5Q336 -178 296 -195Q256 -212 192 -212Q170 -212 149.5 -208.5Q129 -205 116 -200L127 -111Q134 -115 151.5 -120Q169 -125 190 -124Q217 -124 237 -119Q257 -114 270 -100.5Q283 -87 289.5 -63Q296 -39 296 -1ZM66 696Q66 725 86.5 745.5Q107 766 136 766Q165 766 185.5 745.5Q206 725 206 696Q206 667 185.5 646.5Q165 626 136 626Q107 626 86.5 646.5Q66 667 66 696ZM86 530H186V0H86Z" glyph-name="ij" horiz-adv-x="483" unicode="&#307;" /><glyph d="M-16 652V742H289V652ZM86 530H187V0H86Z" glyph-name="imacron" horiz-adv-x="273" unicode="&#299;" /><glyph d="M239 309Q262 310 281.5 317.5Q301 325 317 336.5Q333 348 346.5 362Q360 376 371 390Q360 404 346.5 418Q333 432 317 443.5Q301 455 281.5 462.5Q262 470 239 471Q220 472 202.5 468Q185 464 171.5 454.5Q158 445 150 429Q142 413 142 390Q142 367 150 351Q158 335 171.5 325.5Q185 316 202.5 312Q220 308 239 309ZM704 390Q704 413 696 429Q688 445 674.5 454.5Q661 464 643.5 468Q626 472 607 471Q583 470 563.5 462.5Q544 455 528 443.5Q512 432 499 418Q486 404 475 390Q486 376 499 362Q512 348 528 336.5Q544 325 563.5 317.5Q583 310 607 309Q626 308 643.5 312Q661 316 674.5 325.5Q688 335 696 351Q704 367 704 390ZM792 390Q792 350 778.5 320Q765 290 740.5 269.5Q716 249 682 239Q648 229 607 229Q547 229 502.5 256.5Q458 284 423 324Q387 284 342.5 256.5Q298 229 239 229Q198 229 164 239Q130 249 105.5 269.5Q81 290 67.5 320Q54 350 54 390Q54 430 67.5 460Q81 490 105.5 510.5Q130 531 164 541Q198 551 239 551Q298 551 342.5 523.5Q387 496 423 456Q458 496 502.5 523.5Q547 551 607 551Q648 551 682 541Q716 531 740.5 510.5Q765 490 778.5 460Q792 430 792 390Z" glyph-name="infinity" horiz-adv-x="846" unicode="&#8734;" /><glyph d="M727 622Q762 572 782 513.5Q802 455 802 389Q802 306 770.5 233Q739 160 684.5 105.5Q630 51 557 19.5Q484 -12 401 -12Q318 -12 245 19.5Q172 51 117.5 105.5Q63 160 31.5 233Q0 306 0 389Q0 472 31.5 545Q63 618 117.5 672.5Q172 727 245 758.5Q318 790 401 790Q488 790 563 756.5Q638 723 693 664Q658 664 616 658Q574 652 530.5 639Q487 626 446.5 605Q406 584 374 554.5Q342 525 323 486Q304 447 304 398Q304 355 320 318.5Q336 282 363.5 255.5Q391 229 427 214Q463 199 503 199Q544 199 580.5 215Q617 231 644 258Q671 285 686.5 321Q702 357 702 398Q702 446 682 485.5Q662 525 628 553Q620 559 620 569Q620 578 629 586Q635 591 647 596.5Q659 602 673 607.5Q687 613 701.5 617Q716 621 727 622Z" glyph-name="integral" horiz-adv-x="802" unicode="&#8747;" /><glyph d="M234 58Q234 87 254.5 107.5Q275 128 304 128Q333 128 353.5 107.5Q374 87 374 58Q374 29 353.5 8.5Q333 -12 304 -12Q275 -12 254.5 8.5Q234 29 234 58ZM467 581Q467 610 459 630.5Q451 651 437 664.5Q423 678 404.5 686Q386 694 365 697L351 454Q372 463 392.5 474Q413 485 429.5 500Q446 515 456.5 534.5Q467 554 467 581ZM392 373Q379 368 367.5 362.5Q356 357 346 351L338 205H270L242 692Q201 680 176.5 652Q152 624 144 573L39 584Q45 631 64.5 669.5Q84 708 118 735Q152 762 201 777Q250 792 316 792Q374 792 422 778.5Q470 765 504.5 738Q539 711 558 671.5Q577 632 577 581Q577 527 556.5 491.5Q536 456 507 432.5Q478 409 446.5 395.5Q415 382 392 373Z" glyph-name="interrobang" horiz-adv-x="641" unicode="&#8253;" /><glyph d="M251 470Q251 499 271.5 519.5Q292 540 321 540Q350 540 370.5 519.5Q391 499 391 470Q391 441 370.5 420.5Q350 400 321 400Q292 400 271.5 420.5Q251 441 251 470ZM156 -14Q156 -41 164.5 -59.5Q173 -78 187.5 -90Q202 -102 221 -108.5Q240 -115 261 -118L274 101Q263 97 253.5 93Q244 89 235 85Q220 78 205.5 69.5Q191 61 180 49.5Q169 38 162.5 22.5Q156 7 156 -14ZM227 182Q243 189 255.5 194.5Q268 200 279 207L286 323H355L378 -112Q420 -101 444 -73Q468 -45 476 6L581 -4Q574 -51 555.5 -89.5Q537 -128 504 -155Q471 -182 422.5 -197Q374 -212 308 -212Q250 -212 202.5 -199Q155 -186 120.5 -161Q86 -136 67 -99Q48 -62 48 -14Q48 39 67.5 72.5Q87 106 115 127.5Q143 149 173.5 161Q204 173 227 182Z" glyph-name="interrobangdown" horiz-adv-x="590" unicode="&#59701;" /><glyph d="M407 722Q407 693 386.5 672.5Q366 652 337 652Q308 652 287.5 672.5Q267 693 267 722Q267 751 287.5 771.5Q308 792 337 792Q366 792 386.5 771.5Q407 751 407 722ZM173 199Q173 170 181.5 149.5Q190 129 204 115.5Q218 102 236.5 94Q255 86 276 83L290 326Q269 317 248.5 306Q228 295 211 280Q194 265 183.5 245.5Q173 226 173 199ZM248 407Q261 412 272.5 417.5Q284 423 295 429L302 575H371L398 88Q439 100 463.5 128Q488 156 497 207L601 196Q595 149 576 110.5Q557 72 523 45Q489 18 439.5 3Q390 -12 324 -12Q266 -12 218 1.5Q170 15 135.5 42Q101 69 82 108.5Q63 148 63 199Q63 253 83.5 288.5Q104 324 133 347Q162 370 193.5 384Q225 398 248 407Z" glyph-name="interrobangdown.cap" horiz-adv-x="641" unicode="&#59803;" /><glyph d="M317 797Q373 797 411 783Q449 769 472.5 743Q496 717 505.5 679Q515 641 515 592H432Q433 659 405.5 686Q378 713 317 713Q256 713 228.5 686Q201 659 202 592H119Q119 641 128.5 679Q138 717 161.5 743Q185 769 223 783Q261 797 317 797Z" glyph-name="invertedbreve" horiz-adv-x="634" unicode="&#58385;" /><glyph d="M317 1027Q373 1027 411 1013Q449 999 472.5 973Q496 947 505.5 909Q515 871 515 822H432Q433 889 405.5 916Q378 943 317 943Q256 943 228.5 916Q201 889 202 822H119Q119 871 128.5 909Q138 947 161.5 973Q185 999 223 1013Q261 1027 317 1027Z" glyph-name="invertedbreve.cap" horiz-adv-x="634" unicode="&#58407;" /><glyph d="M66 696Q66 725 86.5 745.5Q107 766 136 766Q165 766 185.5 745.5Q206 725 206 696Q206 667 185.5 646.5Q165 626 136 626Q107 626 86.5 646.5Q66 667 66 696ZM186 0Q148 -18 121 -43.5Q94 -69 94 -99Q94 -117 105 -128Q116 -139 143 -139Q158 -139 171.5 -135.5Q185 -132 196.5 -127.5Q208 -123 215 -119Q222 -115 224 -113L247 -182Q226 -196 196.5 -204Q167 -212 131 -212Q107 -212 84.5 -206.5Q62 -201 45 -188.5Q28 -176 17.5 -156.5Q7 -137 7 -109Q7 -70 29 -42Q51 -14 86 11V530H186Z" glyph-name="iogonek" horiz-adv-x="273" unicode="&#303;" /><glyph d="M52 696Q23 696 11.5 678.5Q0 661 -3 642L-84 653Q-75 709 -43 743.5Q-11 778 57 778Q92 778 116 765.5Q140 753 159 738Q178 723 194.5 710.5Q211 698 231 698Q260 698 271.5 715.5Q283 733 286 752L367 741Q358 685 325.5 650.5Q293 616 226 616Q191 616 167 628.5Q143 641 124.5 656Q106 671 89 683.5Q72 696 52 696ZM86 530H187V0H86Z" glyph-name="itilde" horiz-adv-x="273" unicode="&#297;" /><glyph d="M66 696Q66 725 86.5 745.5Q107 766 136 766Q165 766 185.5 745.5Q206 725 206 696Q206 667 185.5 646.5Q165 626 136 626Q107 626 86.5 646.5Q66 667 66 696ZM86 530H186V-7Q186 -47 178.5 -84Q171 -121 148.5 -149.5Q126 -178 86 -195Q46 -212 -18 -212Q-40 -212 -60.5 -208.5Q-81 -205 -94 -200L-83 -111Q-76 -115 -58.5 -120Q-41 -125 -20 -124Q7 -124 27 -119Q47 -114 60 -100.5Q73 -87 79.5 -63Q86 -39 86 -1Z" glyph-name="j" horiz-adv-x="273" unicode="j" /><glyph d="M190 800 351 592H248L142 719L35 592H-68L93 800ZM-13 -123Q14 -123 33.5 -118Q53 -113 65.5 -99.5Q78 -86 84.5 -62Q91 -38 91 0V530H191V-7Q191 -46 183.5 -83Q176 -120 154 -148.5Q132 -177 92 -194Q52 -211 -12 -211Q-34 -211 -54 -208Q-74 -205 -87 -200L-77 -110Q-69 -115 -52 -119Q-35 -123 -13 -123Z" glyph-name="jcircumflex" horiz-adv-x="273" unicode="&#309;" /><glyph d="M167 321H246L435 530H560L332 281L590 0H465L248 240H167V0H67V788L167 812Z" glyph-name="k" horiz-adv-x="593" unicode="k" /><glyph d="M371 -62 322 -200H229L247 -62ZM167 321H246L435 530H560L332 281L590 0H465L248 240H167V0H67V788L167 812Z" glyph-name="kcommaaccent" horiz-adv-x="589" unicode="&#311;" /><glyph d="M167 321H246L435 530H560L332 281L590 0H465L248 240H167V0H67V530H167Z" glyph-name="kgreenlandic" horiz-adv-x="593" unicode="&#312;" /><glyph d="M86 788 186 812V112Q186 74 227 74Q236 74 247.5 77Q259 80 264 83V1Q257 -4 241 -8Q225 -12 197 -12Q174 -12 154 -6Q134 0 119 13Q104 26 95 47Q86 68 86 99Z" glyph-name="l" horiz-adv-x="295" unicode="l" /><glyph d="M86 788 187 812V112Q187 74 228 74Q237 74 248.5 77Q260 80 265 83V1Q258 -4 241.5 -8Q225 -12 197 -12Q174 -12 154 -6Q134 0 119 13Q104 26 95 47Q86 68 86 99ZM304 1030 187 822H87L186 1030Z" glyph-name="lacute" horiz-adv-x="295" unicode="&#314;" /><glyph d="M86 788 187 812V112Q187 74 228 74Q237 74 248.5 77Q260 80 265 83V1Q258 -4 241.5 -8Q225 -12 197 -12Q174 -12 154 -6Q134 0 119 13Q104 26 95 47Q86 68 86 99ZM397 800 324 592H234L283 800Z" glyph-name="lcaron" horiz-adv-x="295" unicode="&#318;" /><glyph d="M86 788 187 812V112Q187 74 228 74Q237 74 248.5 77Q260 80 265 83V1Q258 -4 241.5 -8Q225 -12 197 -12Q174 -12 154 -6Q134 0 119 13Q104 26 95 47Q86 68 86 99ZM198 -62 149 -200H56L74 -62Z" glyph-name="lcommaaccent" horiz-adv-x="295" unicode="&#316;" /><glyph d="M257 390Q257 419 277.5 439.5Q298 460 327 460Q356 460 376.5 439.5Q397 419 397 390Q397 361 376.5 340.5Q356 320 327 320Q298 320 277.5 340.5Q257 361 257 390ZM86 788 187 812V112Q187 74 228 74Q237 74 248.5 77Q260 80 265 83V1Q258 -4 241.5 -8Q225 -12 197 -12Q174 -12 154 -6Q134 0 119 13Q104 26 95 47Q86 68 86 99Z" glyph-name="ldot" horiz-adv-x="395" unicode="&#320;" /><glyph d="M196 390 322 340 655 201V99L85 343V437L655 681V579L322 440Z" glyph-name="less" horiz-adv-x="740" unicode="&lt;" /><glyph d="M156 390 300 330 867 88V-12L42 343V437L867 792V692L300 450Z" glyph-name="less.cap" horiz-adv-x="909" unicode="&#58774;" /><glyph d="M225 459 316 440 655 351V250L85 407V510L655 677V576L316 480L225 460ZM85 270V350L655 184V102Z" glyph-name="lessequal" horiz-adv-x="740" unicode="&#8804;" /><glyph d="M168 467V543Q168 654 235.5 715Q303 776 438 776Q507 776 554 762Q601 748 630.5 723.5Q660 699 674 666Q688 633 691 596L588 584Q585 606 576 625.5Q567 645 549.5 659Q532 673 504.5 681Q477 689 438 688Q350 687 309 653Q268 619 268 550V467H523V391H268V339H523V263H268V89H691V0H52V89H168V263H51V339H168V391H51V467Z" glyph-name="lira" horiz-adv-x="747" unicode="&#8356;" /><glyph d="M468 529V237H369V435H50V529Z" glyph-name="logicalnot" horiz-adv-x="518" unicode="&#172;" /><glyph d="M21 0V90H307V0Z" glyph-name="lowline" horiz-adv-x="328" unicode="&#58641;" /><glyph d="M87 390 476 792 865 390 476 -12ZM727 390 476 656 224 390 476 124Z" glyph-name="lozenge" horiz-adv-x="951" unicode="&#9674;" /><glyph d="M110 334 33 288V373L110 419V776L211 800V479L312 540V455L211 394V112Q211 74 252 74Q261 74 272.5 77Q284 80 289 83V1Q282 -4 265.5 -8Q249 -12 221 -12Q198 -12 178 -6Q158 0 143 13Q128 26 119 47Q110 68 110 99Z" glyph-name="lslash" horiz-adv-x="327" unicode="&#322;" /><glyph d="M768 349Q768 453 659 453Q630 453 606 441.5Q582 430 564 412Q546 394 535 372Q524 350 520 329V0H419V349Q419 453 309 453Q280 453 256 441.5Q232 430 214 412Q196 394 184.5 372Q173 350 169 329V0H69V530H153L166 455Q193 496 235 519Q277 542 328 542Q394 542 438 516.5Q482 491 500 444Q530 494 577.5 518Q625 542 675 542Q767 542 818.5 495.5Q870 449 870 362V0H768Z" glyph-name="m" horiz-adv-x="929" unicode="m" /><glyph d="M165 652V742H469V652Z" glyph-name="macron" horiz-adv-x="634" unicode="&#175;" /><glyph d="M165 882V972H469V882Z" glyph-name="macron.cap" horiz-adv-x="634" unicode="&#58405;" /><glyph d="M95 265Q95 322 118 372Q141 422 180.5 459.5Q220 497 273 518.5Q326 540 386 540Q446 540 499 518.5Q552 497 591 459.5Q630 422 653 372Q676 322 676 265Q676 208 653 158Q630 108 591 70.5Q552 33 499 11.5Q446 -10 386 -10Q326 -10 273 11.5Q220 33 180.5 70.5Q141 108 118 158Q95 208 95 265Z" glyph-name="mediumblackcircle" horiz-adv-x="772" unicode="&#9899;" /><glyph d="M569 265Q569 302 554.5 334.5Q540 367 515 390.5Q490 414 456.5 427.5Q423 441 386 441Q348 441 314.5 427.5Q281 414 256.5 390.5Q232 367 217.5 334.5Q203 302 203 265Q203 227 217.5 195Q232 163 256.5 139.5Q281 116 314.5 102.5Q348 89 386 89Q423 89 456.5 102.5Q490 116 515 139.5Q540 163 554.5 195Q569 227 569 265ZM95 265Q95 322 118 372Q141 422 180.5 459.5Q220 497 273 518.5Q326 540 386 540Q446 540 499 518.5Q552 497 591 459.5Q630 422 653 372Q676 322 676 265Q676 208 653 158Q630 108 591 70.5Q552 33 499 11.5Q446 -10 386 -10Q326 -10 273 11.5Q220 33 180.5 70.5Q141 108 118 158Q95 208 95 265Z" glyph-name="mediumwhitecircle" horiz-adv-x="772" unicode="&#9898;" /><glyph d="M85 343V437H655V343Z" glyph-name="minus" horiz-adv-x="740" unicode="&#8722;" /><glyph d="M42 437H867V343H42Z" glyph-name="minus.cap" horiz-adv-x="909" unicode="&#58770;" /><glyph d="M38 -34V60H367V-34Z" glyph-name="minus.inf" horiz-adv-x="408" unicode="&#58748;" /><glyph d="M300 390 92 586 163 653 370 456 577 653 648 586 440 390 648 194 577 127 370 324 163 127 92 194Z" glyph-name="multiply" horiz-adv-x="740" unicode="&#215;" /><glyph d="M385 390 30 725 100 792 455 456 809 792 879 725 524 390 879 55 809 -12 455 324 100 -12 30 55Z" glyph-name="multiply.cap" horiz-adv-x="909" unicode="&#58771;" /><glyph d="M122 58Q157 71 202 95Q247 119 287 154.5Q327 190 354.5 236.5Q382 283 382 343Q382 368 376.5 390.5Q371 413 358 429.5Q345 446 325 456Q305 466 275 466Q243 466 216 454Q189 442 169 423.5Q149 405 136.5 381.5Q124 358 122 335ZM465 351Q465 280 429.5 217Q394 154 336 102.5Q278 51 204 13.5Q130 -24 53 -45V821H122V458Q133 477 151 492.5Q169 508 190 519Q211 530 234 536.5Q257 543 279 543Q377 543 421 495Q465 447 465 351Z" glyph-name="musicflatsign" horiz-adv-x="494" unicode="&#9837;" /><glyph d="M122 266 244 359V513L122 421ZM53 830H122V535L313 681V-50H244V244L53 99Z" glyph-name="musicnaturalsign" horiz-adv-x="366" unicode="&#59753;" /><glyph d="M178 266 300 359V513L178 421ZM369 681 464 753V638L369 566V412L464 484V369L369 297V0H300V244L178 152V-100H109V99L14 27V142L109 214V368L14 296V411L109 483V780H178V535L300 628V880H369Z" glyph-name="musicsharpsign" horiz-adv-x="477" unicode="&#9839;" /><glyph d="M166 455Q194 494 241.5 518Q289 542 347 542Q393 542 432.5 530.5Q472 519 500.5 496Q529 473 545.5 439.5Q562 406 562 363V0H461V346Q461 399 425.5 426Q390 453 332 453Q297 453 268.5 441Q240 429 219 411Q198 393 185 371Q172 349 169 328V0H69V530H153Z" glyph-name="n" horiz-adv-x="620" unicode="n" /><glyph d="M166 455Q194 494 241.5 518Q289 542 347 542Q393 542 432.5 530.5Q472 519 500.5 496Q529 473 545.5 439.5Q562 406 562 363V0H461V346Q461 399 425.5 426Q390 453 332 453Q297 453 268.5 441Q240 429 219 411Q198 393 185 371Q172 349 169 328V0H69V530H153ZM484 800 367 592H266L366 800Z" glyph-name="nacute" horiz-adv-x="620" unicode="&#324;" /><glyph d="M166 455Q194 494 241.5 518Q289 542 347 542Q393 542 432.5 530.5Q472 519 500.5 496Q529 473 545.5 439.5Q562 406 562 363V0H461V346Q461 399 425.5 426Q390 453 332 453Q297 453 268.5 441Q240 429 219 411Q198 393 185 371Q172 349 169 328V0H69V530H153ZM267 592 107 800H209L316 673L423 800H525L365 592Z" glyph-name="ncaron" horiz-adv-x="620" unicode="&#328;" /><glyph d="M166 455Q194 494 241.5 518Q289 542 347 542Q393 542 432.5 530.5Q472 519 500.5 496Q529 473 545.5 439.5Q562 406 562 363V0H461V346Q461 399 425.5 426Q390 453 332 453Q297 453 268.5 441Q240 429 219 411Q198 393 185 371Q172 349 169 328V0H69V530H153ZM376 -62 328 -200H235L253 -62Z" glyph-name="ncommaaccent" horiz-adv-x="620" unicode="&#326;" /><glyph d="M178 519Q178 473 191 441Q204 409 227.5 389Q251 369 283.5 360Q316 351 354 351Q395 351 431 362Q467 373 494 394.5Q521 416 537 448Q553 480 553 523Q553 528 553 534Q553 540 552 550Q532 622 485.5 654Q439 686 365 686Q326 686 292 677Q258 668 232.5 648Q207 628 192.5 596Q178 564 178 519ZM161 179Q181 128 222.5 103.5Q264 79 337 79Q386 79 428.5 93Q471 107 502 138.5Q533 170 551 221.5Q569 273 569 347H567Q546 321 519.5 303.5Q493 286 463 275.5Q433 265 402.5 261Q372 257 344 257Q281 257 230 274.5Q179 292 143 325.5Q107 359 87.5 408Q68 457 68 519Q68 581 90 629Q112 677 150.5 709.5Q189 742 241.5 759Q294 776 356 776Q518 776 593.5 677Q669 578 669 377Q669 279 646 206.5Q623 134 579.5 85Q536 36 474 12Q412 -12 334 -12Q281 -12 238.5 -0.5Q196 11 163 31Q130 51 107 77.5Q84 104 71 135Z" glyph-name="nine" horiz-adv-x="740" unicode="9" /><glyph d="M178 519Q178 473 191 441Q204 409 227.5 389Q251 369 283.5 360Q316 351 354 351Q395 351 431 362Q467 373 494 394.5Q521 416 537 448Q553 480 553 523Q553 528 553 534Q553 540 552 550Q532 622 485.5 654Q439 686 365 686Q326 686 292 677Q258 668 232.5 648Q207 628 192.5 596Q178 564 178 519ZM161 179Q181 128 222.5 103.5Q264 79 337 79Q386 79 428.5 93Q471 107 502 138.5Q533 170 551 221.5Q569 273 569 347H567Q546 321 519.5 303.5Q493 286 463 275.5Q433 265 402.5 261Q372 257 344 257Q281 257 230 274.5Q179 292 143 325.5Q107 359 87.5 408Q68 457 68 519Q68 581 90 629Q112 677 150.5 709.5Q189 742 241.5 759Q294 776 356 776Q518 776 593.5 677Q669 578 669 377Q669 279 646 206.5Q623 134 579.5 85Q536 36 474 12Q412 -12 334 -12Q281 -12 238.5 -0.5Q196 11 163 31Q130 51 107 77.5Q84 104 71 135Z" glyph-name="nine.LP" horiz-adv-x="740" unicode="&#58686;" /><glyph d="M207 2Q242 2 266 19.5Q290 37 290 72Q289 103 266 118Q243 133 214 133Q183 133 161.5 118Q140 103 140 68Q140 33 158.5 18Q177 3 207 2ZM200 -136Q220 -136 238 -130.5Q256 -125 269 -113Q282 -101 290 -81Q298 -61 298 -32Q281 -51 255 -59.5Q229 -68 196 -68Q49 -68 49 68Q49 104 61 130.5Q73 157 94.5 174.5Q116 192 145.5 200.5Q175 209 211 209Q303 209 345 157.5Q387 106 387 -3Q387 -109 338.5 -160.5Q290 -212 199 -212Q129 -212 91 -181.5Q53 -151 48 -100L138 -93Q143 -113 158 -124Q173 -135 200 -136Z" glyph-name="nine.inf" horiz-adv-x="444" unicode="&#58746;" /><glyph glyph-name="nonbreakingspace" horiz-adv-x="243" unicode="&#160;" /><glyph d="M226 248H85V342H289L352 438H85V532H414L482 634H581L514 532H655V438H451L388 342H645V248H326L258 146H159Z" glyph-name="notequal" horiz-adv-x="740" unicode="&#8800;" /><glyph d="M166 455Q194 494 241.5 518Q289 542 347 542Q393 542 432.5 530.5Q472 519 500.5 496Q529 473 545.5 439.5Q562 406 562 363V0H461V346Q461 399 425.5 426Q390 453 332 453Q297 453 268.5 441Q240 429 219 411Q198 393 185 371Q172 349 169 328V0H69V530H153ZM235 696Q206 696 194.5 678.5Q183 661 180 642L99 653Q108 709 140 743.5Q172 778 240 778Q275 778 299 765.5Q323 753 341.5 738Q360 723 377 710.5Q394 698 414 698Q443 698 454.5 715.5Q466 733 469 752L550 741Q541 685 508.5 650.5Q476 616 409 616Q374 616 350 628.5Q326 641 307.5 656Q289 671 272 683.5Q255 696 235 696Z" glyph-name="ntilde" horiz-adv-x="620" unicode="&#241;" /><glyph d="M262 283H420L474 481H316ZM239 571 292 764H393L340 571H498L551 764H652L599 571H700V481H575L522 283H624V193H497L445 0H342L395 193H238L186 0H84L136 193H37V283H161L215 481H112V571Z" glyph-name="numbersign" horiz-adv-x="736" unicode="#" /><glyph d="M993 58Q993 87 1013.5 107.5Q1034 128 1063 128Q1092 128 1112.5 107.5Q1133 87 1133 58Q1133 29 1112.5 8.5Q1092 -12 1063 -12Q1034 -12 1013.5 8.5Q993 29 993 58ZM1063 308Q1100 308 1130 319Q1160 330 1181.5 353Q1203 376 1214.5 412Q1226 448 1226 499Q1226 550 1214.5 586Q1203 622 1181.5 645Q1160 668 1130 679Q1100 690 1063 690Q990 690 945.5 645Q901 600 901 499Q901 398 945.5 353Q990 308 1063 308ZM275 448 188 576 191 391V0H86V764H182L483 316L570 188L567 373L565 764H672V0H576ZM1063 222Q1002 222 953.5 239.5Q905 257 870.5 291.5Q836 326 817.5 378Q799 430 799 499Q799 568 817.5 620Q836 672 870.5 706.5Q905 741 953.5 758.5Q1002 776 1063 776Q1124 776 1173 758.5Q1222 741 1256.5 706.5Q1291 672 1309.5 620Q1328 568 1328 499Q1328 430 1309.5 378Q1291 326 1256.5 291.5Q1222 257 1173 239.5Q1124 222 1063 222Z" glyph-name="numero" horiz-adv-x="1375" unicode="&#8470;" /><glyph d="M312 -12Q190 -12 119 57Q48 126 48 265Q48 404 119 473Q190 542 312 542Q434 542 505 473Q576 404 576 265Q576 126 505 57Q434 -12 312 -12ZM312 74Q385 74 430 119Q475 164 475 265Q475 366 430 411Q385 456 312 456Q239 456 194 411Q149 366 149 265Q149 164 194 119Q239 74 312 74Z" glyph-name="o" horiz-adv-x="624" unicode="o" /><glyph d="M312 -12Q190 -12 119 57Q48 126 48 265Q48 404 119 473Q190 542 312 542Q434 542 505 473Q576 404 576 265Q576 126 505 57Q434 -12 312 -12ZM312 74Q385 74 430 119Q475 164 475 265Q475 366 430 411Q385 456 312 456Q239 456 194 411Q149 366 149 265Q149 164 194 119Q239 74 312 74ZM480 800 363 592H262L361 800Z" glyph-name="oacute" horiz-adv-x="624" unicode="&#243;" /><glyph d="M312 -12Q190 -12 119 57Q48 126 48 265Q48 404 119 473Q190 542 312 542Q434 542 505 473Q576 404 576 265Q576 126 505 57Q434 -12 312 -12ZM312 74Q385 74 430 119Q475 164 475 265Q475 366 430 411Q385 456 312 456Q239 456 194 411Q149 366 149 265Q149 164 194 119Q239 74 312 74ZM312 595Q256 595 218 608.5Q180 622 156.5 648.5Q133 675 123.5 713Q114 751 114 800H197Q196 733 223 706Q250 679 312 679Q373 679 400.5 706Q428 733 427 800H509Q510 751 500.5 713Q491 675 467.5 648.5Q444 622 406 608.5Q368 595 312 595Z" glyph-name="obreve" horiz-adv-x="624" unicode="&#335;" /><glyph d="M312 -12Q190 -12 119 57Q48 126 48 265Q48 404 119 473Q190 542 312 542Q434 542 505 473Q576 404 576 265Q576 126 505 57Q434 -12 312 -12ZM312 74Q385 74 430 119Q475 164 475 265Q475 366 430 411Q385 456 312 456Q239 456 194 411Q149 366 149 265Q149 164 194 119Q239 74 312 74ZM360 800 521 592H419L312 719L205 592H103L263 800Z" glyph-name="ocircumflex" horiz-adv-x="624" unicode="&#244;" /><glyph d="M347 696Q347 725 367.5 745.5Q388 766 417 766Q446 766 466.5 745.5Q487 725 487 696Q487 667 466.5 646.5Q446 626 417 626Q388 626 367.5 646.5Q347 667 347 696ZM137 696Q137 725 157.5 745.5Q178 766 207 766Q236 766 256.5 745.5Q277 725 277 696Q277 667 256.5 646.5Q236 626 207 626Q178 626 157.5 646.5Q137 667 137 696ZM312 -12Q190 -12 119 57Q48 126 48 265Q48 404 119 473Q190 542 312 542Q434 542 505 473Q576 404 576 265Q576 126 505 57Q434 -12 312 -12ZM312 74Q385 74 430 119Q475 164 475 265Q475 366 430 411Q385 456 312 456Q239 456 194 411Q149 366 149 265Q149 164 194 119Q239 74 312 74Z" glyph-name="odieresis" horiz-adv-x="624" unicode="&#246;" /><glyph d="M577 226Q580 185 595.5 156Q611 127 634 108.5Q657 90 686 81Q715 72 745 72Q779 72 804.5 80Q830 88 848 102Q866 116 878.5 135Q891 154 899 175L985 136Q974 108 956 81.5Q938 55 909.5 34Q881 13 841.5 0.5Q802 -12 747 -12Q671 -12 614.5 12Q558 36 527 82Q491 34 436.5 11Q382 -12 312 -12Q190 -12 119 57Q48 126 48 265Q48 404 119 473Q190 542 312 542Q382 542 436 519Q490 496 524 450Q559 496 613 519Q667 542 738 542Q866 542 927.5 470.5Q989 399 989 266V226ZM739 459Q670 459 627 422.5Q584 386 578 307H880Q878 381 843.5 420.5Q809 460 739 459ZM312 76Q385 76 428 120Q471 164 471 265Q471 366 428 410Q385 454 312 454Q239 454 195.5 410Q152 366 152 265Q152 164 195.5 120Q239 76 312 76Z" glyph-name="oe" horiz-adv-x="1040" unicode="&#339;" /><glyph d="M535 0Q508 -3 484 -12.5Q460 -22 441.5 -35.5Q423 -49 412.5 -65.5Q402 -82 402 -99Q402 -117 413 -128Q424 -139 450 -139Q462 -139 475 -136.5Q488 -134 498.5 -130.5Q509 -127 516 -124Q523 -121 523 -120L546 -187Q529 -197 501.5 -204.5Q474 -212 439 -212Q415 -212 392.5 -206.5Q370 -201 352.5 -188.5Q335 -176 325 -156.5Q315 -137 315 -108Q315 -80 329.5 -53.5Q344 -27 370.5 -5Q397 17 433.5 34Q470 51 514 62Z" glyph-name="ogonek" horiz-adv-x="634" unicode="&#731;" /><glyph d="M312 -12Q190 -12 119 57Q48 126 48 265Q48 404 119 473Q190 542 312 542Q434 542 505 473Q576 404 576 265Q576 126 505 57Q434 -12 312 -12ZM312 74Q385 74 430 119Q475 164 475 265Q475 366 430 411Q385 456 312 456Q239 456 194 411Q149 366 149 265Q149 164 194 119Q239 74 312 74ZM270 800 369 592H268L151 800Z" glyph-name="ograve" horiz-adv-x="624" unicode="&#242;" /><glyph d="M370 682Q316 682 274 665.5Q232 649 202.5 618.5Q173 588 157.5 545Q142 502 142 448Q142 392 159 336Q176 280 203 230Q230 180 263.5 139Q297 98 330 72V0H19V93H110L198 92Q166 123 136 164.5Q106 206 83 253.5Q60 301 46 352.5Q32 404 32 455Q32 527 54.5 586.5Q77 646 120.5 688Q164 730 226.5 753Q289 776 370 776Q451 776 513.5 753Q576 730 619.5 688Q663 646 685.5 586.5Q708 527 708 455Q708 404 694 352.5Q680 301 657 253.5Q634 206 604 164.5Q574 123 542 92L630 93H721V0H410V72Q443 98 476.5 139Q510 180 537 230Q564 280 581 336Q598 392 598 448Q598 502 582.5 545Q567 588 537.5 618.5Q508 649 466 665.5Q424 682 370 682Z" glyph-name="ohm" horiz-adv-x="740" unicode="&#59425;" /><glyph d="M312 -12Q190 -12 119 57Q48 126 48 265Q48 404 119 473Q190 542 312 542Q434 542 505 473Q576 404 576 265Q576 126 505 57Q434 -12 312 -12ZM312 74Q385 74 430 119Q475 164 475 265Q475 366 430 411Q385 456 312 456Q239 456 194 411Q149 366 149 265Q149 164 194 119Q239 74 312 74ZM562 800 445 592H345L444 800ZM393 800 276 592H175L275 800Z" glyph-name="ohungarumlaut" horiz-adv-x="624" unicode="&#337;" /><glyph d="M312 -12Q190 -12 119 57Q48 126 48 265Q48 404 119 473Q190 542 312 542Q434 542 505 473Q576 404 576 265Q576 126 505 57Q434 -12 312 -12ZM312 74Q385 74 430 119Q475 164 475 265Q475 366 430 411Q385 456 312 456Q239 456 194 411Q149 366 149 265Q149 164 194 119Q239 74 312 74ZM160 652V742H464V652Z" glyph-name="omacron" horiz-adv-x="624" unicode="&#333;" /><glyph d="M120 0V90H342V630Q301 592 239.5 563.5Q178 535 106 518V614Q152 626 188 642Q224 658 254 678Q284 698 309.5 722Q335 746 359 776H445V90H671V0Z" glyph-name="one" horiz-adv-x="740" unicode="1" /><glyph d="M80 0V90H302V630Q261 592 199.5 563.5Q138 535 66 518V614Q112 626 148 642Q184 658 214 678Q244 698 269.5 722Q295 746 319 776H405V90H631V0Z" glyph-name="one.LP" horiz-adv-x="655" unicode="&#58678;" /><glyph d="M181 -121V88Q157 69 122.5 57.5Q88 46 48 39V122Q93 131 130 152.5Q167 174 199 209H270V-121H391V-200H59V-121Z" glyph-name="one.inf" horiz-adv-x="423" unicode="&#58738;" /><glyph d="M181 446V655Q157 636 122.5 624.5Q88 613 48 606V689Q93 698 130 719.5Q167 741 199 776H270V446H391V367H59V446ZM880 409Q914 409 944 401Q974 393 996.5 377.5Q1019 362 1031.5 338Q1044 314 1044 282Q1044 250 1032.5 229.5Q1021 209 1002 195Q983 181 958 171.5Q933 162 906 153Q864 138 836 121Q808 104 801 77L894 79H1053V0H704Q703 55 714.5 90.5Q726 126 747.5 149.5Q769 173 799.5 187.5Q830 202 868 216Q912 233 934 245Q956 257 956 281Q956 296 949 305.5Q942 315 931.5 321Q921 327 908 329Q895 331 883 331Q843 331 822 319Q801 307 796 275L705 282Q717 409 880 409ZM777 764H888L340 0H230Z" glyph-name="onehalf" horiz-adv-x="1100" unicode="&#189;" /><glyph d="M842 239 843 279 756 157H842ZM181 446V655Q157 636 122.5 624.5Q88 613 48 606V689Q93 698 130 719.5Q167 741 199 776H270V446H391V367H59V446ZM931 78V0H842V78H649V137L854 409H931V157H1005V78ZM340 0H230L778 764H888Z" glyph-name="onequarter" horiz-adv-x="1040" unicode="&#188;" /><glyph d="M181 446V655Q157 636 122.5 624.5Q88 613 48 606V689Q93 698 130 719.5Q167 741 199 776H270V446H391V367H59V446Z" glyph-name="onesuperior" horiz-adv-x="423" unicode="&#185;" /><glyph d="M299 290H53V380H299Z" glyph-name="onethirdemdash" horiz-adv-x="352" unicode="&#58481;" /><glyph d="M299 345H53V435H299Z" glyph-name="onethirdemdash.cap" horiz-adv-x="352" unicode="&#58499;" /><glyph d="M124 500Q124 451 190 451Q216 451 238 458.5Q260 466 276.5 477.5Q293 489 304 504Q315 519 319 534V574Q290 569 259.5 564.5Q229 560 200 555Q162 549 143 538Q124 527 124 500ZM226 716Q180 716 157 700.5Q134 685 123 658L46 694Q53 714 66 732Q79 750 99.5 763Q120 776 150.5 783.5Q181 791 224 791Q312 791 361.5 755Q411 719 411 644V483Q411 456 439 456Q446 456 452 457.5Q458 459 462 461V387Q455 384 443.5 380.5Q432 377 413 377Q380 377 355 389.5Q330 402 322 437Q298 408 260 392.5Q222 377 176 377Q98 377 63 410Q28 443 28 497Q28 528 39.5 549.5Q51 571 71.5 585.5Q92 600 121.5 608Q151 616 187 621L319 639V650Q319 685 295.5 700Q272 715 226 716Z" glyph-name="ordfeminine" horiz-adv-x="475" unicode="&#170;" /><glyph d="M248 378Q155 378 101 430.5Q47 483 47 585Q47 687 101 739.5Q155 792 248 792Q342 792 396 739.5Q450 687 450 585Q450 483 396 430.5Q342 378 248 378ZM248 456Q299 456 329 486Q359 516 359 585Q359 654 329 684Q299 714 248 714Q197 714 167 684Q137 654 137 585Q137 516 167 486Q197 456 248 456Z" glyph-name="ordmasculine" horiz-adv-x="497" unicode="&#186;" /><glyph d="M312 74Q385 74 430 119Q475 164 475 265Q475 305 467.5 336Q460 367 446 389L244 86Q272 74 312 74ZM312 456Q239 456 194 411Q149 366 149 265Q149 225 156.5 194Q164 163 178 141L380 444Q351 456 312 456ZM312 -12Q190 -12 119 57Q48 126 48 265Q48 404 119 473Q190 542 312 542Q434 542 505 473Q576 404 576 265Q576 126 505 57Q434 -12 312 -12Z" glyph-name="oslash" horiz-adv-x="624" unicode="&#248;" /><glyph d="M227 696Q213 696 203 691Q193 686 187 678.5Q181 671 177.5 661Q174 651 172 642L92 653Q101 709 133 743.5Q165 778 233 778Q268 778 292 765.5Q316 753 334.5 738Q353 723 370 710.5Q387 698 407 698Q436 698 447.5 715.5Q459 733 462 752L542 741Q534 685 501.5 650.5Q469 616 402 616Q367 616 343 628.5Q319 641 300 656Q281 671 264 683.5Q247 696 227 696ZM312 -12Q190 -12 119 57Q48 126 48 265Q48 404 119 473Q190 542 312 542Q434 542 505 473Q576 404 576 265Q576 126 505 57Q434 -12 312 -12ZM312 74Q385 74 430 119Q475 164 475 265Q475 366 430 411Q385 456 312 456Q239 456 194 411Q149 366 149 265Q149 164 194 119Q239 74 312 74Z" glyph-name="otilde" horiz-adv-x="624" unicode="&#245;" /><glyph d="M169 202Q172 181 185 158.5Q198 136 220 118Q242 100 271.5 88.5Q301 77 337 77Q409 77 452 125Q495 173 495 265Q495 358 452 405.5Q409 453 337 453Q301 453 271.5 441.5Q242 430 220 412Q198 394 185 372Q172 350 169 328ZM347 -12Q290 -12 243 10.5Q196 33 169 71V-200H69V530H153L166 454Q192 495 240.5 518.5Q289 542 347 542Q469 542 534 470.5Q599 399 599 265Q599 131 534 59.5Q469 -12 347 -12Z" glyph-name="p" horiz-adv-x="646" unicode="p" /><glyph d="M505 0V688H431V0H357V313H305Q255 313 207 323.5Q159 334 120.5 360Q82 386 58.5 431.5Q35 477 35 547Q35 617 59 662Q83 707 121.5 733.5Q160 760 208.5 770Q257 780 307 780H611V0Z" glyph-name="paragraph" horiz-adv-x="696" unicode="&#182;" /><glyph d="M154 350Q154 216 181 100Q208 -16 264 -130H164Q140 -91 119 -39Q98 13 82 75Q66 137 57 206.5Q48 276 48 350Q48 423 57 493Q66 563 82 625Q98 687 119 739Q140 791 164 830H264Q208 716 181 599.5Q154 483 154 350Z" glyph-name="parenleft" horiz-adv-x="278" unicode="(" /><glyph d="M154 390Q154 256 181 140Q208 24 264 -90H164Q140 -51 119 1Q98 53 82 115Q66 177 57 246.5Q48 316 48 390Q48 463 57 533Q66 603 82 665Q98 727 119 779Q140 831 164 870H264Q208 756 181 639.5Q154 523 154 390Z" glyph-name="parenleft.cap" horiz-adv-x="278" unicode="&#58513;" /><glyph d="M153 0Q153 -66 167.5 -134Q182 -202 205 -253H120Q96 -204 78 -141.5Q60 -79 60 0Q60 79 78 141.5Q96 204 120 253H205Q182 202 167.5 134Q153 66 153 0Z" glyph-name="parenleft.inf" horiz-adv-x="255" unicode="&#58750;" /><glyph d="M124 350Q124 483 96.5 599.5Q69 716 14 830H114Q138 791 159 739Q180 687 196 625Q212 563 221 493Q230 423 230 350Q230 276 221 206.5Q212 137 196 75Q180 13 159 -39Q138 -91 114 -130H14Q69 -16 96.5 100Q124 216 124 350Z" glyph-name="parenright" horiz-adv-x="278" unicode=")" /><glyph d="M124 390Q124 523 96.5 639.5Q69 756 14 870H114Q138 831 159 779Q180 727 196 665Q212 603 221 533Q230 463 230 390Q230 316 221 246.5Q212 177 196 115Q180 53 159 1Q138 -51 114 -90H14Q69 24 96.5 140Q124 256 124 390Z" glyph-name="parenright.cap" horiz-adv-x="278" unicode="&#58514;" /><glyph d="M101 0Q101 66 87 134Q73 202 50 253H134Q159 204 176.5 141.5Q194 79 194 0Q194 -79 176.5 -141.5Q159 -204 134 -253H50Q73 -202 87 -134Q101 -66 101 0Z" glyph-name="parenright.inf" horiz-adv-x="255" unicode="&#58751;" /><glyph d="M560 411Q557 547 487.5 617Q418 687 296 687Q251 687 207 676Q163 665 129 644L87 720Q101 729 121 738.5Q141 748 166.5 756.5Q192 765 224 770.5Q256 776 295 776Q378 776 445.5 752.5Q513 729 560.5 681Q608 633 634 560Q660 487 661 387Q661 185 585.5 86.5Q510 -12 348 -12Q286 -12 233 5Q180 22 141.5 54.5Q103 87 81 135Q59 183 59 245Q59 307 78.5 356Q98 405 134 438.5Q170 472 221 489.5Q272 507 335 507Q408 507 469.5 483Q531 459 560 411ZM169 245Q169 200 183.5 168Q198 136 223.5 116Q249 96 283 87Q317 78 356 78Q431 78 477 110Q523 142 543 214Q544 224 544 230Q544 236 544 241Q544 284 528.5 316Q513 348 486 369.5Q459 391 423 402Q387 413 346 413Q307 413 274.5 404Q242 395 218.5 375Q195 355 182 323Q169 291 169 245Z" glyph-name="partialdiff" horiz-adv-x="728" unicode="&#8706;" /><glyph d="M890 409Q937 409 975.5 396Q1014 383 1042 357Q1070 331 1085 291.5Q1100 252 1100 199Q1100 146 1085 106Q1070 66 1042 40Q1014 14 975.5 1Q937 -12 890 -12Q843 -12 804.5 1Q766 14 738.5 40Q711 66 695.5 106Q680 146 680 199Q680 252 695.5 291.5Q711 331 738.5 357Q766 383 804.5 396Q843 409 890 409ZM890 68Q942 68 975.5 97.5Q1009 127 1009 199Q1009 270 975.5 299.5Q942 329 890 329Q838 329 804.5 299.5Q771 270 771 199Q771 127 804.5 97.5Q838 68 890 68ZM268 355Q221 355 182.5 368Q144 381 116.5 407Q89 433 73.5 472.5Q58 512 58 565Q58 618 73.5 657.5Q89 697 116.5 723.5Q144 750 182.5 763Q221 776 268 776Q314 776 353 763Q392 750 420 723.5Q448 697 463.5 657.5Q479 618 479 565Q479 512 463.5 472.5Q448 433 420 407Q392 381 353 368Q314 355 268 355ZM268 696Q217 696 183 666.5Q149 637 149 565Q149 494 183 464.5Q217 435 268 435Q320 435 354 464.5Q388 494 388 565Q388 637 354 666.5Q320 696 268 696ZM360 0H251L798 764H908Z" glyph-name="percent" horiz-adv-x="1158" unicode="%" /><glyph d="M57 58Q57 87 77.5 107.5Q98 128 127 128Q156 128 176.5 107.5Q197 87 197 58Q197 29 176.5 8.5Q156 -12 127 -12Q98 -12 77.5 8.5Q57 29 57 58Z" glyph-name="period" horiz-adv-x="254" unicode="." /><glyph d="M57 335Q57 364 77.5 384.5Q98 405 127 405Q156 405 176.5 384.5Q197 364 197 335Q197 306 176.5 285.5Q156 265 127 265Q98 265 77.5 285.5Q57 306 57 335Z" glyph-name="periodcentered" horiz-adv-x="254" unicode="&#183;" /><glyph d="M57 390Q57 419 77.5 439.5Q98 460 127 460Q156 460 176.5 439.5Q197 419 197 390Q197 361 176.5 340.5Q156 320 127 320Q98 320 77.5 340.5Q57 361 57 390Z" glyph-name="periodcentered.cap" horiz-adv-x="254" unicode="&#58497;" /><glyph d="M1383 409Q1429 409 1468 396Q1507 383 1534.5 357Q1562 331 1577.5 291.5Q1593 252 1593 199Q1593 146 1577.5 106Q1562 66 1534.5 40Q1507 14 1468 1Q1429 -12 1383 -12Q1336 -12 1297.5 1Q1259 14 1231 40Q1203 66 1187.5 106Q1172 146 1172 199Q1172 252 1187.5 291.5Q1203 331 1231 357Q1259 383 1297.5 396Q1336 409 1383 409ZM1383 68Q1434 68 1468 97.5Q1502 127 1502 199Q1502 270 1468 299.5Q1434 329 1383 329Q1331 329 1297 299.5Q1263 270 1263 199Q1263 127 1297 97.5Q1331 68 1383 68ZM890 409Q937 409 975.5 396Q1014 383 1042 357Q1070 331 1085 291.5Q1100 252 1100 199Q1100 146 1085 106Q1070 66 1042 40Q1014 14 975.5 1Q937 -12 890 -12Q843 -12 804.5 1Q766 14 738.5 40Q711 66 695.5 106Q680 146 680 199Q680 252 695.5 291.5Q711 331 738.5 357Q766 383 804.5 396Q843 409 890 409ZM890 68Q942 68 975.5 97.5Q1009 127 1009 199Q1009 270 975.5 299.5Q942 329 890 329Q838 329 804.5 299.5Q771 270 771 199Q771 127 804.5 97.5Q838 68 890 68ZM268 355Q221 355 182.5 368Q144 381 116.5 407Q89 433 73.5 472.5Q58 512 58 565Q58 618 73.5 657.5Q89 697 116.5 723.5Q144 750 182.5 763Q221 776 268 776Q314 776 353 763Q392 750 420 723.5Q448 697 463.5 657.5Q479 618 479 565Q479 512 463.5 472.5Q448 433 420 407Q392 381 353 368Q314 355 268 355ZM268 696Q217 696 183 666.5Q149 637 149 565Q149 494 183 464.5Q217 435 268 435Q320 435 354 464.5Q388 494 388 565Q388 637 354 666.5Q320 696 268 696ZM360 0H251L798 764H908Z" glyph-name="perthousand" horiz-adv-x="1651" unicode="&#8240;" /><glyph d="M368 388Q391 388 417 393Q443 398 464.5 413Q486 428 500.5 456Q515 484 515 530Q515 576 500.5 604Q486 632 464.5 647Q443 662 417 667Q391 672 368 672H191V388ZM1255 72Q1283 73 1309.5 77Q1336 81 1357 90.5Q1378 100 1391 116Q1404 132 1404 156Q1404 180 1394 193.5Q1384 207 1365 214Q1346 221 1318 224Q1290 227 1254 231Q1218 235 1178 240.5Q1138 246 1104.5 260.5Q1071 275 1049.5 301.5Q1028 328 1028 374Q1028 420 1049 452Q1070 484 1103 504Q1136 524 1176 533Q1216 542 1255 542Q1370 542 1426.5 500.5Q1483 459 1494 384L1388 372Q1379 414 1349 436.5Q1319 459 1255 458Q1234 458 1212.5 454.5Q1191 451 1173 443Q1155 435 1143.5 420Q1132 405 1132 381Q1132 361 1142 349Q1152 337 1170 330Q1188 323 1213.5 320Q1239 317 1271 314Q1311 310 1353 305Q1395 300 1429.5 285Q1464 270 1486 241Q1508 212 1508 161Q1508 114 1485.5 81Q1463 48 1427 27.5Q1391 7 1346 -2.5Q1301 -12 1256 -12Q1192 -12 1147 1Q1102 14 1072 37Q1049 14 1012 1Q975 -12 919 -12Q854 -12 814.5 5.5Q775 23 752.5 51.5Q730 80 722.5 117Q715 154 715 193V449H614Q600 404 570.5 374.5Q541 345 503 327.5Q465 310 420 303Q375 296 329 296H191V0H85V764H329Q384 764 437.5 753.5Q491 743 533 716.5Q575 690 600.5 645Q626 600 626 530H715V672L815 688V530H986V449H815V199Q815 161 821.5 137.5Q828 114 840.5 100Q853 86 872.5 81Q892 76 919 76Q962 76 984.5 90.5Q1007 105 1012 147L1117 160Q1126 118 1157 94.5Q1188 71 1255 72Z" glyph-name="peseta" horiz-adv-x="1544" unicode="&#8359;" /><glyph d="M320 343H85V437H320V660H420V437H655V343H420V120H320Z" glyph-name="plus" horiz-adv-x="740" unicode="+" /><glyph d="M405 343H42V437H405V780H504V437H867V343H504V0H405Z" glyph-name="plus.cap" horiz-adv-x="909" unicode="&#58769;" /><glyph d="M153 -35H40V60H153V167H254V60H367V-35H254V-142H153Z" glyph-name="plus.inf" horiz-adv-x="408" unicode="&#58747;" /><glyph d="M85 138V232H655V138ZM320 433H85V527H320V660H420V527H655V433H420V300H320Z" glyph-name="plusminus" horiz-adv-x="740" unicode="&#177;" /><glyph d="M661 0H555V672H254V0H148V672H27V764H781V672H661Z" glyph-name="product" horiz-adv-x="809" unicode="&#8719;" /><glyph d="M147 390Q147 325 173 268.5Q199 212 243.5 170Q288 128 348 103.5Q408 79 476 79Q544 79 603.5 103.5Q663 128 707.5 170Q752 212 778 268.5Q804 325 804 390Q804 454 778 511Q752 568 707.5 610Q663 652 603.5 676.5Q544 701 476 701Q408 701 348 676.5Q288 652 243.5 610Q199 568 173 511Q147 454 147 390ZM401 146H309V634H517Q549 634 580.5 626.5Q612 619 637 601Q662 583 677.5 552.5Q693 522 693 476Q693 431 679.5 401.5Q666 372 643.5 354Q621 336 591 328Q561 320 528.5 317.5Q496 315 463 315.5Q430 316 401 316ZM518 402Q532 402 546 404.5Q560 407 571.5 415Q583 423 590.5 437.5Q598 452 598 476Q598 501 590 515.5Q582 530 570 537.5Q558 545 542.5 547Q527 549 512 549H401V402ZM51 390Q51 473 84.5 546Q118 619 175.5 673.5Q233 728 310.5 759.5Q388 791 476 791Q563 791 640.5 759.5Q718 728 775.5 673.5Q833 619 866.5 546Q900 473 900 390Q900 307 866.5 234Q833 161 775.5 106.5Q718 52 640.5 20.5Q563 -11 476 -11Q388 -11 310.5 20.5Q233 52 175.5 106.5Q118 161 84.5 234Q51 307 51 390Z" glyph-name="published" horiz-adv-x="951" unicode="&#8471;" /><glyph glyph-name="punctuationspace" horiz-adv-x="296" unicode="&#8200;" /><glyph d="M477 328Q474 350 461 372Q448 394 426 412Q404 430 374.5 441.5Q345 453 309 453Q236 453 193.5 405.5Q151 358 151 265Q151 173 193.5 125Q236 77 309 77Q345 77 374.5 88.5Q404 100 426 118Q448 136 461 158.5Q474 181 477 202ZM299 -12Q176 -12 111.5 59.5Q47 131 47 265Q47 399 111.5 470.5Q176 542 299 542Q357 542 405.5 518.5Q454 495 480 454L493 530H577V-200H477V71Q450 33 403 10.5Q356 -12 299 -12Z" glyph-name="q" horiz-adv-x="646" unicode="q" /><glyph d="M219 58Q219 87 239.5 107.5Q260 128 289 128Q318 128 338.5 107.5Q359 87 359 58Q359 29 338.5 8.5Q318 -12 289 -12Q260 -12 239.5 8.5Q219 29 219 58ZM236 205Q228 228 222 252.5Q216 277 216 299Q216 336 227.5 360Q239 384 256.5 400.5Q274 417 295.5 428Q317 439 338 448Q360 458 382.5 469.5Q405 481 424 496.5Q443 512 455 534Q467 556 467 587Q467 619 453.5 640.5Q440 662 418 675.5Q396 689 368 695Q340 701 310 701Q239 701 199.5 670Q160 639 135 572L44 616Q59 653 81 685Q103 717 135 741Q167 765 210 778.5Q253 792 310 792Q435 792 506 739Q577 686 577 588Q577 532 556.5 495Q536 458 507 434Q478 410 446.5 396Q415 382 392 373Q352 358 327 336.5Q302 315 302 274Q302 245 312 205Z" glyph-name="question" horiz-adv-x="641" unicode="?" /><glyph d="M308 -212Q250 -212 202.5 -199Q155 -186 120.5 -161Q86 -136 67 -99Q48 -62 48 -14Q48 39 67.5 72.5Q87 106 115 127.5Q143 149 173.5 161Q204 173 227 182Q245 189 260 196Q275 203 285.5 211.5Q296 220 302 231.5Q308 243 308 260Q308 272 305.5 287.5Q303 303 298 323H374Q382 303 387.5 280.5Q393 258 393 237Q393 198 378.5 174Q364 150 341.5 134Q319 118 290.5 107.5Q262 97 235 85Q220 78 205.5 69.5Q191 61 180 49.5Q169 38 162.5 22.5Q156 7 156 -14Q156 -48 170 -69Q184 -90 205.5 -101.5Q227 -113 254 -117Q281 -121 308 -121Q379 -121 418.5 -90Q458 -59 483 8L574 -36Q559 -73 537 -105Q515 -137 483 -161Q451 -185 408 -198.5Q365 -212 308 -212ZM391 470Q391 441 370.5 420.5Q350 400 321 400Q292 400 271.5 420.5Q251 441 251 470Q251 499 271.5 519.5Q292 540 321 540Q350 540 370.5 519.5Q391 499 391 470Z" glyph-name="questiondown" horiz-adv-x="590" unicode="&#191;" /><glyph d="M422 722Q422 693 401.5 672.5Q381 652 352 652Q323 652 302.5 672.5Q282 693 282 722Q282 751 302.5 771.5Q323 792 352 792Q381 792 401.5 771.5Q422 751 422 722ZM405 575Q413 552 419 527.5Q425 503 425 481Q425 444 413.5 420Q402 396 384.5 379.5Q367 363 345.5 352Q324 341 303 332Q281 322 258 310.5Q235 299 216.5 283.5Q198 268 186 246Q174 224 174 193Q174 161 187.5 139.5Q201 118 223 104.5Q245 91 273 85Q301 79 331 79Q402 79 441.5 110Q481 141 506 208L597 164Q582 127 560 95Q538 63 506 39Q474 15 431 1.5Q388 -12 331 -12Q206 -12 135 41Q64 94 64 192Q64 248 84.5 285Q105 322 134 346Q163 370 194.5 384Q226 398 249 407Q289 422 314 443.5Q339 465 339 506Q339 535 329 575Z" glyph-name="questiondown.cap" horiz-adv-x="641" unicode="&#58436;" /><glyph d="M346 780 321 530H248L223 780ZM166 780 141 530H68L42 780Z" glyph-name="quotedbl" horiz-adv-x="388" unicode="&quot;" /><glyph d="M167 86 78 -164H13L45 86ZM347 86 259 -164H192L225 86Z" glyph-name="quotedblbase" horiz-adv-x="363" unicode="&#8222;" /><glyph d="M169 530 257 780H323L291 530ZM-11 530 77 780H143L110 530Z" glyph-name="quotedblleft" horiz-adv-x="359" unicode="&#8220;" /><glyph d="M192 780 105 530H38L72 780ZM373 780 285 530H219L252 780Z" glyph-name="quotedblright" horiz-adv-x="363" unicode="&#8221;" /><glyph d="M-11 530 77 780H143L110 530Z" glyph-name="quoteleft" horiz-adv-x="182" unicode="&#8216;" /><glyph d="M192 780 105 530H38L72 780Z" glyph-name="quoteright" horiz-adv-x="182" unicode="&#8217;" /><glyph d="M167 86 78 -164H13L45 86Z" glyph-name="quotesinglbase" horiz-adv-x="182" unicode="&#8218;" /><glyph d="M166 780 141 530H68L42 780Z" glyph-name="quotesingle" horiz-adv-x="208" unicode="&apos;" /><glyph d="M345 450Q309 450 278.5 439Q248 428 225 410Q202 392 187.5 369.5Q173 347 169 325V0H69V530H153L167 449Q191 490 237.5 516Q284 542 341 542Q363 542 382.5 539Q402 536 416 531L407 438Q399 442 383 446Q367 450 345 450Z" glyph-name="r" horiz-adv-x="438" unicode="r" /><glyph d="M345 450Q309 450 278.5 439Q248 428 225 410Q202 392 187.5 369.5Q173 347 169 325V0H69V530H153L167 449Q191 490 237.5 516Q284 542 341 542Q363 542 382.5 539Q402 536 416 531L407 438Q399 442 383 446Q367 450 345 450ZM392 800 275 592H174L274 800Z" glyph-name="racute" horiz-adv-x="438" unicode="&#341;" /><glyph d="M821 764 347 -12H245L133 427L24 405V500L217 542L285 240L313 108L384 233L699 764Z" glyph-name="radical" horiz-adv-x="832" unicode="&#8730;" /><glyph d="M345 450Q309 450 278.5 439Q248 428 225 410Q202 392 187.5 369.5Q173 347 169 325V0H69V530H153L167 449Q191 490 237.5 516Q284 542 341 542Q363 542 382.5 539Q402 536 416 531L407 438Q399 442 383 446Q367 450 345 450ZM186 592 25 800H128L235 673L341 800H444L283 592Z" glyph-name="rcaron" horiz-adv-x="438" unicode="&#345;" /><glyph d="M345 450Q309 450 278.5 439Q248 428 225 410Q202 392 187.5 369.5Q173 347 169 325V0H69V530H153L167 449Q191 490 237.5 516Q284 542 341 542Q363 542 382.5 539Q402 536 416 531L407 438Q399 442 383 446Q367 450 345 450ZM181 -62 132 -200H39L57 -62Z" glyph-name="rcommaaccent" horiz-adv-x="438" unicode="&#343;" /><glyph d="M60 639Q60 615 70 593.5Q80 572 97 556Q114 540 137 531Q160 522 186 522Q212 522 234.5 531Q257 540 274 556Q291 572 300.5 593.5Q310 615 310 639Q310 664 300.5 685.5Q291 707 274 723Q257 739 234.5 748.5Q212 758 186 758Q160 758 137 748.5Q114 739 97 723Q80 707 70 685.5Q60 664 60 639ZM198 651Q206 651 215.5 655Q225 659 225 676Q225 693 215.5 696.5Q206 700 198 700H147V651ZM184 618H147V548H112V732H196Q222 732 241.5 721Q261 710 261 676Q261 651 250.5 639Q240 627 223 622L260 548H217ZM24 639Q24 671 36.5 699Q49 727 71 747.5Q93 768 122.5 780Q152 792 186 792Q219 792 248 780Q277 768 299 747.5Q321 727 333.5 699Q346 671 346 639Q346 608 333.5 580.5Q321 553 299 532.5Q277 512 248 500Q219 488 186 488Q152 488 122.5 500Q93 512 71 532.5Q49 553 36.5 580.5Q24 608 24 639Z" glyph-name="registered" horiz-adv-x="370" unicode="&#174;" /><glyph d="M147 390Q147 325 173 268.5Q199 212 243.5 170Q288 128 348 103.5Q408 79 476 79Q544 79 603.5 103.5Q663 128 707.5 170Q752 212 778 268.5Q804 325 804 390Q804 454 778 511Q752 568 707.5 610Q663 652 603.5 676.5Q544 701 476 701Q408 701 348 676.5Q288 652 243.5 610Q199 568 173 511Q147 454 147 390ZM506 418Q518 418 531 419.5Q544 421 555 428Q566 435 573 448Q580 461 580 484Q580 506 573 519Q566 532 555 539Q544 546 531 547.5Q518 549 506 549H375V418ZM475 334H375V146H282V634H502Q536 634 567.5 627.5Q599 621 623 604.5Q647 588 661.5 558.5Q676 529 676 484Q676 451 668 427.5Q660 404 646.5 387Q633 370 614.5 359.5Q596 349 574 343L673 146H560ZM51 390Q51 473 84.5 546.5Q118 620 175.5 674.5Q233 729 310.5 760.5Q388 792 476 792Q564 792 641 760.5Q718 729 776 674.5Q834 620 867.5 546.5Q901 473 901 390Q901 307 867.5 233.5Q834 160 776 105.5Q718 51 641 19.5Q564 -12 476 -12Q388 -12 310.5 19.5Q233 51 175.5 105.5Q118 160 84.5 233.5Q51 307 51 390Z" glyph-name="registered.cap" horiz-adv-x="951" unicode="&#59804;" /><glyph d="M291 780 324 530H258L170 780ZM111 780 144 530H77L-11 780Z" glyph-name="reversequotedblleft" horiz-adv-x="363" unicode="&#8223;" /><glyph d="M110 780 144 530H77L-11 780Z" glyph-name="reversequoteleft" horiz-adv-x="182" unicode="&#8219;" /><glyph d="M367 696Q367 718 353.5 731Q340 744 317 744Q294 744 280.5 731Q267 718 267 696Q267 674 280.5 661Q294 648 317 648Q340 648 353.5 661Q367 674 367 696ZM194 696Q194 747 226.5 779.5Q259 812 317 812Q375 812 407.5 779.5Q440 747 440 696Q440 645 407.5 612.5Q375 580 317 580Q259 580 226.5 612.5Q194 645 194 696Z" glyph-name="ring" horiz-adv-x="634" unicode="&#730;" /><glyph d="M367 926Q367 948 353.5 961Q340 974 317 974Q294 974 280.5 961Q267 948 267 926Q267 904 280.5 891Q294 878 317 878Q340 878 353.5 891Q367 904 367 926ZM194 926Q194 977 226.5 1009.5Q259 1042 317 1042Q375 1042 407.5 1009.5Q440 977 440 926Q440 875 407.5 842.5Q375 810 317 810Q259 810 226.5 842.5Q194 875 194 926Z" glyph-name="ring.cap" horiz-adv-x="634" unicode="&#58410;" /><glyph d="M116 161Q128 120 169 95.5Q210 71 281 72Q307 73 333.5 76.5Q360 80 381.5 89Q403 98 416.5 114Q430 130 430 154Q430 178 420 191.5Q410 205 391 212Q372 219 344 222Q316 225 280 229Q244 233 204.5 239.5Q165 246 131.5 262Q98 278 76.5 305.5Q55 333 55 379Q55 425 76 456.5Q97 488 130 507Q163 526 203 534Q243 542 281 542Q381 542 436.5 506.5Q492 471 512 415L426 374Q419 394 409 410Q399 426 382.5 436.5Q366 447 341.5 452.5Q317 458 281 458Q260 458 238.5 455.5Q217 453 199.5 444.5Q182 436 170.5 421.5Q159 407 159 383Q159 363 168.5 350.5Q178 338 196 330.5Q214 323 239.5 319Q265 315 297 312Q337 308 379.5 302.5Q422 297 456.5 281.5Q491 266 513 236.5Q535 207 535 156Q535 109 512 76.5Q489 44 452.5 24.5Q416 5 371 -3.5Q326 -12 282 -12Q173 -12 109 24.5Q45 61 26 117Z" glyph-name="s" horiz-adv-x="571" unicode="s" /><glyph d="M116 161Q128 120 169 95.5Q210 71 281 72Q307 73 333.5 76.5Q360 80 381.5 89Q403 98 416.5 114Q430 130 430 154Q430 178 420 191.5Q410 205 391 212Q372 219 344 222Q316 225 280 229Q244 233 204.5 239.5Q165 246 131.5 262Q98 278 76.5 305.5Q55 333 55 379Q55 425 76 456.5Q97 488 130 507Q163 526 203 534Q243 542 281 542Q381 542 436.5 506.5Q492 471 512 415L426 374Q419 394 409 410Q399 426 382.5 436.5Q366 447 341.5 452.5Q317 458 281 458Q260 458 238.5 455.5Q217 453 199.5 444.5Q182 436 170.5 421.5Q159 407 159 383Q159 363 168.5 350.5Q178 338 196 330.5Q214 323 239.5 319Q265 315 297 312Q337 308 379.5 302.5Q422 297 456.5 281.5Q491 266 513 236.5Q535 207 535 156Q535 109 512 76.5Q489 44 452.5 24.5Q416 5 371 -3.5Q326 -12 282 -12Q173 -12 109 24.5Q45 61 26 117ZM453 800 336 592H236L335 800Z" glyph-name="sacute" horiz-adv-x="571" unicode="&#347;" /><glyph d="M116 161Q128 120 169 95.5Q210 71 281 72Q307 73 333.5 76.5Q360 80 381.5 89Q403 98 416.5 114Q430 130 430 154Q430 178 420 191.5Q410 205 391 212Q372 219 344 222Q316 225 280 229Q244 233 204.5 239.5Q165 246 131.5 262Q98 278 76.5 305.5Q55 333 55 379Q55 425 76 456.5Q97 488 130 507Q163 526 203 534Q243 542 281 542Q381 542 436.5 506.5Q492 471 512 415L426 374Q419 394 409 410Q399 426 382.5 436.5Q366 447 341.5 452.5Q317 458 281 458Q260 458 238.5 455.5Q217 453 199.5 444.5Q182 436 170.5 421.5Q159 407 159 383Q159 363 168.5 350.5Q178 338 196 330.5Q214 323 239.5 319Q265 315 297 312Q337 308 379.5 302.5Q422 297 456.5 281.5Q491 266 513 236.5Q535 207 535 156Q535 109 512 76.5Q489 44 452.5 24.5Q416 5 371 -3.5Q326 -12 282 -12Q173 -12 109 24.5Q45 61 26 117ZM237 592 76 800H179L285 673L392 800H495L334 592Z" glyph-name="scaron" horiz-adv-x="571" unicode="&#353;" /><glyph d="M116 161Q128 120 169 95.5Q210 71 281 72Q307 73 333.5 76.5Q360 80 381.5 89Q403 98 416.5 114Q430 130 430 154Q430 178 420 191.5Q410 205 391 212Q372 219 344 222Q316 225 280 229Q244 233 204.5 239.5Q165 246 131.5 262Q98 278 76.5 305.5Q55 333 55 379Q55 425 76 456.5Q97 488 130 507Q163 526 203 534Q243 542 281 542Q381 542 436.5 506.5Q492 471 512 415L426 374Q419 394 409 410Q399 426 382.5 436.5Q366 447 341.5 452.5Q317 458 281 458Q260 458 238.5 455.5Q217 453 199.5 444.5Q182 436 170.5 421.5Q159 407 159 383Q159 363 168.5 350.5Q178 338 196 330.5Q214 323 239.5 319Q265 315 297 312Q337 308 379.5 302.5Q422 297 456.5 281.5Q491 266 513 236.5Q535 207 535 156Q535 114 516.5 83.5Q498 53 467.5 33.5Q437 14 398 3.5Q359 -7 319 -10L312 -35Q349 -43 377.5 -64.5Q406 -86 406 -126Q406 -149 396 -165Q386 -181 368.5 -191.5Q351 -202 327.5 -207Q304 -212 278 -212Q244 -212 217.5 -205.5Q191 -199 180 -194L198 -141Q206 -145 216 -148Q235 -155 256 -155Q265 -155 275.5 -154Q286 -153 295 -149.5Q304 -146 310 -140Q316 -134 316 -125Q316 -102 289 -91Q262 -80 224 -76L247 -11Q154 -5 98.5 30.5Q43 66 26 117Z" glyph-name="scedilla" horiz-adv-x="571" unicode="&#351;" /><glyph d="M116 161Q128 120 169 95.5Q210 71 281 72Q307 73 333.5 76.5Q360 80 381.5 89Q403 98 416.5 114Q430 130 430 154Q430 178 420 191.5Q410 205 391 212Q372 219 344 222Q316 225 280 229Q244 233 204.5 239.5Q165 246 131.5 262Q98 278 76.5 305.5Q55 333 55 379Q55 425 76 456.5Q97 488 130 507Q163 526 203 534Q243 542 281 542Q381 542 436.5 506.5Q492 471 512 415L426 374Q419 394 409 410Q399 426 382.5 436.5Q366 447 341.5 452.5Q317 458 281 458Q260 458 238.5 455.5Q217 453 199.5 444.5Q182 436 170.5 421.5Q159 407 159 383Q159 363 168.5 350.5Q178 338 196 330.5Q214 323 239.5 319Q265 315 297 312Q337 308 379.5 302.5Q422 297 456.5 281.5Q491 266 513 236.5Q535 207 535 156Q535 109 512 76.5Q489 44 452.5 24.5Q416 5 371 -3.5Q326 -12 282 -12Q173 -12 109 24.5Q45 61 26 117ZM334 800 495 592H392L285 719L179 592H76L237 800Z" glyph-name="scircumflex" horiz-adv-x="571" unicode="&#349;" /><glyph d="M116 161Q128 120 169 95.5Q210 71 281 72Q307 73 333.5 76.5Q360 80 381.5 89Q403 98 416.5 114Q430 130 430 154Q430 178 420 191.5Q410 205 391 212Q372 219 344 222Q316 225 280 229Q244 233 204.5 239.5Q165 246 131.5 262Q98 278 76.5 305.5Q55 333 55 379Q55 425 76 456.5Q97 488 130 507Q163 526 203 534Q243 542 281 542Q381 542 436.5 506.5Q492 471 512 415L426 374Q419 394 409 410Q399 426 382.5 436.5Q366 447 341.5 452.5Q317 458 281 458Q260 458 238.5 455.5Q217 453 199.5 444.5Q182 436 170.5 421.5Q159 407 159 383Q159 363 168.5 350.5Q178 338 196 330.5Q214 323 239.5 319Q265 315 297 312Q337 308 379.5 302.5Q422 297 456.5 281.5Q491 266 513 236.5Q535 207 535 156Q535 109 512 76.5Q489 44 452.5 24.5Q416 5 371 -3.5Q326 -12 282 -12Q173 -12 109 24.5Q45 61 26 117ZM350 -62 301 -200H208L226 -62Z" glyph-name="scommaaccent" horiz-adv-x="571" unicode="&#537;" /><glyph d="M181 588Q181 561 191 543Q201 525 223 514Q245 503 278.5 497.5Q312 492 359 488Q416 483 467 474.5Q518 466 556.5 445.5Q595 425 617 389Q639 353 639 295Q639 235 606.5 193.5Q574 152 523 129Q558 112 582 81Q606 50 606 -8Q606 -62 582 -100.5Q558 -139 518 -164Q478 -189 427.5 -200.5Q377 -212 324 -212Q199 -212 130 -167.5Q61 -123 42 -49L133 -4Q151 -60 196 -92Q241 -124 324 -123Q354 -123 385 -117Q416 -111 441.5 -98Q467 -85 483 -63Q499 -41 499 -8Q499 19 488.5 37Q478 55 456.5 66Q435 77 401 82.5Q367 88 320 92Q263 96 212 105Q161 114 123 134.5Q85 155 62.5 190.5Q40 226 40 285Q40 345 73 386.5Q106 428 156 451Q139 460 124 471.5Q109 483 98 499Q87 515 80.5 537Q74 559 74 588Q74 642 98 680.5Q122 719 162 744Q202 769 252.5 780.5Q303 792 356 792Q419 792 467 780.5Q515 769 550 747.5Q585 726 606.5 696Q628 666 638 629L547 584Q529 639 484 671.5Q439 704 356 703Q326 703 295 697Q264 691 238.5 678Q213 665 197 643Q181 621 181 588ZM144 286Q144 254 154.5 234.5Q165 215 187.5 203Q210 191 244.5 185Q279 179 328 175Q361 172 397.5 176.5Q434 181 465 194.5Q496 208 516 232.5Q536 257 536 294Q536 325 525.5 345Q515 365 492.5 377Q470 389 435.5 395Q401 401 352 405Q319 408 282 403.5Q245 399 214.5 385.5Q184 372 164 347.5Q144 323 144 286Z" glyph-name="section" horiz-adv-x="680" unicode="&#167;" /><glyph d="M57 408Q57 437 77.5 457.5Q98 478 127 478Q156 478 176.5 457.5Q197 437 197 408Q197 379 176.5 358.5Q156 338 127 338Q98 338 77.5 358.5Q57 379 57 408ZM189 111 98 -149H34L68 111Z" glyph-name="semicolon" horiz-adv-x="254" unicode=";" /><glyph d="M119 505Q26 505 6 569L51 591Q59 568 74.5 558.5Q90 549 119 549Q129 549 140 551.5Q151 554 160 559Q169 564 174.5 571.5Q180 579 180 590Q180 608 167 617Q154 626 118 629Q99 631 81 635Q63 639 48.5 647Q34 655 25.5 668.5Q17 682 17 703Q17 745 46.5 764.5Q76 784 118 784Q166 784 190.5 768.5Q215 753 226 724L183 703Q175 725 161 733Q147 741 118 741Q102 741 85 733Q68 725 68 704Q68 690 78 682Q88 674 122 671Q147 668 167 664Q187 660 200.5 651Q214 642 221.5 627.5Q229 613 229 589Q229 568 219.5 552Q210 536 195 525.5Q180 515 160 510Q140 505 119 505ZM413 576 431 624 496 780H555V510H506V642L507 688L492 650L434 510H392L335 650L319 688L320 642V510H272V780H331L395 624Z" glyph-name="servicemark" horiz-adv-x="587" unicode="&#8480;" /><glyph d="M221 0Q238 81 261 153.5Q284 226 310.5 288.5Q337 351 365 404Q393 457 420 500Q482 600 551 674L367 673H63V764H681V698Q602 612 533 505Q504 459 474 403.5Q444 348 418 284.5Q392 221 371 149.5Q350 78 339 0Z" glyph-name="seven" horiz-adv-x="740" unicode="7" /><glyph d="M194 0Q211 81 234 153.5Q257 226 283.5 288.5Q310 351 338 404Q366 457 393 500Q455 600 524 674L340 673H36V764H654V698Q575 612 506 505Q477 459 447 403.5Q417 348 391 284.5Q365 221 344 149.5Q323 78 312 0Z" glyph-name="seven.LP" horiz-adv-x="690" unicode="&#58684;" /><glyph d="M92 -200 229 72 253 117H39V197H360V143L190 -200Z" glyph-name="seven.inf" horiz-adv-x="401" unicode="&#58744;" /><glyph d="M559 245Q559 291 546 323Q533 355 509.5 375Q486 395 453.5 404Q421 413 383 413Q342 413 306 402Q270 391 243 369.5Q216 348 200 316Q184 284 184 241Q184 236 184 230Q184 224 185 214Q205 142 251.5 110Q298 78 372 78Q411 78 445 87Q479 96 504.5 116Q530 136 544.5 168Q559 200 559 245ZM564 585Q554 610 540.5 629Q527 648 507.5 660.5Q488 673 461 679Q434 685 398 685Q349 685 307 671Q265 657 234 625.5Q203 594 185.5 542.5Q168 491 168 417H170Q191 443 217.5 460.5Q244 478 274 488.5Q304 499 334.5 503Q365 507 393 507Q456 507 507 489.5Q558 472 594 438.5Q630 405 649.5 356Q669 307 669 245Q669 183 647 135Q625 87 586.5 54.5Q548 22 495.5 5Q443 -12 381 -12Q219 -12 143.5 87Q68 186 68 387Q68 484 91 557Q114 630 157 679Q200 728 261.5 752Q323 776 401 776Q453 776 494.5 764.5Q536 753 567 733Q598 713 619.5 686.5Q641 660 654 629Z" glyph-name="six" horiz-adv-x="740" unicode="6" /><glyph d="M559 245Q559 291 546 323Q533 355 509.5 375Q486 395 453.5 404Q421 413 383 413Q342 413 306 402Q270 391 243 369.5Q216 348 200 316Q184 284 184 241Q184 236 184 230Q184 224 185 214Q205 142 251.5 110Q298 78 372 78Q411 78 445 87Q479 96 504.5 116Q530 136 544.5 168Q559 200 559 245ZM564 585Q554 610 540.5 629Q527 648 507.5 660.5Q488 673 461 679Q434 685 398 685Q349 685 307 671Q265 657 234 625.5Q203 594 185.5 542.5Q168 491 168 417H170Q191 443 217.5 460.5Q244 478 274 488.5Q304 499 334.5 503Q365 507 393 507Q456 507 507 489.5Q558 472 594 438.5Q630 405 649.5 356Q669 307 669 245Q669 183 647 135Q625 87 586.5 54.5Q548 22 495.5 5Q443 -12 381 -12Q219 -12 143.5 87Q68 186 68 387Q68 484 91 557Q114 630 157 679Q200 728 261.5 752Q323 776 401 776Q453 776 494.5 764.5Q536 753 567 733Q598 713 619.5 686.5Q641 660 654 629Z" glyph-name="six.LP" horiz-adv-x="740" unicode="&#58683;" /><glyph d="M236 -5Q201 -5 177 -22.5Q153 -40 153 -75Q154 -106 177 -121Q200 -136 229 -136Q260 -136 281.5 -121Q303 -106 303 -71Q303 -36 284.5 -21Q266 -6 236 -5ZM243 133Q202 133 174 110Q146 87 145 29Q162 48 188 56.5Q214 65 247 65Q394 65 394 -71Q394 -143 348.5 -177.5Q303 -212 231 -212Q140 -212 98 -160.5Q56 -109 56 0Q56 106 104.5 157.5Q153 209 244 209Q314 209 352 178.5Q390 148 395 97L304 90Q295 132 243 133Z" glyph-name="six.inf" horiz-adv-x="444" unicode="&#58743;" /><glyph glyph-name="sixperemspace" horiz-adv-x="177" unicode="&#8198;" /><glyph d="M116 -90H11L254 870H359Z" glyph-name="slash" horiz-adv-x="370" unicode="/" /><glyph d="M236 800H341L134 -20H29Z" glyph-name="slash.cap" horiz-adv-x="370" unicode="&#58465;" /><glyph glyph-name="space" horiz-adv-x="243" unicode=" " /><glyph d="M477 790Q490 771 514.5 742.5Q539 714 571 682Q603 650 642 618Q681 586 723 560Q757 539 788.5 515.5Q820 492 844 464.5Q868 437 882 405Q896 373 896 334Q896 297 881.5 265.5Q867 234 842 210.5Q817 187 783 173.5Q749 160 710 160Q671 160 638 173.5Q605 187 579 209.5Q553 232 532.5 261Q512 290 499 321L496 320Q500 269 506.5 227Q513 185 523.5 147Q534 109 548 73Q562 37 582 0H369Q389 37 403.5 73Q418 109 428 147Q438 185 444.5 227Q451 269 456 320L452 321Q438 290 418.5 261Q399 232 372.5 209.5Q346 187 313 173.5Q280 160 241 160Q202 160 168 173.5Q134 187 109 210.5Q84 234 69.5 265.5Q55 297 55 334Q55 373 69 405Q83 437 107 464.5Q131 492 162 515.5Q193 539 228 560Q270 586 309 618Q348 650 380.5 682Q413 714 437.5 742.5Q462 771 475 790Z" glyph-name="spade" horiz-adv-x="951" unicode="&#9824;" /><glyph d="M448 390 234 593 303 659 518 456 733 659 802 593 588 390 802 187 733 121 518 324 303 121 234 187ZM211 684V96H824V684ZM106 780H930V0H106Z" glyph-name="squaremultiply" horiz-adv-x="1036" unicode="&#8864;" /><glyph d="M601 587Q595 608 583.5 626.5Q572 645 553 658.5Q534 672 506 680Q478 688 438 688Q268 688 268 550V441H514V353H268V89H691V0H52V89H168V353H52V441H168V543Q168 654 235.5 715Q303 776 434 776Q500 776 545.5 764.5Q591 753 620.5 733.5Q650 714 666 687Q682 660 690 630Z" glyph-name="sterling" horiz-adv-x="747" unicode="&#163;" /><glyph d="M653 764V672H398L258 673L549 427V357L238 91L378 92H676V0H73V88L431 392L98 674V764Z" glyph-name="summation" horiz-adv-x="727" unicode="&#8721;" /><glyph d="M24 530H126V672L226 688V530H397V449H226V199Q226 161 232.5 137.5Q239 114 252 100.5Q265 87 285 81.5Q305 76 332 76Q353 75 370.5 80Q388 85 396 89L406 0Q393 -5 372.5 -8.5Q352 -12 330 -12Q266 -12 226 5.5Q186 23 164 51.5Q142 80 134 117Q126 154 126 193V449L24 461Z" glyph-name="t" horiz-adv-x="444" unicode="t" /><glyph d="M226 277V199Q226 161 232.5 137.5Q239 114 252 100.5Q265 87 285 81.5Q305 76 332 76Q353 75 370.5 80Q388 85 396 89L406 0Q393 -5 372.5 -8.5Q352 -12 330 -12Q266 -12 226 5.5Q186 23 164 51.5Q142 80 134 117Q126 154 126 193V277H26V353H126V449L24 461V530H126V672L226 688V530H397V449H226V353H387V277Z" glyph-name="tbar" horiz-adv-x="444" unicode="&#359;" /><glyph d="M24 530H126V672L226 688V530H397V449H226V199Q226 161 232.5 137.5Q239 114 252 100.5Q265 87 285 81.5Q305 76 332 76Q353 75 370.5 80Q388 85 396 89L406 0Q393 -5 372.5 -8.5Q352 -12 330 -12Q266 -12 226 5.5Q186 23 164 51.5Q142 80 134 117Q126 154 126 193V449L24 461ZM452 800 379 592H289L338 800Z" glyph-name="tcaron" horiz-adv-x="444" unicode="&#357;" /><glyph d="M24 530H126V672L226 688V530H397V449H226V199Q226 161 232.5 137.5Q239 114 252 100.5Q265 87 285 81.5Q305 76 332 76Q353 75 370.5 80Q388 85 396 89L406 0Q393 -5 372.5 -8.5Q352 -12 330 -12Q266 -12 226 5.5Q186 23 164 51.5Q142 80 134 117Q126 154 126 193V449L24 461ZM309 -62 260 -200H167L185 -62Z" glyph-name="tcommaaccent" horiz-adv-x="444" unicode="&#355;" /><glyph glyph-name="thinspace" horiz-adv-x="211" unicode="&#8201;" /><glyph d="M169 202Q172 181 185 158.5Q198 136 220 118Q242 100 271.5 88.5Q301 77 337 77Q409 77 452 125Q495 173 495 265Q495 357 452 405Q409 453 337 453Q301 453 271.5 441.5Q242 430 220 412Q198 394 185 371.5Q172 349 169 328ZM599 265Q599 131 534 59.5Q469 -12 347 -12Q290 -12 243 10.5Q196 33 169 71V-200H69V788L169 812V459Q196 497 243 519.5Q290 542 347 542Q469 542 534 470.5Q599 399 599 265Z" glyph-name="thorn" horiz-adv-x="646" unicode="&#254;" /><glyph d="M146 210Q164 143 214 109.5Q264 76 354 76Q463 76 517.5 108Q572 140 572 209Q572 259 554.5 287Q537 315 509 328.5Q481 342 445 345Q409 348 372 348H257V439H372Q409 439 440 442Q471 445 493.5 457.5Q516 470 529 495Q542 520 542 564Q542 633 491.5 659.5Q441 686 351 686Q307 686 275.5 679Q244 672 222 657Q200 642 186 618Q172 594 163 560L75 602Q86 640 106.5 672Q127 704 160.5 727Q194 750 241.5 763Q289 776 355 776Q416 776 469.5 764.5Q523 753 562.5 727.5Q602 702 624.5 661.5Q647 621 647 564Q647 526 636.5 497.5Q626 469 608 448.5Q590 428 567 415.5Q544 403 519 398Q545 393 573 380Q601 367 624 344Q647 321 661.5 287.5Q676 254 676 209Q676 162 658.5 122Q641 82 603.5 52Q566 22 508.5 5Q451 -12 371 -12Q298 -12 244.5 1.5Q191 15 153.5 39Q116 63 93.5 96Q71 129 61 169Z" glyph-name="three" horiz-adv-x="740" unicode="3" /><glyph d="M146 210Q164 143 214 109.5Q264 76 354 76Q463 76 517.5 108Q572 140 572 209Q572 259 554.5 287Q537 315 509 328.5Q481 342 445 345Q409 348 372 348H257V439H372Q409 439 440 442Q471 445 493.5 457.5Q516 470 529 495Q542 520 542 564Q542 633 491.5 659.5Q441 686 351 686Q307 686 275.5 679Q244 672 222 657Q200 642 186 618Q172 594 163 560L75 602Q86 640 106.5 672Q127 704 160.5 727Q194 750 241.5 763Q289 776 355 776Q416 776 469.5 764.5Q523 753 562.5 727.5Q602 702 624.5 661.5Q647 621 647 564Q647 526 636.5 497.5Q626 469 608 448.5Q590 428 567 415.5Q544 403 519 398Q545 393 573 380Q601 367 624 344Q647 321 661.5 287.5Q676 254 676 209Q676 162 658.5 122Q641 82 603.5 52Q566 22 508.5 5Q451 -12 371 -12Q298 -12 244.5 1.5Q191 15 153.5 39Q116 63 93.5 96Q71 129 61 169Z" glyph-name="three.LP" horiz-adv-x="740" unicode="&#58680;" /><glyph d="M221 -132Q266 -133 290 -120Q314 -107 314 -79Q314 -61 307 -51.5Q300 -42 288.5 -37.5Q277 -33 262 -32Q247 -31 231 -31H164V39H233Q261 39 280 45.5Q299 52 299 83Q299 109 278 120.5Q257 132 225 132Q187 131 166.5 119Q146 107 142 75L51 82Q56 147 97.5 178Q139 209 224 209Q257 209 286.5 202.5Q316 196 339 182Q362 168 375.5 144.5Q389 121 389 88Q389 53 373.5 33.5Q358 14 338 6Q350 2 361.5 -5Q373 -12 382 -23.5Q391 -35 397 -50.5Q403 -66 403 -87Q403 -143 358.5 -177.5Q314 -212 219 -212Q134 -212 91 -179Q48 -146 42 -82L132 -75Q137 -107 159 -120Q181 -133 221 -132Z" glyph-name="three.inf" horiz-adv-x="450" unicode="&#58740;" /><glyph glyph-name="threeperemspace" horiz-adv-x="352" unicode="&#8196;" /><glyph d="M740 290H53V380H740Z" glyph-name="threequarteremdash" horiz-adv-x="793" unicode="&#58482;" /><glyph d="M740 345H53V435H740Z" glyph-name="threequarteremdash.cap" horiz-adv-x="793" unicode="&#58501;" /><glyph d="M849 239 850 279 762 157H849ZM938 78V0H849V78H655V137L860 409H938V157H1012V78ZM221 435Q266 434 290 447Q314 460 314 488Q314 506 307 515.5Q300 525 288.5 529.5Q277 534 262 535Q247 536 231 536H164V606H233Q261 606 280 612.5Q299 619 299 650Q299 676 278 687.5Q257 699 225 699Q187 698 166.5 686Q146 674 142 642L51 649Q56 714 97.5 745Q139 776 224 776Q257 776 286.5 769.5Q316 763 339 749Q362 735 375.5 711.5Q389 688 389 655Q389 620 373.5 600.5Q358 581 338 573Q350 569 361.5 562Q373 555 382 543.5Q391 532 397 516.5Q403 501 403 480Q403 424 358.5 389.5Q314 355 219 355Q134 355 91 388Q48 421 42 485L132 492Q137 460 159 447Q181 434 221 435ZM347 0H237L784 764H894Z" glyph-name="threequarters" horiz-adv-x="1045" unicode="&#190;" /><glyph d="M221 435Q266 434 290 447Q314 460 314 488Q314 506 307 515.5Q300 525 288.5 529.5Q277 534 262 535Q247 536 231 536H164V606H233Q261 606 280 612.5Q299 619 299 650Q299 676 278 687.5Q257 699 225 699Q187 698 166.5 686Q146 674 142 642L51 649Q56 714 97.5 745Q139 776 224 776Q257 776 286.5 769.5Q316 763 339 749Q362 735 375.5 711.5Q389 688 389 655Q389 620 373.5 600.5Q358 581 338 573Q350 569 361.5 562Q373 555 382 543.5Q391 532 397 516.5Q403 501 403 480Q403 424 358.5 389.5Q314 355 219 355Q134 355 91 388Q48 421 42 485L132 492Q137 460 159 447Q181 434 221 435Z" glyph-name="threesuperior" horiz-adv-x="450" unicode="&#179;" /><glyph d="M227 696Q213 696 203 691Q193 686 187 678.5Q181 671 177.5 661Q174 651 172 642L92 653Q101 709 133 743.5Q165 778 233 778Q268 778 292 765.5Q316 753 334.5 738Q353 723 370 710.5Q387 698 407 698Q436 698 447.5 715.5Q459 733 462 752L542 741Q534 685 501.5 650.5Q469 616 402 616Q367 616 343 628.5Q319 641 300 656Q281 671 264 683.5Q247 696 227 696Z" glyph-name="tilde" horiz-adv-x="634" unicode="&#732;" /><glyph d="M227 926Q213 926 203 921Q193 916 187 908.5Q181 901 177.5 891Q174 881 172 872L92 883Q101 939 133 973.5Q165 1008 233 1008Q268 1008 292 995.5Q316 983 334.5 968Q353 953 370 940.5Q387 928 407 928Q436 928 447.5 945.5Q459 963 462 982L542 971Q534 915 501.5 880.5Q469 846 402 846Q367 846 343 858.5Q319 871 300 886Q281 901 264 913.5Q247 926 227 926Z" glyph-name="tilde.cap" horiz-adv-x="634" unicode="&#58404;" /><glyph d="M137 510H87V735H2V780H223V735H137ZM406 576 424 624 488 780H548V510H499V642L500 688L484 650L427 510H385L328 650L312 688L313 642V510H264V780H323L388 624Z" glyph-name="trademark" horiz-adv-x="587" unicode="&#8482;" /><glyph d="M861 780 449 -10 37 780Z" glyph-name="triagdn" horiz-adv-x="898" unicode="&#9660;" /><glyph d="M856 0 21 390 856 780Z" glyph-name="triaglf" horiz-adv-x="898" unicode="&#9668;" /><glyph d="M42 780 877 390 42 0Z" glyph-name="triagrt" horiz-adv-x="898" unicode="&#9658;" /><glyph d="M37 0 449 790 861 0Z" glyph-name="triagup" horiz-adv-x="898" unicode="&#9650;" /><glyph d="M526 780 502 530H429L404 780ZM347 780 321 530H248L223 780ZM166 780 141 530H68L42 780Z" glyph-name="tripleprime" horiz-adv-x="569" unicode="&#8244;" /><glyph d="M59 0V6Q59 98 82.5 158.5Q106 219 147 260Q188 301 244.5 328.5Q301 356 367 382Q403 397 438 411Q473 425 501.5 443Q530 461 547.5 485.5Q565 510 565 547Q565 589 546 616Q527 643 497.5 658.5Q468 674 433 679.5Q398 685 366 685Q331 685 299 678Q267 671 241 656Q215 641 195.5 616.5Q176 592 166 557L78 599Q90 638 112.5 670Q135 702 170 725.5Q205 749 253.5 762Q302 775 366 775Q430 775 485.5 760.5Q541 746 581.5 717.5Q622 689 645 646.5Q668 604 668 547Q668 491 646 454Q624 417 587.5 391Q551 365 504.5 346Q458 327 410 306Q353 282 309 259.5Q265 237 234.5 212.5Q204 188 187.5 158Q171 128 169 89L686 90V0Z" glyph-name="two" horiz-adv-x="740" unicode="2" /><glyph d="M59 0V6Q59 98 82.5 158.5Q106 219 147 260Q188 301 244.5 328.5Q301 356 367 382Q403 397 438 411Q473 425 501.5 443Q530 461 547.5 485.5Q565 510 565 547Q565 589 546 616Q527 643 497.5 658.5Q468 674 433 679.5Q398 685 366 685Q331 685 299 678Q267 671 241 656Q215 641 195.5 616.5Q176 592 166 557L78 599Q90 638 112.5 670Q135 702 170 725.5Q205 749 253.5 762Q302 775 366 775Q430 775 485.5 760.5Q541 746 581.5 717.5Q622 689 645 646.5Q668 604 668 547Q668 491 646 454Q624 417 587.5 391Q551 365 504.5 346Q458 327 410 306Q353 282 309 259.5Q265 237 234.5 212.5Q204 188 187.5 158Q171 128 169 89L686 90V0Z" glyph-name="two.LP" horiz-adv-x="740" unicode="&#58679;" /><glyph d="M224 209Q258 209 288 201Q318 193 340.5 177.5Q363 162 375.5 138Q388 114 388 82Q388 50 376.5 29.5Q365 9 345.5 -5Q326 -19 301 -28.5Q276 -38 249 -47Q207 -62 179 -79Q151 -96 145 -123L238 -121H396V-200H48Q47 -145 58.5 -109.5Q70 -74 91.5 -50.5Q113 -27 143.5 -12.5Q174 2 211 16Q255 32 277 44.5Q299 57 299 81Q299 96 292 105.5Q285 115 274.5 121Q264 127 251 129Q238 131 226 131Q186 131 165.5 119Q145 107 140 75L49 82Q61 209 224 209Z" glyph-name="two.inf" horiz-adv-x="444" unicode="&#58739;" /><glyph d="M224 776Q258 776 288 768Q318 760 340.5 744.5Q363 729 375.5 705Q388 681 388 649Q388 617 376.5 596.5Q365 576 345.5 562Q326 548 301 538.5Q276 529 249 520Q207 505 179 488Q151 471 145 444L238 446H396V367H48Q47 422 58.5 457.5Q70 493 91.5 516.5Q113 540 143.5 554.5Q174 569 211 583Q255 599 277 611.5Q299 624 299 648Q299 663 292 672.5Q285 682 274.5 688Q264 694 251 696Q238 698 226 698Q186 698 165.5 686Q145 674 140 642L49 649Q61 776 224 776Z" glyph-name="twosuperior" horiz-adv-x="444" unicode="&#178;" /><glyph d="M553 106Q556 74 594 74Q603 74 614.5 77Q626 80 631 83V1Q624 -4 608 -8Q592 -12 564 -12Q523 -12 492.5 7Q462 26 455 73Q427 35 379.5 11.5Q332 -12 275 -12Q228 -12 188.5 -0.5Q149 11 120.5 34Q92 57 75.5 90Q59 123 59 167V530H161V184Q161 131 196 104Q231 77 290 77Q324 77 353 89Q382 101 403 119Q424 137 436.5 159Q449 181 452 202V530H553Z" glyph-name="u" horiz-adv-x="652" unicode="u" /><glyph d="M472 800 355 592H255L354 800ZM553 106Q556 74 594 74Q603 74 614.5 77Q626 80 631 83V1Q624 -4 608 -8Q592 -12 564 -12Q523 -12 492.5 7Q462 26 455 73Q427 35 379.5 11.5Q332 -12 275 -12Q228 -12 188.5 -0.5Q149 11 120.5 34Q92 57 75.5 90Q59 123 59 167V530H161V184Q161 131 196 104Q231 77 290 77Q324 77 353 89Q382 101 403 119Q424 137 436.5 159Q449 181 452 202V530H553Z" glyph-name="uacute" horiz-adv-x="652" unicode="&#250;" /><glyph d="M304 595Q248 595 210 608.5Q172 622 149 648.5Q126 675 116.5 713Q107 751 107 800H189Q188 733 215.5 706Q243 679 304 679Q366 679 393.5 706Q421 733 420 800H502Q502 751 492.5 713Q483 675 460 648.5Q437 622 399 608.5Q361 595 304 595ZM553 112Q553 74 594 74Q603 74 614.5 77Q626 80 631 83V1Q624 -4 608 -8Q592 -12 564 -12Q523 -12 492.5 7Q462 26 455 73Q427 35 379.5 11.5Q332 -12 275 -12Q228 -12 188.5 -0.5Q149 11 120.5 34Q92 57 75.5 90Q59 123 59 167V530H161V184Q161 131 196 104Q231 77 290 77Q324 77 353 89Q382 101 403 119Q424 137 436.5 159Q449 181 452 202V530H553Z" glyph-name="ubreve" horiz-adv-x="652" unicode="&#365;" /><glyph d="M353 800 514 592H411L304 719L198 592H95L256 800ZM553 112Q553 74 594 74Q603 74 614.5 77Q626 80 631 83V1Q624 -4 608 -8Q592 -12 564 -12Q523 -12 492.5 7Q462 26 455 73Q427 35 379.5 11.5Q332 -12 275 -12Q228 -12 188.5 -0.5Q149 11 120.5 34Q92 57 75.5 90Q59 123 59 167V530H161V184Q161 131 196 104Q231 77 290 77Q324 77 353 89Q382 101 403 119Q424 137 436.5 159Q449 181 452 202V530H553Z" glyph-name="ucircumflex" horiz-adv-x="652" unicode="&#251;" /><glyph d="M128 696Q128 725 148.5 745.5Q169 766 198 766Q227 766 247.5 745.5Q268 725 268 696Q268 667 247.5 646.5Q227 626 198 626Q169 626 148.5 646.5Q128 667 128 696ZM338 696Q338 725 358.5 745.5Q379 766 408 766Q437 766 457.5 745.5Q478 725 478 696Q478 667 457.5 646.5Q437 626 408 626Q379 626 358.5 646.5Q338 667 338 696ZM553 112Q553 74 594 74Q603 74 614.5 77Q626 80 631 83V1Q624 -4 608 -8Q592 -12 564 -12Q523 -12 492.5 7Q462 26 455 73Q427 35 379.5 11.5Q332 -12 275 -12Q228 -12 188.5 -0.5Q149 11 120.5 34Q92 57 75.5 90Q59 123 59 167V530H161V184Q161 131 196 104Q231 77 290 77Q324 77 353 89Q382 101 403 119Q424 137 436.5 159Q449 181 452 202V530H553Z" glyph-name="udieresis" horiz-adv-x="652" unicode="&#252;" /><glyph d="M262 800 361 592H261L144 800ZM553 112Q553 74 594 74Q603 74 614.5 77Q626 80 631 83V1Q624 -4 608 -8Q592 -12 564 -12Q523 -12 492.5 7Q462 26 455 73Q427 35 379.5 11.5Q332 -12 275 -12Q228 -12 188.5 -0.5Q149 11 120.5 34Q92 57 75.5 90Q59 123 59 167V530H161V184Q161 131 196 104Q231 77 290 77Q324 77 353 89Q382 101 403 119Q424 137 436.5 159Q449 181 452 202V530H553Z" glyph-name="ugrave" horiz-adv-x="652" unicode="&#249;" /><glyph d="M386 800 268 592H168L267 800ZM555 800 438 592H337L437 800ZM553 106Q556 74 594 74Q603 74 614.5 77Q626 80 631 83V1Q624 -4 608 -8Q592 -12 564 -12Q523 -12 492.5 7Q462 26 455 73Q427 35 379.5 11.5Q332 -12 275 -12Q228 -12 188.5 -0.5Q149 11 120.5 34Q92 57 75.5 90Q59 123 59 167V530H161V184Q161 131 196 104Q231 77 290 77Q324 77 353 89Q382 101 403 119Q424 137 436.5 159Q449 181 452 202V530H553Z" glyph-name="uhungarumlaut" horiz-adv-x="652" unicode="&#369;" /><glyph d="M152 652V742H457V652ZM553 106Q556 74 594 74Q603 74 614.5 77Q626 80 631 83V1Q624 -4 608 -8Q592 -12 564 -12Q523 -12 492.5 7Q462 26 455 73Q427 35 379.5 11.5Q332 -12 275 -12Q228 -12 188.5 -0.5Q149 11 120.5 34Q92 57 75.5 90Q59 123 59 167V530H161V184Q161 131 196 104Q231 77 290 77Q324 77 353 89Q382 101 403 119Q424 137 436.5 159Q449 181 452 202V530H553Z" glyph-name="umacron" horiz-adv-x="652" unicode="&#363;" /><glyph d="M21 -200V-110H307V-200Z" glyph-name="underscore" horiz-adv-x="328" unicode="_" /><glyph d="M21 -200V-110H719V-200Z" glyph-name="underscoremonospace" horiz-adv-x="740" unicode="&#65343;" /><glyph d="M53 290V380H328V290Z" glyph-name="uni00AD" horiz-adv-x="381" unicode="&#173;" /><glyph d="M253 592 326 800H416L367 592Z" glyph-name="uni0312" horiz-adv-x="634" unicode="&#786;" /><glyph d="M376 -173H258V-62H376Z" glyph-name="uni0323" horiz-adv-x="634" unicode="&#803;" /><glyph d="M279 -200V-40H354V-200Z" glyph-name="uni0329" horiz-adv-x="634" unicode="&#809;" /><glyph d="M185 576V434H379Q428 434 451 451Q474 468 474 509Q474 547 452 561.5Q430 576 379 576ZM386 187Q408 187 427 190Q446 193 460.5 202Q475 211 483.5 226.5Q492 242 492 266Q492 290 484 305.5Q476 321 462.5 330.5Q449 340 431 343.5Q413 347 392 347H185V187ZM258 100 230 0H136L162 100H84V664H309L335 764H429L403 664Q432 663 462.5 656Q493 649 518.5 632Q544 615 560.5 586.5Q577 558 577 513Q577 462 554 434Q531 406 502 398Q541 391 568 356Q595 321 595 264Q595 214 577.5 182Q560 150 531 132Q502 114 464.5 107Q427 100 387 100Z" glyph-name="uni0E3F" horiz-adv-x="636" unicode="&#3647;" /><glyph d="M1427 290H53V380H1427Z" glyph-name="uni2015" horiz-adv-x="1480" unicode="&#8213;" /><glyph d="M1427 345H53V435H1427Z" glyph-name="uni2015.cap" horiz-adv-x="1480" unicode="&#58504;" /><glyph d="M268 355Q221 355 182.5 368Q144 381 116.5 407Q89 433 73.5 472.5Q58 512 58 565Q58 618 73.5 657.5Q89 697 116.5 723.5Q144 750 182.5 763Q221 776 268 776Q315 776 354 763Q393 750 420.5 724Q448 698 463.5 658.5Q479 619 479 566Q479 513 463.5 473Q448 433 420.5 407Q393 381 354 368Q315 355 268 355ZM268 435Q320 435 354 464.5Q388 494 388 566Q388 637 354 666.5Q320 696 268 696Q217 696 183 666.5Q149 637 149 565Q149 494 183 464.5Q217 435 268 435Z" glyph-name="uni2070" horiz-adv-x="537" unicode="&#8304;" /><glyph d="M227 606 228 646 141 524H227ZM316 445V367H227V445H34V504L239 776H316V524H390V445Z" glyph-name="uni2074" horiz-adv-x="425" unicode="&#8308;" /><glyph d="M218 432Q249 432 273 447.5Q297 463 297 500Q297 571 223 571Q197 571 176 563Q155 555 142 538L64 554L89 764H365V684H166L157 619Q170 627 189.5 631Q209 635 229 635Q303 636 345 603Q387 570 387 498Q387 461 374 434Q361 407 338 389.5Q315 372 284 363.5Q253 355 217 355Q133 355 93.5 387.5Q54 420 48 482L137 490Q143 456 162 443.5Q181 431 218 432Z" glyph-name="uni2075" horiz-adv-x="434" unicode="&#8309;" /><glyph d="M236 562Q201 562 177 544.5Q153 527 153 492Q154 461 177 446Q200 431 229 431Q260 431 281.5 446Q303 461 303 496Q303 531 284.5 546Q266 561 236 562ZM243 700Q202 700 174 677Q146 654 145 596Q162 615 188 623.5Q214 632 247 632Q394 632 394 496Q394 424 348.5 389.5Q303 355 231 355Q140 355 98 406.5Q56 458 56 567Q56 673 104.5 724.5Q153 776 244 776Q314 776 352 745.5Q390 715 395 664L304 657Q295 699 243 700Z" glyph-name="uni2076" horiz-adv-x="444" unicode="&#8310;" /><glyph d="M92 367 229 639 253 684H39V764H360V710L190 367Z" glyph-name="uni2077" horiz-adv-x="401" unicode="&#8311;" /><glyph d="M222 355Q48 355 48 474Q48 517 66.5 539Q85 561 109 571Q87 582 73 604.5Q59 627 59 659Q59 692 72.5 714.5Q86 737 108.5 750.5Q131 764 160.5 770Q190 776 222 776Q254 776 283.5 770Q313 764 335.5 750.5Q358 737 371.5 714.5Q385 692 385 659Q385 627 371 604.5Q357 582 335 571Q359 561 377.5 539Q396 517 396 474Q396 355 222 355ZM222 431Q261 431 283 443Q305 455 305 483Q305 500 297.5 511Q290 522 278 528Q266 534 251.5 536Q237 538 222 538Q207 538 192 536Q177 534 165 528Q153 522 145.5 511Q138 500 138 483Q138 455 160.5 443Q183 431 222 431ZM222 602Q237 602 250.5 604Q264 606 274.5 611.5Q285 617 291 626.5Q297 636 297 652Q297 678 275 688.5Q253 699 222 699Q191 699 169 688.5Q147 678 147 652Q147 636 153 626.5Q159 617 169.5 611.5Q180 606 193.5 604Q207 602 222 602Z" glyph-name="uni2078" horiz-adv-x="444" unicode="&#8312;" /><glyph d="M207 569Q242 569 266 586.5Q290 604 290 639Q289 670 266 685Q243 700 214 700Q183 700 161.5 685Q140 670 140 635Q140 600 158.5 585Q177 570 207 569ZM200 431Q220 431 238 436.5Q256 442 269 454Q282 466 290 486Q298 506 298 535Q281 516 255 507.5Q229 499 196 499Q49 499 49 635Q49 671 61 697.5Q73 724 94.5 741.5Q116 759 145.5 767.5Q175 776 211 776Q303 776 345 724.5Q387 673 387 564Q387 458 338.5 406.5Q290 355 199 355Q129 355 91 385.5Q53 416 48 467L138 474Q143 454 158 443Q173 432 200 431Z" glyph-name="uni2079" horiz-adv-x="444" unicode="&#8313;" /><glyph d="M153 532H40V627H153V734H254V627H367V532H254V425H153Z" glyph-name="uni207A" horiz-adv-x="408" unicode="&#8314;" /><glyph d="M38 533V627H367V533Z" glyph-name="uni207B" horiz-adv-x="408" unicode="&#8315;" /><glyph d="M41 605V694H367V605ZM41 466V555H367V466Z" glyph-name="uni207C" horiz-adv-x="408" unicode="&#8316;" /><glyph d="M153 567Q153 501 167.5 433Q182 365 205 314H120Q96 363 78 425.5Q60 488 60 567Q60 646 78 708.5Q96 771 120 820H205Q182 769 167.5 701Q153 633 153 567Z" glyph-name="uni207D" horiz-adv-x="255" unicode="&#8317;" /><glyph d="M101 567Q101 633 87 701Q73 769 50 820H134Q159 771 176.5 708.5Q194 646 194 567Q194 488 176.5 425.5Q159 363 134 314H50Q73 365 87 433Q101 501 101 567Z" glyph-name="uni207E" horiz-adv-x="255" unicode="&#8318;" /><glyph d="M268 -12Q221 -12 182.5 1Q144 14 116.5 40Q89 66 73.5 105.5Q58 145 58 198Q58 251 73.5 290.5Q89 330 116.5 356.5Q144 383 182.5 396Q221 409 268 409Q315 409 354 396Q393 383 420.5 357Q448 331 463.5 291.5Q479 252 479 199Q479 146 463.5 106Q448 66 420.5 40Q393 14 354 1Q315 -12 268 -12ZM268 68Q320 68 354 97.5Q388 127 388 199Q388 270 354 299.5Q320 329 268 329Q217 329 183 299.5Q149 270 149 198Q149 127 183 97.5Q217 68 268 68Z" glyph-name="uni2080" horiz-adv-x="537" unicode="&#8320;" /><glyph d="M181 79V288Q157 269 122.5 257.5Q88 246 48 239V322Q93 331 130 352.5Q167 374 199 409H270V79H391V0H59V79Z" glyph-name="uni2081" horiz-adv-x="423" unicode="&#8321;" /><glyph d="M224 409Q258 409 288 401Q318 393 340.5 377.5Q363 362 375.5 338Q388 314 388 282Q388 250 376.5 229.5Q365 209 345.5 195Q326 181 301 171.5Q276 162 249 153Q207 138 179 121Q151 104 145 77L238 79H396V0H48Q47 55 58.5 90.5Q70 126 91.5 149.5Q113 173 143.5 187.5Q174 202 211 216Q255 232 277 244.5Q299 257 299 281Q299 296 292 305.5Q285 315 274.5 321Q264 327 251 329Q238 331 226 331Q186 331 165.5 319Q145 307 140 275L49 282Q61 409 224 409Z" glyph-name="uni2082" horiz-adv-x="444" unicode="&#8322;" /><glyph d="M221 68Q266 67 290 80Q314 93 314 121Q314 139 307 148.5Q300 158 288.5 162.5Q277 167 262 168Q247 169 231 169H164V239H233Q261 239 280 245.5Q299 252 299 283Q299 309 278 320.5Q257 332 225 332Q187 331 166.5 319Q146 307 142 275L51 282Q56 347 97.5 378Q139 409 224 409Q257 409 286.5 402.5Q316 396 339 382Q362 368 375.5 344.5Q389 321 389 288Q389 253 373.5 233.5Q358 214 338 206Q350 202 361.5 195Q373 188 382 176.5Q391 165 397 149.5Q403 134 403 113Q403 57 358.5 22.5Q314 -12 219 -12Q134 -12 91 21Q48 54 42 118L132 125Q137 93 159 80Q181 67 221 68Z" glyph-name="uni2083" horiz-adv-x="450" unicode="&#8323;" /><glyph d="M227 239 228 279 141 157H227ZM316 78V0H227V78H34V137L239 409H316V157H390V78Z" glyph-name="uni2084" horiz-adv-x="425" unicode="&#8324;" /><glyph d="M218 65Q249 65 273 80.5Q297 96 297 133Q297 204 223 204Q197 204 176 196Q155 188 142 171L64 187L89 397H365V317H166L157 252Q170 260 189.5 264Q209 268 229 268Q303 269 345 236Q387 203 387 131Q387 94 374 67Q361 40 338 22.5Q315 5 284 -3.5Q253 -12 217 -12Q133 -12 93.5 20.5Q54 53 48 115L137 123Q143 89 162 76.5Q181 64 218 65Z" glyph-name="uni2085" horiz-adv-x="434" unicode="&#8325;" /><glyph d="M236 195Q201 195 177 177.5Q153 160 153 125Q154 94 177 79Q200 64 229 64Q260 64 281.5 79Q303 94 303 129Q303 164 284.5 179Q266 194 236 195ZM243 333Q202 333 174 310Q146 287 145 229Q162 248 188 256.5Q214 265 247 265Q394 265 394 129Q394 57 348.5 22.5Q303 -12 231 -12Q140 -12 98 39.5Q56 91 56 200Q56 306 104.5 357.5Q153 409 244 409Q314 409 352 378.5Q390 348 395 297L304 290Q295 332 243 333Z" glyph-name="uni2086" horiz-adv-x="444" unicode="&#8326;" /><glyph d="M92 0 229 272 253 317H39V397H360V343L190 0Z" glyph-name="uni2087" horiz-adv-x="401" unicode="&#8327;" /><glyph d="M222 -12Q48 -12 48 107Q48 150 66.5 172Q85 194 109 204Q87 215 73 237.5Q59 260 59 292Q59 325 72.5 347.5Q86 370 108.5 383.5Q131 397 160.5 403Q190 409 222 409Q254 409 283.5 403Q313 397 335.5 383.5Q358 370 371.5 347.5Q385 325 385 292Q385 260 371 237.5Q357 215 335 204Q359 194 377.5 172Q396 150 396 107Q396 -12 222 -12ZM222 64Q261 64 283 76Q305 88 305 116Q305 133 297.5 144Q290 155 278 161Q266 167 251.5 169Q237 171 222 171Q207 171 192 169Q177 167 165 161Q153 155 145.5 144Q138 133 138 116Q138 88 160.5 76Q183 64 222 64ZM222 235Q237 235 250.5 237Q264 239 274.5 244.5Q285 250 291 259.5Q297 269 297 285Q297 311 275 321.5Q253 332 222 332Q191 332 169 321.5Q147 311 147 285Q147 269 153 259.5Q159 250 169.5 244.5Q180 239 193.5 237Q207 235 222 235Z" glyph-name="uni2088" horiz-adv-x="444" unicode="&#8328;" /><glyph d="M207 202Q242 202 266 219.5Q290 237 290 272Q289 303 266 318Q243 333 214 333Q183 333 161.5 318Q140 303 140 268Q140 233 158.5 218Q177 203 207 202ZM200 64Q220 64 238 69.5Q256 75 269 87Q282 99 290 119Q298 139 298 168Q281 149 255 140.5Q229 132 196 132Q49 132 49 268Q49 304 61 330.5Q73 357 94.5 374.5Q116 392 145.5 400.5Q175 409 211 409Q303 409 345 357.5Q387 306 387 197Q387 91 338.5 39.5Q290 -12 199 -12Q129 -12 91 18.5Q53 49 48 100L138 107Q143 87 158 76Q173 65 200 64Z" glyph-name="uni2089" horiz-adv-x="444" unicode="&#8329;" /><glyph d="M153 165H40V260H153V367H254V260H367V165H254V58H153Z" glyph-name="uni208A" horiz-adv-x="408" unicode="&#8330;" /><glyph d="M38 166V260H367V166Z" glyph-name="uni208B" horiz-adv-x="408" unicode="&#8331;" /><glyph d="M41 238V327H367V238ZM41 99V188H367V99Z" glyph-name="uni208C" horiz-adv-x="408" unicode="&#8332;" /><glyph d="M153 200Q153 134 167.5 66Q182 -2 205 -53H120Q96 -4 78 58.5Q60 121 60 200Q60 279 78 341.5Q96 404 120 453H205Q182 402 167.5 334Q153 266 153 200Z" glyph-name="uni208D" horiz-adv-x="255" unicode="&#8333;" /><glyph d="M101 200Q101 266 87 334Q73 402 50 453H134Q159 404 176.5 341.5Q194 279 194 200Q194 121 176.5 58.5Q159 -4 134 -53H50Q73 -2 87 66Q101 134 101 200Z" glyph-name="uni208E" horiz-adv-x="255" unicode="&#8334;" /><glyph d="M236 146Q241 139 248 132.5Q255 126 262 121L493 675Q485 677 476.5 678.5Q468 680 459 682ZM172 382Q172 340 176.5 302Q181 264 191 230L381 684Q319 679 278.5 653.5Q238 628 214.5 587.5Q191 547 181.5 494Q172 441 172 382ZM629 810 596 731Q644 702 669 657.5Q694 613 702 557L594 546Q585 605 556 637L328 89Q361 79 407 79Q453 79 486 87Q519 95 541 112Q563 129 575.5 155.5Q588 182 594 218L702 207Q695 159 675.5 118.5Q656 78 620.5 49Q585 20 532 4Q479 -12 407 -12Q345 -12 292 2L272 -46H192L224 29Q216 34 209 38.5Q202 43 194 48L155 -46H76L138 104Q100 155 81.5 224.5Q63 294 63 382Q63 473 83.5 546Q104 619 146.5 670Q189 721 253.5 748.5Q318 776 407 776H419L433 810H513L495 768Q503 766 511.5 764.5Q520 763 528 761L550 810Z" glyph-name="uni20A1" horiz-adv-x="757" unicode="&#8353;" /><glyph d="M599 381Q563 381 532.5 370Q502 359 479 341Q456 323 442 300.5Q428 278 424 256V79Q466 80 495.5 89Q525 98 545 115Q565 132 576.5 157.5Q588 183 594 218L702 207Q695 159 675.5 118.5Q656 78 620.5 49Q585 20 532 4Q479 -12 407 -12Q318 -12 253.5 15Q189 42 146.5 93Q104 144 83.5 217Q63 290 63 382Q63 473 83.5 546Q104 619 146.5 670Q189 721 253.5 748.5Q318 776 407 776Q479 776 532 760Q585 744 620.5 715Q656 686 675.5 645.5Q695 605 702 557L594 546Q588 582 575.5 608.5Q563 635 541 652Q519 669 486 677Q453 685 407 685Q337 685 291.5 661Q246 637 219.5 595.5Q193 554 182.5 499Q172 444 172 382Q172 330 179 283Q186 236 203 197.5Q220 159 249.5 131Q279 103 323 90V330L316 461H408L422 380Q445 421 492 447Q539 473 596 473Q618 473 637.5 470Q657 467 671 462L662 369Q654 373 638 377Q622 381 599 381Z" glyph-name="uni20A2" horiz-adv-x="757" unicode="&#8354;" /><glyph d="M582 280H521L586 176ZM216 484H276L212 588ZM475 356H582V408H443ZM216 356H355L322 408H216ZM109 484V764H224L396 484H582V764H689V484H766V408H689V356H766V280H689V0H574L402 280H216V0H109V280H32V356H109V408H32V484Z" glyph-name="uni20A6" horiz-adv-x="798" unicode="&#8358;" /></font>
</defs>
</svg>
